SplineFontDB: 3.0
FontName: FrancoisOne
FullName: Francois One
FamilyName: Francois One
Weight: Book
Copyright: Copyright (c) 2011 by vernon adams. All rights reserved.
Version: 1.000
ItalicAngle: 0
UnderlinePosition: -103
UnderlineWidth: 102
Ascent: 1638
Descent: 410
sfntRevision: 0x00010000
LayerCount: 2
Layer: 0 1 "Back"  1
Layer: 1 1 "Fore"  0
NeedsXUIDChange: 1
XUID: [1021 288 713564382 12677257]
FSType: 0
OS2Version: 3
OS2_WeightWidthSlopeOnly: 0
OS2_UseTypoMetrics: 1
CreationTime: 1303508280
ModificationTime: 1303483726
PfmFamily: 17
TTFWeight: 400
TTFWidth: 5
LineGap: 0
VLineGap: 0
Panose: 2 0 5 3 4 0 0 2 0 4
OS2TypoAscent: 2177
OS2TypoAOffset: 0
OS2TypoDescent: -669
OS2TypoDOffset: 0
OS2TypoLinegap: 0
OS2WinAscent: 2177
OS2WinAOffset: 0
OS2WinDescent: 669
OS2WinDOffset: 0
HheadAscent: 2177
HheadAOffset: 0
HheadDescent: -669
HheadDOffset: 0
OS2SubXSize: 1434
OS2SubYSize: 1331
OS2SubXOff: 0
OS2SubYOff: 287
OS2SupXSize: 1434
OS2SupYSize: 1331
OS2SupXOff: 0
OS2SupYOff: 977
OS2StrikeYSize: 102
OS2StrikeYPos: 512
OS2Vendor: 'newt'
OS2CodePages: 20000193.4d000000
OS2UnicodeRanges: a00000ff.7800204b.14200000.00000000
Lookup: 258 0 0 "'kern' Horizontal Kerning in Latin lookup 0"  {"'kern' Horizontal Kerning in Latin lookup 0 per glyph data 0"  "'kern' Horizontal Kerning in Latin lookup 0 per glyph data 1"  "'kern' Horizontal Kerning in Latin lookup 0 kerning class 2"  } ['kern' ('latn' <'dflt' > ) ]
MarkAttachClasses: 1
DEI: 91125
KernClass2: 39+ 32 "'kern' Horizontal Kerning in Latin lookup 0 kerning class 2" 
 73 A Aring Agrave Aacute Acircumflex Atilde Adieresis Abreve Amacron Aogonek
 47 C Ccedilla Cacute Ccaron Ccircumflex Cdotaccent
 19 D Eth Dcaron Dcroat
 100 E Eacute Edieresis Ecircumflex OE AE Egrave AEacute Ebreve Ecaron Edotaccent Emacron Eogonek uni1EBC
 44 G Gbreve Gcommaaccent Gcircumflex Gdotaccent
 147 H I M N Igrave Iacute Icircumflex Idieresis Ntilde Hbar Hcircumflex Ibreve Idotaccent Imacron Iogonek Itilde Nacute Ncaron Ncommaaccent Eng uni1E46

StartChar: E
Encoding: 69 69 4
Width: 988
Flags: HW
LayerCount: 2
Fore
SplineSet
142 1536 m 1,0,-1
 922 1536 l 1,1,-1
 898 1296 l 1,2,-1
 442 1296 l 1,3,-1
 442 930 l 1,4,-1
 765 930 l 1,5,-1
 764 672 l 1,6,-1
 442 672 l 1,7,-1
 442 240 l 1,8,-1
 938 240 l 1,9,-1
 914 0 l 1,10,-1
 142 0 l 1,11,-1
 142 1536 l 1,0,-1
EndSplineSet
EndChar

StartChar: F
Encoding: 70 70 5
Width: 940
Flags: HW
LayerCount: 2
Fore
SplineSet
141 1536 m 1,0,-1
 921 1536 l 1,1,-1
 897 1295 l 1,2,-1
 441 1295 l 1,3,-1
 441 893 l 1,4,-1
 763 893 l 1,5,-1
 763 638 l 1,6,-1
 441 638 l 1,7,-1
 441 12 l 1,8,-1
 141 -12 l 1,9,-1
 141 1536 l 1,0,-1
EndSplineSet
EndChar

StartChar: G
Encoding: 71 71 6
Width: 1132
Flags: HW
LayerCount: 2
Fore
SplineSet
739 1015 m 1,0,1
 735 1044 735 1044 731.5 1078.5 c 128,-1,2
 728 1113 728 1113 721.5 1148.5 c 0,3,4
 687.901408451 1332 687.901408451 1332 588.166666667 1332 c 0,5,6
 536 1332 536 1332 506 1305.5 c 128,-1,7
 476 1279 476 1279 454 1235 c 0,8,9
 414.273684211 1155.54736842 414.273684211 1155.54736842 397.636842105 1023.49243421 c 128,-1,10
 381 891.4375 381 891.4375 381 797.21875 c 128,-1,11
 381 703 381 703 382 641 c 128,-1,12
 383 579 383 579 388.5 518 c 0,13,14
 401.377171216 375.180464697 401.377171216 375.180464697 439 302.5 c 1,15,16
 511.720909909 223.111833982 511.720909909 223.111833982 578 209 c 1,17,18
 655.375 209 655.375 209 698.6875 291.5 c 128,-1,19
 742 374 742 374 742 508 c 1,20,-1
 590 508 l 1,21,-1
 614 768 l 1,22,-1
 1031 768 l 1,23,-1
 1031 12 l 1,24,-1
 916 0 l 1,25,26
 915 4 915 4 911.5 19 c 0,27,28
 902.225 58.75 902.225 58.75 892.983467742 94.2943548387 c 128,-1,29
 883.741935484 129.838709677 883.741935484 129.838709677 846 285 c 1,30,31
 826.739717465 40.1192649081 826.739717465 40.1192649081 627 -18.5 c 0,32,33
 581 -32 581 -32 510.5 -32 c 128,-1,34
 440 -32 440 -32 375.5 -1.5 c 128,-1,35
 311 29 311 29 262.5 83.5 c 0,36,37
 81 287.453608247 81 287.453608247 81 774 c 0,38,39
 81 1082 81 1082 192 1304 c 0,40,41
 324 1568 324 1568 592.5 1568 c 0,42,43
 697 1568 697 1568 781 1523.5 c 128,-1,44
 865 1479 865 1479 919 1405 c 0,45,46
 1025 1259.74074074 1025 1259.74074074 1025 1034 c 1,47,-1
 739 1015 l 1,0,1
EndSplineSet
EndChar

StartChar: H
Encoding: 72 72 7
Width: 1171
Flags: HW
LayerCount: 2
Fore
SplineSet
730 639 m 1,0,-1
 442 639 l 1,1,-1
 442 12 l 1,2,-1
 142 -12 l 1,3,-1
 142 1512 l 1,4,-1
 442 1536 l 1,5,-1
 442 913 l 1,6,-1
 730 913 l 1,7,-1
 730 1512 l 1,8,-1
 1030 1536 l 1,9,-1
 1030 12 l 1,10,-1
 730 -12 l 1,11,-1
 730 639 l 1,0,-1
EndSplineSet
EndChar

StartChar: I
Encoding: 73 73 8
Width: 583
Flags: HW
LayerCount: 2
Fore
SplineSet
142 1512 m 1,0,-1
 442 1536 l 1,1,-1
 442 12 l 1,2,-1
 142 -12 l 1,3,-1
 142 1512 l 1,0,-1
EndSplineSet
EndChar

StartChar: J
Encoding: 74 74 9
Width: 660
Flags: HW
LayerCount: 2
Fore
SplineSet
34 205 m 1,0,1
 76 191 76 191 116 191 c 0,2,3
 187.918032787 191 187.918032787 191 211.5 259.5 c 0,4,5
 226 301.619047619 226 301.619047619 226 409 c 2,6,-1
 226 1512 l 1,7,-1
 526 1536 l 1,8,-1
 526 384 l 2,9,10
 526 83.652173913 526 83.652173913 369.5 2 c 0,11,12
 312 -28 312 -28 228.5 -28 c 128,-1,13
 145 -28 145 -28 34 2 c 1,14,-1
 34 205 l 1,0,1
EndSplineSet
EndChar

StartChar: K
Encoding: 75 75 10
Width: 1150
Flags: HW
LayerCount: 2
Fore
SplineSet
590 666 m 1,0,-1
 442 401 l 1,1,-1
 442 0 l 1,2,-1
 142 0 l 1,3,-1
 142 1512 l 1,4,-1
 442 1536 l 1,5,-1
 442 864 l 1,6,-1
 806 1536 l 1,7,-1
 1126 1536 l 1,8,-1
 797 902 l 1,9,-1
 1131 43 l 1,10,-1
 826 -27 l 1,11,-1
 590 666 l 1,0,-1
EndSplineSet
EndChar

StartChar: L
Encoding: 76 76 11
Width: 971
Flags: HW
LayerCount: 2
Fore
SplineSet
441 1536 m 1,0,-1
 441 240 l 1,1,-1
 961 240 l 1,2,-1
 913 0 l 1,3,-1
 142 0 l 1,4,-1
 142 1512 l 1,5,-1
 441 1536 l 1,0,-1
EndSplineSet
EndChar

StartChar: M
Encoding: 77 77 12
Width: 1621
Flags: HW
LayerCount: 2
Fore
SplineSet
390 1144 m 1,0,-1
 390 12 l 1,1,-1
 142 0 l 1,2,-1
 142 1522 l 1,3,-1
 581 1534 l 1,4,-1
 835 584 l 1,5,-1
 1079 1500 l 1,6,-1
 1480 1524 l 1,7,-1
 1480 12 l 1,8,-1
 1170 -12 l 1,9,-1
 1170 1140 l 1,10,-1
 883 0 l 1,11,-1
 698 0 l 1,12,-1
 390 1144 l 1,0,-1
EndSplineSet
EndChar

StartChar: N
Encoding: 78 78 13
Width: 1245
Flags: HW
LayerCount: 2
Fore
SplineSet
409 948 m 1,0,-1
 409 12 l 1,1,-1
 141 0 l 1,2,-1
 141 1524 l 1,3,-1
 454 1536 l 1,4,-1
 850 622 l 1,5,-1
 850 1512 l 1,6,-1
 1104 1536 l 1,7,-1
 1104 12 l 1,8,-1
 858 -12 l 1,9,-1
 409 948 l 1,0,-1
EndSplineSet
EndChar

StartChar: O
Encoding: 79 79 14
Width: 1125
Flags: HW
LayerCount: 2
Fore
SplineSet
739 820 m 0,0,1
 739 1322 739 1322 562 1322 c 128,-1,2
 385 1322 385 1322 385 820 c 0,3,4
 385 504.055555556 385 504.055555556 408 405.027777778 c 128,-1,5
 431 306 431 306 466 264.5 c 128,-1,6
 501 223 501 223 561 223 c 128,-1,7
 621 223 621 223 656.5 264.5 c 128,-1,8
 692 306 692 306 715.5 404.445945946 c 128,-1,9
 739 502.891891892 739 502.891891892 739 820 c 0,0,1
86 779.8 m 0,10,11
 86 1561 86 1561 561 1561 c 0,12,13
 803.12755102 1561 803.12755102 1561 921.06377551 1363.43162393 c 128,-1,14
 1039 1165.86324786 1039 1165.86324786 1039 820 c 0,15,16
 1039 575.756097561 1039 575.756097561 1010.5 444.37804878 c 128,-1,17
 982 313 982 313 947.5 232.5 c 128,-1,18
 913 152 913 152 860 93 c 128,-1,19
 807 34 807 34 733 1 c 128,-1,20
 659 -32 659 -32 561 -32 c 128,-1,21
 463 -32 463 -32 389.5 1 c 128,-1,22
 316 34 316 34 263 93 c 0,23,24
 165.617604806 201.406817291 165.617604806 201.406817291 125.808802403 389.503408646 c 128,-1,25
 86 577.6 86 577.6 86 779.8 c 0,10,11
EndSplineSet
EndChar

StartChar: P
Encoding: 80 80 15
Width: 1089
Flags: HW
LayerCount: 2
Fore
SplineSet
494 847 m 2,0,1
 677.111111111 847 677.111111111 847 729.5 962 c 0,2,3
 750 1007 750 1007 750 1076.5 c 0,4,5
 750 1207.80882353 750 1207.80882353 686.20212766 1251.90441176 c 128,-1,6
 622.404255319 1296 622.404255319 1296 486 1296 c 2,7,-1
 443 1296 l 1,8,-1
 443 847 l 1,9,-1
 494 847 l 2,0,1
141 1536 m 1,10,-1
 333 1536 l 2,11,12
 563.173913043 1536 563.173913043 1536 649.586956522 1523.5 c 0,13,14
 839.493963783 1496.02917505 839.493963783 1496.02917505 932.5 1406.5 c 0,15,16
 1049 1294.35514019 1049 1294.35514019 1049 1075 c 0,17,18
 1049 782.983193277 1049 782.983193277 847.5 678 c 0,19,20
 705.467741935 604 705.467741935 604 441 604 c 1,21,-1
 441 12 l 1,22,-1
 141 -12 l 1,23,-1
 141 1536 l 1,10,-1
EndSplineSet
EndChar

StartChar: Q
Encoding: 81 81 16
Width: 1121
Flags: HW
LayerCount: 2
Fore
SplineSet
559 223 m 128,-1,1
 624 223 624 223 660 268 c 128,-1,2
 696 313 696 313 716.5 409.470588235 c 128,-1,3
 737 505.941176471 737 505.941176471 737 814.408088235 c 128,-1,4
 737 1122.875 737 1122.875 688.264705882 1226.4375 c 128,-1,5
 639.529411765 1330 639.529411765 1330 559 1330 c 0,6,7
 391.587155963 1330 391.587155963 1330 384 916.5 c 0,8,9
 383 862 383 862 383 776.5 c 128,-1,10
 383 691 383 691 386.5 582 c 128,-1,11
 390 473 390 473 406.5 393 c 128,-1,12
 423 313 423 313 458.5 268 c 128,-1,0
 494 223 494 223 559 223 c 128,-1,1
649 -24 m 1,13,14
 649 -30.2880434783 649 -30.2880434783 553.202445652 -30.2880434783 c 128,-1,15
 457.404891304 -30.2880434783 457.404891304 -30.2880434783 385.702445652 3.85597826087 c 128,-1,16
 314 38 314 38 261 99 c 128,-1,17
 208 160 208 160 174 242.5 c 128,-1,18
 140 325 140 325 120 419.5 c 128,-1,19
 100 514 100 514 92 616.5 c 128,-1,20
 84 719 84 719 84 820 c 128,-1,21
 84 921 84 921 96 1016 c 128,-1,22
 108 1111 108 1111 133 1194 c 0,23,24
 185.115384615 1367.02307692 185.115384615 1367.02307692 291.694055944 1467.51153846 c 128,-1,25
 398.272727273 1568 398.272727273 1568 559 1568 c 0,26,27
 797.52173913 1568 797.52173913 1568 923 1346 c 0,28,29
 1037 1144.30769231 1037 1144.30769231 1037 820 c 0,30,31
 1037 283.379310345 1037 283.379310345 841 84 c 1,32,33
 860.893371758 -27.9002161383 860.893371758 -27.9002161383 982 -52.5 c 0,34,35
 1014 -59 1014 -59 1042 -63 c 1,36,-1
 1042 -293 l 1,37,-1
 1003 -295 l 1,38,39
 726.428571429 -295 726.428571429 -295 649 -24 c 1,13,14
EndSplineSet
EndChar

StartChar: R
Encoding: 82 82 17
Width: 1156
Flags: HW
LayerCount: 2
Fore
SplineSet
770 1105 m 0,0,1
 770 1296 770 1296 581 1296 c 2,2,-1
 441 1296 l 1,3,-1
 441 895 l 1,4,-1
 543 895 l 2,5,6
 649 895 649 895 691 925 c 128,-1,7
 733 955 733 955 751.5 996 c 128,-1,8
 770 1037 770 1037 770 1105 c 0,0,1
850 719 m 1,9,10
 850 709.987179487 850 709.987179487 1127 53 c 1,11,-1
 832 -27 l 1,12,-1
 558 673 l 1,13,-1
 441 673 l 1,14,-1
 441 12 l 1,15,-1
 142 -12 l 1,16,-1
 142 1524 l 1,17,-1
 506 1536 l 1,18,19
 912 1536 912 1536 1029.5 1301 c 0,20,21
 1070 1220 1070 1220 1070 1108 c 0,22,23
 1070 844.714285714 1070 844.714285714 850 719 c 1,9,10
EndSplineSet
EndChar

StartChar: S
Encoding: 83 83 18
Width: 1091
Flags: HW
LayerCount: 2
Fore
SplineSet
739 1141 m 1,0,1
 721 1179 721 1179 705.5 1213 c 128,-1,2
 690 1247 690 1247 669.5 1273 c 0,3,4
 625.346153846 1329 625.346153846 1329 546 1329 c 0,5,6
 444.517241379 1329 444.517241379 1329 415.5 1230 c 0,7,8
 407 1201 407 1201 407 1172 c 0,9,10
 407 1119.51851852 407 1119.51851852 435.214095745 1079.80979117 c 128,-1,11
 463.428191489 1040.10106383 463.428191489 1040.10106383 501 1018 c 2,12,-1
 749 873 l 1,13,14
 1025.668187 715.802166477 1025.668187 715.802166477 1038 463 c 1,15,16
 1038 242.863636364 1038 242.863636364 898.453846154 105.431818182 c 128,-1,17
 758.907692308 -32 758.907692308 -32 548 -32 c 0,18,19
 270.907801418 -32 270.907801418 -32 121.5 199.5 c 0,20,21
 76 270 76 270 48 352 c 1,22,-1
 302 471 l 1,23,24
 324 435 324 435 350 391.5 c 128,-1,25
 376 348 376 348 408 310.5 c 1,26,27
 510.214180039 232.957892341 510.214180039 232.957892341 576 223 c 1,28,29
 630.488372093 223 630.488372093 223 671.244186047 270.364864865 c 128,-1,30
 712 317.72972973 712 317.72972973 712 377.364864865 c 0,31,32
 712 490.581395349 712 490.581395349 610 557 c 1,33,-1
 341 716 l 1,34,35
 85 862.285714286 85 862.285714286 85 1126.5 c 0,36,37
 85 1210 85 1210 121.5 1294.5 c 128,-1,38
 158 1379 158 1379 221.5 1440 c 0,39,40
 354.745901639 1568 354.745901639 1568 562 1568 c 0,41,42
 718 1568 718 1568 829 1488.5 c 128,-1,43
 940 1409 940 1409 993 1256 c 1,44,-1
 739 1141 l 1,0,1
EndSplineSet
EndChar

StartChar: T
Encoding: 84 84 19
Width: 977
Flags: HW
LayerCount: 2
Fore
SplineSet
28 1296 m 1,0,-1
 52 1536 l 1,1,-1
 952 1536 l 1,2,-1
 928 1296 l 1,3,-1
 641 1296 l 1,4,-1
 641 12 l 1,5,-1
 341 -12 l 1,6,-1
 341 1296 l 1,7,-1
 28 1296 l 1,0,-1
EndSplineSet
EndChar

StartChar: U
Encoding: 85 85 20
Width: 1163
Flags: HW
LayerCount: 2
Fore
SplineSet
132 1524 m 1,0,-1
 432 1536 l 1,1,-1
 432 482 l 2,2,3
 432 357.454545455 432 357.454545455 451.5 313.727272727 c 128,-1,4
 471 270 471 270 504.5 246.5 c 128,-1,5
 538 223 538 223 598 223 c 0,6,7
 702.052631579 223 702.052631579 223 736 309 c 0,8,9
 756 359.666666667 756 359.666666667 756 485 c 2,10,-1
 756 1512 l 1,11,-1
 1031 1536 l 1,12,-1
 1031 541 l 2,13,14
 1031 398.32 1031 398.32 1016.5 324.66 c 0,15,16
 984.459807074 161.895819936 984.459807074 161.895819936 893.5 77 c 0,17,18
 776.714285714 -32 776.714285714 -32 562.928571429 -32 c 128,-1,19
 349.142857143 -32 349.142857143 -32 240.571428571 120 c 128,-1,20
 132 272 132 272 132 506 c 2,21,-1
 132 1524 l 1,0,-1
EndSplineSet
EndChar

StartChar: V
Encoding: 86 86 21
Width: 1092
Flags: HW
LayerCount: 2
Fore
SplineSet
17 1524 m 1,0,-1
 372 1536 l 1,1,-1
 576 476 l 1,2,-1
 789 1524 l 1,3,-1
 1078 1536 l 1,4,-1
 708 0 l 1,5,-1
 379 0 l 1,6,-1
 17 1524 l 1,0,-1
EndSplineSet
EndChar

StartChar: W
Encoding: 87 87 22
Width: 1586
Flags: HW
LayerCount: 2
Fore
SplineSet
614 0 m 1,0,-1
 339 0 l 1,1,-1
 27 1524 l 1,2,-1
 355 1536 l 1,3,-1
 517 616 l 1,4,-1
 690 1524 l 1,5,-1
 935 1536 l 1,6,-1
 1097 606 l 1,7,-1
 1293 1524 l 1,8,-1
 1568 1536 l 1,9,-1
 1240 0 l 1,10,-1
 943 0 l 1,11,-1
 780 938 l 1,12,-1
 614 0 l 1,0,-1
EndSplineSet
EndChar

StartChar: X
Encoding: 88 88 23
Width: 1064
Flags: HW
LayerCount: 2
Fore
SplineSet
502 481 m 1,0,-1
 285 0 l 1,1,-1
 1 0 l 1,2,-1
 382 780 l 1,3,-1
 16 1536 l 1,4,-1
 375 1536 l 1,5,-1
 553 1137 l 1,6,-1
 737 1536 l 1,7,-1
 1023 1536 l 1,8,-1
 677 838 l 1,9,-1
 1076 0 l 1,10,-1
 719 0 l 1,11,-1
 502 481 l 1,0,-1
EndSplineSet
EndChar

StartChar: Y
Encoding: 89 89 24
Width: 1027
Flags: HW
LayerCount: 2
Fore
SplineSet
367 608 m 1,0,-1
 -3 1536 l 1,1,-1
 327 1536 l 1,2,-1
 538 896 l 1,3,-1
 766 1536 l 1,4,-1
 1025 1536 l 1,5,-1
 670 643 l 1,6,-1
 670 12 l 1,7,-1
 367 -12 l 1,8,-1
 367 608 l 1,0,-1
EndSplineSet
EndChar

StartChar: Z
Encoding: 90 90 25
Width: 1008
Flags: HW
LayerCount: 2
Fore
SplineSet
581 1296 m 1,0,-1
 98 1296 l 1,1,-1
 122 1536 l 1,2,-1
 935 1536 l 1,3,-1
 935 1337 l 1,4,-1
 421 240 l 1,5,-1
 949 240 l 1,6,-1
 901 0 l 1,7,-1
 51 0 l 1,8,-1
 51 190 l 1,9,-1
 581 1296 l 1,0,-1
EndSplineSet
EndChar

StartChar: one
Encoding: 49 49 26
Width: 820
Flags: HW
LayerCount: 2
Fore
SplineSet
293 1132 m 1,0,1
 145 1116 145 1116 109 1116 c 2,2,-1
 83 1116 l 1,3,-1
 83 1331 l 1,4,-1
 432 1536 l 1,5,-1
 581 1536 l 1,6,-1
 581 251 l 1,7,-1
 780 251 l 1,8,-1
 768 0 l 1,9,-1
 96 0 l 1,10,-1
 96 251 l 1,11,-1
 293 251 l 1,12,-1
 293 1132 l 1,0,1
EndSplineSet
EndChar

StartChar: two
Encoding: 50 50 27
Width: 1033
Flags: HW
LayerCount: 2
Fore
SplineSet
95 1148 m 1,0,1
 126.967905405 1309.97072072 126.967905405 1309.97072072 246.464721933 1418.98536036 c 128,-1,2
 365.961538462 1528 365.961538462 1528 542.775506073 1528 c 128,-1,3
 719.589473684 1528 719.589473684 1528 836.294736842 1429.00892857 c 128,-1,4
 953 1330.01785714 953 1330.01785714 953 1152 c 0,5,6
 953 929 953 929 768 670 c 0,7,8
 660.91322314 520.078512397 660.91322314 520.078512397 559.95661157 416.039256198 c 128,-1,9
 459 312 459 312 397 252 c 1,10,-1
 927 252 l 1,11,12
 927 204.666666667 927 204.666666667 915 128.666666667 c 128,-1,13
 903 52.6666666667 903 52.6666666667 903 0 c 1,14,-1
 64 0 l 1,15,-1
 64 223 l 1,16,17
 121 297 121 297 187 373 c 128,-1,18
 253 449 253 449 318 526 c 0,19,20
 479.70433145 717.557438795 479.70433145 717.557438795 551 840 c 0,21,22
 653 1015.17391304 653 1015.17391304 653 1156 c 0,23,24
 653 1250.5106383 653 1250.5106383 581.5 1285.5 c 0,25,26
 558 1297 558 1297 528.5 1297 c 0,27,28
 432.056718255 1297 432.056718255 1297 376.294310722 1182.76805252 c 0,29,30
 352 1133 352 1133 341 1070 c 1,31,-1
 95 1148 l 1,0,1
EndSplineSet
EndChar

StartChar: three
Encoding: 51 51 28
Width: 1039
Flags: HW
LayerCount: 2
Fore
SplineSet
923 1155 m 0,0,1
 923 910.365853659 923 910.365853659 687 801 c 1,2,3
 944 704.098360656 944 704.098360656 944 428 c 0,4,5
 944 216.083333333 944 216.083333333 818.217391304 95.5416666667 c 128,-1,6
 692.434782609 -25 692.434782609 -25 514.467391304 -25 c 128,-1,7
 336.5 -25 336.5 -25 206.326388889 61.7824074074 c 128,-1,8
 76.1527777778 148.564814815 76.1527777778 148.564814815 36 313 c 1,9,-1
 254 408 l 1,10,11
 287.897345133 325.677876106 287.897345133 325.677876106 321.948672566 294.838938053 c 0,12,13
 386.916666667 236 386.916666667 236 473.044871795 236 c 128,-1,14
 559.173076923 236 559.173076923 236 607.086538462 291.366666667 c 128,-1,15
 655 346.733333333 655 346.733333333 655 424.866666667 c 0,16,17
 655 569.272727273 655 569.272727273 559 626 c 0,18,19
 486.230769231 669 486.230769231 669 330 669 c 1,20,-1
 330 899 l 1,21,22
 472.604166667 899 472.604166667 899 543.5 940 c 0,23,24
 633 991.759036145 633 991.759036145 633 1109.87951807 c 128,-1,25
 633 1228 633 1228 552 1270 c 0,26,27
 525 1284 525 1284 482 1284 c 0,28,29
 408 1284 408 1284 344 1204 c 0,30,31
 316 1169 316 1169 297 1124 c 1,32,-1
 91 1241 l 1,33,34
 207.959492435 1469.07101025 207.959492435 1469.07101025 387 1517.5 c 0,35,36
 448 1534 448 1534 523 1534 c 0,37,38
 683.715789474 1534 683.715789474 1534 803.357894737 1433.4159292 c 128,-1,39
 923 1332.83185841 923 1332.83185841 923 1155 c 0,0,1
EndSplineSet
EndChar

StartChar: four
Encoding: 52 52 29
Width: 1087
Flags: HW
LayerCount: 2
Fore
SplineSet
568 614 m 1,0,-1
 568 1153 l 1,1,-1
 283 614 l 1,2,-1
 568 614 l 1,0,-1
568 384 m 1,3,-1
 45 384 l 1,4,-1
 45 614 l 1,5,-1
 555 1536 l 1,6,-1
 856 1536 l 1,7,-1
 856 614 l 1,8,-1
 1048 614 l 1,9,-1
 1024 384 l 1,10,-1
 856 384 l 1,11,-1
 856 12 l 1,12,-1
 568 -12 l 1,13,-1
 568 384 l 1,3,-1
EndSplineSet
EndChar

StartChar: five
Encoding: 53 53 30
Width: 1053
Flags: HW
LayerCount: 2
Fore
SplineSet
384 938 m 1,0,1
 484.636363636 979 484.636363636 979 583 979 c 2,2,-1
 585 979 l 2,3,4
 755.166666667 979 755.166666667 979 869.083333333 837.141509434 c 0,5,6
 983 695.283018868 983 695.283018868 983 482.629314312 c 0,7,8
 983 269.975609756 983 269.975609756 852.489208633 122.487804878 c 128,-1,9
 721.978417266 -25 721.978417266 -25 522 -25 c 0,10,11
 363.378947368 -25 363.378947368 -25 239.119793729 74.1984839978 c 0,12,13
 114.86064009 173.396967996 114.86064009 173.396967996 78 348 c 1,14,-1
 309 434 l 1,15,16
 338.582159624 286.089201878 338.582159624 286.089201878 443 247.5 c 0,17,18
 466 239 466 239 495 239 c 0,19,20
 685 239 685 239 685 493 c 0,21,22
 685 657.676470588 685 657.676470588 584 726 c 0,23,24
 550 749 550 749 503 749 c 0,25,26
 402.977777778 749 402.977777778 749 315 642 c 1,27,-1
 101 731 l 1,28,-1
 167 1536 l 1,29,-1
 922 1536 l 1,30,-1
 898 1296 l 1,31,-1
 417 1296 l 1,32,-1
 384 938 l 1,0,1
EndSplineSet
EndChar

StartChar: six
Encoding: 54 54 31
Width: 1039
Flags: HW
LayerCount: 2
Fore
SplineSet
677 448.647058824 m 0,0,1
 677 692 677 692 521 692 c 0,2,3
 458.363636364 692 458.363636364 692 388 649 c 1,4,5
 386 633 386 633 386 623 c 2,6,-1
 386 536 l 2,7,8
 386 230 386 230 525 230 c 0,9,10
 607.486486486 230 607.486486486 230 647 316 c 0,11,12
 677 381.294117647 677 381.294117647 677 448.647058824 c 0,0,1
538 -27 m 0,13,14
 93 -27 93 -27 93 767.5 c 0,15,16
 93 1059.93589744 93 1059.93589744 205 1282.5 c 0,17,18
 244 1360 244 1360 298 1418.5 c 0,19,20
 415.692307692 1546 415.692307692 1546 581 1546 c 0,21,22
 713.063157895 1546 713.063157895 1546 807.35668533 1447.56170213 c 128,-1,23
 901.650212766 1349.12340426 901.650212766 1349.12340426 925 1174 c 1,24,-1
 701 1122 l 1,25,26
 681.804979253 1211.57676349 681.804979253 1211.57676349 666.402489627 1240.78838174 c 0,27,28
 632.018181818 1306 632.018181818 1306 562 1306 c 0,29,30
 386 1306 386 1306 386 856 c 1,31,32
 490.742857143 934 490.742857143 934 633.247496947 934 c 128,-1,33
 775.752136752 934 775.752136752 934 870.876068376 808.949438202 c 128,-1,34
 966 683.898876404 966 683.898876404 966 490.09988068 c 128,-1,35
 966 296.300884956 966 296.300884956 844.223333333 134.650442478 c 128,-1,36
 722.446666667 -27 722.446666667 -27 538 -27 c 0,13,14
EndSplineSet
EndChar

StartChar: seven
Encoding: 55 55 32
Width: 923
Flags: HW
LayerCount: 2
Fore
SplineSet
161 0 m 1,0,1
 193.1297164 373.199013564 193.1297164 373.199013564 429 949 c 0,2,3
 497 1115 497 1115 569 1288 c 1,4,-1
 38 1288 l 1,5,-1
 62 1536 l 1,6,-1
 890 1536 l 1,7,-1
 890 1323 l 1,8,9
 619.773285351 788.758679086 619.773285351 788.758679086 541 304 c 0,10,11
 515 144 515 144 515 0 c 1,12,-1
 161 0 l 1,0,1
EndSplineSet
EndChar

StartChar: eight
Encoding: 56 56 33
Width: 1107
Flags: HW
LayerCount: 2
Fore
SplineSet
418.5 1218.5 m 128,-1,1
 406 1194 406 1194 406 1157.5 c 0,2,3
 406 1037.46153846 406 1037.46153846 566 939 c 1,4,5
 654.599632691 992.930211203 654.599632691 992.930211203 705 1069.5 c 0,6,7
 731 1109 731 1109 731 1147.5 c 0,8,9
 731 1217.88888889 731 1217.88888889 683.5 1258 c 128,-1,10
 636.131578947 1298 636.131578947 1298 567.351503759 1298 c 128,-1,11
 498.571428571 1298 498.571428571 1298 464.785714286 1270.5 c 128,-1,0
 431 1243 431 1243 418.5 1218.5 c 128,-1,1
441 594 m 0,12,13
 369 500.666666667 369 500.666666667 369 402.5 c 0,14,15
 369 247.432835821 369 247.432835821 479.5 209.5 c 0,16,17
 513 198 513 198 550.5 198 c 0,18,19
 631.975609756 198 631.975609756 198 687.987804878 240.527777778 c 128,-1,20
 744 283.055555556 744 283.055555556 744 373 c 0,21,22
 744 494.428571429 744 494.428571429 629 593 c 0,23,24
 578 636 578 636 514 667 c 1,25,26
 473 635 473 635 441 594 c 0,12,13
337 778 m 1,27,28
 126 902.117647059 126 902.117647059 126 1122 c 0,29,30
 126 1310.63865546 126 1310.63865546 252.162162162 1428.31932773 c 128,-1,31
 378.324324324 1546 378.324324324 1546 556.449396205 1546 c 128,-1,32
 734.574468085 1546 734.574468085 1546 855.787234043 1446.05263158 c 128,-1,33
 977 1346.10526316 977 1346.10526316 977 1183.49013158 c 128,-1,34
 977 1020.875 977 1020.875 842 896 c 0,35,36
 802 859 802 859 757 832 c 1,37,38
 886.388489209 752.014388489 886.388489209 752.014388489 937.194244604 688.507194245 c 0,39,40
 1032 570 1032 570 1032 448 c 0,41,42
 1032 222.279411765 1032 222.279411765 888.347457627 97.6397058824 c 128,-1,43
 744.694915254 -27 744.694915254 -27 551.766649546 -27 c 128,-1,44
 358.838383838 -27 358.838383838 -27 219.919191919 77.9847328244 c 128,-1,45
 81 182.969465649 81 182.969465649 81 371 c 0,46,47
 81 633.709090909 81 633.709090909 337 778 c 1,27,28
EndSplineSet
EndChar

StartChar: nine
Encoding: 57 57 34
Width: 1039
Flags: HW
LayerCount: 2
Fore
SplineSet
652 886 m 2,0,-1
 653 911 l 1,1,-1
 653 983 l 2,2,3
 653 1289 653 1289 514 1289 c 0,4,5
 431.513513514 1289 431.513513514 1289 392 1203 c 0,6,7
 362 1137.70588235 362 1137.70588235 362 1070.35294118 c 0,8,9
 362 827 362 827 509.490591398 827 c 0,10,11
 582.916666667 827 582.916666667 827 651 870 c 1,12,13
 651 878 651 878 652 886 c 2,0,-1
501 1546 m 0,14,15
 946 1546 946 1546 946 751.5 c 0,16,17
 946 459.064102564 946 459.064102564 834 236.5 c 0,18,19
 795 159 795 159 741 100.5 c 0,20,21
 623.307692308 -27 623.307692308 -27 458 -27 c 0,22,23
 325.936842105 -27 325.936842105 -27 231.64331467 71.4382978723 c 128,-1,24
 137.349787234 169.876595745 137.349787234 169.876595745 114 345 c 1,25,-1
 338 397 l 1,26,27
 356.105675147 309.489236791 356.105675147 309.489236791 372.052837573 279.244618395 c 0,28,29
 406.981818182 213 406.981818182 213 477 213 c 0,30,31
 611.32 213 611.32 213 643 477 c 0,32,33
 649.652173913 532.434782609 649.652173913 532.434782609 653 663 c 1,34,35
 548.257142857 585 548.257142857 585 405.752503053 585 c 128,-1,36
 263.247863248 585 263.247863248 585 168.123931624 710.050561798 c 128,-1,37
 73 835.101123596 73 835.101123596 73 1028.90011932 c 128,-1,38
 73 1222.69911504 73 1222.69911504 194.776666667 1384.34955752 c 128,-1,39
 316.553333333 1546 316.553333333 1546 501 1546 c 0,14,15
EndSplineSet
EndChar

StartChar: zero
Encoding: 48 48 35
Width: 1138
Flags: HW
LayerCount: 2
Fore
SplineSet
568 228 m 128,-1,1
 596 228 596 228 620.5 236 c 128,-1,2
 645 244 645 244 666 266 c 0,3,4
 754 358.19047619 754 358.19047619 754 727.347826087 c 0,5,6
 754 900 754 900 749.5 995.5 c 0,7,8
 734.77486911 1308 734.77486911 1308 568 1308 c 0,9,10
 447.64028777 1308 447.64028777 1308 410.5 1160.5 c 0,11,12
 386 1063.2 386 1063.2 386 864.6 c 128,-1,13
 386 666 386 666 391.5 578 c 128,-1,14
 397 490 397 490 408 428 c 128,-1,15
 419 366 419 366 435 327 c 128,-1,16
 451 288 451 288 471 266 c 128,-1,17
 491 244 491 244 515.5 236 c 128,-1,0
 540 228 540 228 568 228 c 128,-1,1
568 -27 m 0,18,19
 97 -27 97 -27 97 786 c 0,20,21
 97 1379.42857143 97 1379.42857143 394.5 1513 c 0,22,23
 468 1546 468 1546 567.5 1546 c 128,-1,24
 667 1546 667 1546 741 1513 c 128,-1,25
 815 1480 815 1480 867.5 1423 c 0,26,27
 964.237536657 1317.97067449 964.237536657 1317.97067449 1002.87233976 1150.55319439 c 128,-1,28
 1041.50714286 983.135714286 1041.50714286 983.135714286 1041.50714286 842.296666667 c 128,-1,29
 1041.50714286 701.457619048 1041.50714286 701.457619048 1033.75357143 602.728809524 c 128,-1,30
 1026 504 1026 504 1007 413.5 c 0,31,32
 964.955347871 213.234683281 964.955347871 213.234683281 859.852673936 93.1173416407 c 128,-1,33
 754.75 -27 754.75 -27 568 -27 c 0,18,19
EndSplineSet
EndChar

StartChar: dollar
Encoding: 36 36 36
Width: 1040
Flags: HW
LayerCount: 2
Fore
SplineSet
659.5 352.5 m 128,-1,1
 682 390 682 390 682 434.5 c 0,2,3
 682 512.176470588 682 512.176470588 602 571 c 1,4,-1
 602 296 l 1,5,0
 637 315 637 315 659.5 352.5 c 128,-1,1
458 1255 m 1,6,7
 377 1220.28571429 377 1220.28571429 377 1107 c 0,8,9
 377 1036.25806452 377 1036.25806452 458 984 c 1,10,-1
 458 1255 l 1,6,7
458 29 m 1,11,12
 234.570169918 54.7803650094 234.570169918 54.7803650094 110 269.5 c 0,13,14
 72 335 72 335 48 410 c 1,15,-1
 272 529 l 1,16,17
 289 501 289 501 308 468.5 c 0,18,19
 382.643762508 340.81987992 382.643762508 340.81987992 458 302 c 1,20,-1
 458 657 l 1,21,-1
 311 744 l 1,22,23
 85 879.6 85 879.6 85 1076 c 0,24,25
 85 1244.21212121 85 1244.21212121 188.553633218 1360.31770997 c 128,-1,26
 292.107266436 1476.42329873 292.107266436 1476.42329873 458 1501 c 1,27,-1
 458 1632 l 1,28,-1
 602 1632 l 1,29,-1
 602 1501 l 1,30,31
 724 1484 724 1484 811.5 1406 c 128,-1,32
 899 1328 899 1328 943 1194 c 1,33,-1
 709 1079 l 1,34,35
 697 1105 697 1105 685.5 1130 c 128,-1,36
 674 1155 674 1155 654.809073724 1189.38374291 c 128,-1,37
 635.618147448 1223.76748582 635.618147448 1223.76748582 602 1245 c 1,38,-1
 602 899 l 1,39,-1
 719 831 l 2,40,41
 976.270430906 680.402674591 976.270430906 680.402674591 988 481 c 1,42,43
 988 301.32038835 988 301.32038835 880.129327781 179.834971093 c 128,-1,44
 772.258655562 58.349553837 772.258655562 58.349553837 602 32 c 1,45,-1
 602 -96 l 1,46,-1
 458 -96 l 1,47,-1
 458 29 l 1,11,12
EndSplineSet
EndChar

StartChar: ampersand
Encoding: 38 38 37
Width: 1275
Flags: HW
LayerCount: 2
Fore
SplineSet
555 971 m 1,0,1
 555 972 555 972 564.5 984 c 128,-1,2
 574 996 574 996 588 1016 c 0,3,4
 683 1151.71428571 683 1151.71428571 683 1218.5 c 0,5,6
 683 1282.47058824 683 1282.47058824 647 1314.23529412 c 128,-1,7
 611 1346 611 1346 578 1346 c 0,8,9
 523 1346 523 1346 488.5 1311.5 c 128,-1,10
 454 1277 454 1277 454 1242 c 128,-1,11
 454 1207 454 1207 459.5 1182.5 c 128,-1,12
 465 1158 465 1158 477 1128.5 c 128,-1,13
 489 1099 489 1099 508.5 1061.5 c 128,-1,14
 528 1024 528 1024 555 971 c 1,0,1
699 309 m 1,15,16
 601.5 434.666666667 601.5 434.666666667 443 646 c 1,17,18
 350.993162393 585.620512821 350.993162393 585.620512821 322.5 475 c 0,19,20
 314 442 314 442 314 409 c 0,21,22
 314 336 314 336 359.833333333 286 c 128,-1,23
 405.666666667 236 405.666666667 236 503.666666667 236 c 128,-1,24
 601.666666667 236 601.666666667 236 699 309 c 1,15,16
332 815 m 1,25,26
 193 1011.02564103 193 1011.02564103 193 1199.5 c 0,27,28
 193 1354.3627451 193 1354.3627451 300.401098901 1450.18137255 c 128,-1,29
 407.802197802 1546 407.802197802 1546 565.817765568 1546 c 128,-1,30
 723.833333333 1546 723.833333333 1546 825.916666667 1458.5 c 128,-1,31
 928 1371 928 1371 928 1208.79787234 c 128,-1,32
 928 1046.59574468 928 1046.59574468 755 892 c 0,33,34
 708 850 708 850 663 819 c 1,35,-1
 850 531 l 1,36,37
 919.380530973 687.10619469 919.380530973 687.10619469 948 825 c 1,38,-1
 1175 754 l 1,39,40
 1131.62068966 558.793103448 1131.62068966 558.793103448 1003 353 c 1,41,42
 1096.31818182 259.681818182 1096.31818182 259.681818182 1227 244 c 1,43,-1
 1227 -14 l 1,44,45
 1067.44186047 -14 1067.44186047 -14 985.5 29.5 c 0,46,47
 945 51 945 51 912.5 82 c 128,-1,48
 880 113 880 113 840 153 c 1,49,50
 638.888888889 -28 638.888888889 -28 409 -28 c 0,51,52
 254.635514019 -28 254.635514019 -28 146.817757009 86.2227722772 c 128,-1,53
 39 200.445544554 39 200.445544554 39 375 c 0,54,55
 39 619.666666667 39 619.666666667 332 815 c 1,25,26
EndSplineSet
EndChar

StartChar: a
Encoding: 97 97 38
Width: 968
Flags: HW
LayerCount: 2
Fore
SplineSet
563 568 m 1,0,1
 338 568 338 568 338 331 c 0,2,3
 338 179 338 179 452 179 c 0,4,5
 498.578947368 179 498.578947368 179 563 247 c 1,6,-1
 563 568 l 1,0,1
851 217 m 2,7,8
 851 129.111111111 851 129.111111111 882 12 c 1,9,-1
 602 -12 l 1,10,-1
 570 129 l 1,11,12
 514.576802508 27.934169279 514.576802508 27.934169279 392 -14 c 0,13,14
 354 -27 354 -27 306 -27 c 128,-1,15
 258 -27 258 -27 210 -0.5 c 128,-1,16
 162 26 162 26 127.5 73.5 c 0,17,18
 56 171.942028986 56 171.942028986 56 327 c 0,19,20
 56 605.690265487 56 605.690265487 342.5 699.5 c 0,21,22
 444.469225678 732.888153541 444.469225678 732.888153541 563 740 c 1,23,24
 563 849.375 563 849.375 554 883.6875 c 1,25,26
 521.270930355 942.559122291 521.270930355 942.559122291 480 956 c 1,27,28
 392.956521739 956 392.956521739 956 376 826 c 1,29,-1
 96 875 l 1,30,31
 116.181807456 1032.78504011 116.181807456 1032.78504011 236.5 1107 c 0,32,33
 333.772727273 1167 333.772727273 1167 455.886363636 1167 c 0,34,35
 666.4375 1167 666.4375 1167 758.71875 1068.56666667 c 128,-1,36
 851 970.133333333 851 970.133333333 851 813 c 2,37,-1
 851 217 l 2,7,8
EndSplineSet
EndChar

StartChar: b
Encoding: 98 98 39
Width: 1066
Flags: HW
LayerCount: 2
Fore
SplineSet
657 895 m 128,-1,1
 637 922 637 922 589.833333333 922 c 128,-1,2
 542.666666667 922 542.666666667 922 411 843 c 1,3,-1
 411 480 l 2,4,5
 411 240.56 411 240.56 500 192.5 c 0,6,7
 525 179 525 179 564.5 179 c 128,-1,8
 604 179 604 179 634 211 c 128,-1,9
 664 243 664 243 682.5 310.216666667 c 128,-1,10
 701 377.433333333 701 377.433333333 701 513.216666667 c 128,-1,11
 701 649 701 649 698.5 712 c 128,-1,12
 696 775 696 775 686.5 821.5 c 128,-1,0
 677 868 677 868 657 895 c 128,-1,1
411 1005 m 1,13,14
 559.5 1167 559.5 1167 719 1167 c 0,15,16
 766 1167 766 1167 817 1136 c 128,-1,17
 868 1105 868 1105 906 1035.5 c 0,18,19
 989 883.697368421 989 883.697368421 989 576 c 0,20,21
 989 -27 989 -27 658 -27 c 0,22,23
 524.0625 -27 524.0625 -27 455 58 c 0,24,25
 424 96 424 96 411 144 c 1,26,-1
 341 -12 l 1,27,-1
 123 12 l 1,28,-1
 123 1500 l 1,29,-1
 411 1536 l 1,30,-1
 411 1005 l 1,13,14
EndSplineSet
EndChar

StartChar: c
Encoding: 99 99 40
Width: 913
Flags: HW
LayerCount: 2
Fore
SplineSet
483 939 m 0,0,1
 357 939 357 939 357 577.5 c 128,-1,2
 357 216 357 216 492 216 c 0,3,4
 559.6 216 559.6 216 592 324 c 1,5,6
 605 372 605 372 607 432 c 1,7,-1
 847 405 l 1,8,9
 820.14592604 192.405247813 820.14592604 192.405247813 748.5 94 c 0,10,11
 660.403508772 -27 660.403508772 -27 480 -27 c 0,12,13
 219.939393939 -27 219.939393939 -27 114 277 c 0,14,15
 68 409 68 409 68 543 c 0,16,17
 68 810.333333333 68 810.333333333 168 977 c 0,18,19
 282 1167 282 1167 486 1167 c 0,20,21
 645.090909091 1167 645.090909091 1167 746.5 1052 c 128,-1,22
 847.969283276 936.931740614 847.969283276 936.931740614 854 754 c 1,23,-1
 581 742 l 1,24,25
 578 767 578 767 574 800.5 c 0,26,27
 557.462686567 939 557.462686567 939 483 939 c 0,0,1
EndSplineSet
EndChar

StartChar: d
Encoding: 100 100 41
Width: 1067
Flags: HW
LayerCount: 2
Fore
SplineSet
656 864 m 1,0,1
 565.878001619 946.460379893 565.878001619 946.460379893 522.346153846 956 c 1,2,3
 463 956 463 956 433 926.5 c 128,-1,4
 403 897 403 897 384.5 833.483333333 c 128,-1,5
 366 769.966666667 366 769.966666667 366 632.983333333 c 0,6,7
 366 377.433333333 366 377.433333333 388 297.5 c 0,8,9
 420.614678899 179 420.614678899 179 516 179 c 0,10,11
 656 179 656 179 656 480 c 2,12,-1
 656 864 l 1,0,1
409 -27 m 0,13,14
 78 -27 78 -27 78 576 c 0,15,16
 78 895.454545455 78 895.454545455 151.623239437 1031.22727273 c 128,-1,17
 225.246478873 1167 225.246478873 1167 395 1167 c 0,18,19
 518.043478261 1167 518.043478261 1167 656 1000 c 1,20,-1
 656 1500 l 1,21,-1
 944 1536 l 1,22,-1
 944 12 l 1,23,-1
 726 -12 l 1,24,-1
 656 144 l 1,25,26
 619.977832512 10.9950738916 619.977832512 10.9950738916 480.5 -20 c 0,27,28
 449 -27 449 -27 409 -27 c 0,13,14
EndSplineSet
EndChar

StartChar: e
Encoding: 101 101 42
Width: 965
Flags: HW
LayerCount: 2
Fore
SplineSet
632 702 m 1,0,1
 632 890.215686275 632 890.215686275 559.5 948.5 c 0,2,3
 534 969 534 969 502.5 969 c 0,4,5
 442.521126761 969 442.521126761 969 399.76056338 891.153846154 c 128,-1,6
 357 813.307692308 357 813.307692308 357 702 c 1,7,-1
 632 702 l 1,0,1
875 290 m 1,8,9
 784.428571429 -27 784.428571429 -27 479 -27 c 0,10,11
 387 -27 387 -27 307.5 17 c 128,-1,12
 228 61 228 61 175.5 140 c 0,13,14
 70 298.752380952 70 298.752380952 70 570.876190476 c 128,-1,15
 70 843 70 843 180.734177215 1005 c 128,-1,16
 291.46835443 1167 291.46835443 1167 496.601265823 1167 c 128,-1,17
 701.734177215 1167 701.734177215 1167 808.367088608 1005 c 128,-1,18
 915 843 915 843 915 570 c 1,19,20
 907 542 907 542 907 536 c 1,21,-1
 357 536 l 1,22,23
 357 314.055555556 357 314.055555556 431 219.5 c 0,24,25
 458 185 458 185 494.5 185 c 128,-1,26
 531 185 531 185 559 212 c 128,-1,27
 587 239 587 239 608 273 c 128,-1,28
 629 307 629 307 641.5 337 c 128,-1,29
 654 367 654 367 657 373 c 1,30,-1
 875 290 l 1,8,9
EndSplineSet
EndChar

StartChar: f
Encoding: 102 102 43
Width: 690
Flags: HW
LayerCount: 2
Fore
SplineSet
300 1514 m 128,-1,1
 358 1546 358 1546 473.75 1546 c 128,-1,2
 589.5 1546 589.5 1546 657 1516 c 1,3,-1
 657 1344 l 1,4,-1
 594 1344 l 2,5,6
 479.806451613 1344 479.806451613 1344 467.5 1235 c 0,7,8
 464 1204 464 1204 464 1173 c 2,9,-1
 464 1152 l 1,10,-1
 667 1152 l 1,11,-1
 655 936 l 1,12,-1
 464 936 l 1,13,-1
 464 12 l 1,14,-1
 176 -12 l 1,15,-1
 176 936 l 1,16,-1
 34 936 l 1,17,-1
 46 1152 l 1,18,-1
 176 1152 l 1,19,-1
 176 1174 l 2,20,21
 176 1244 176 1244 181.5 1310.5 c 128,-1,22
 187 1377 187 1377 214.5 1429.5 c 128,-1,0
 242 1482 242 1482 300 1514 c 128,-1,1
EndSplineSet
EndChar

StartChar: g
Encoding: 103 103 44
Width: 1109
Flags: HW
LayerCount: 2
Fore
SplineSet
395 826 m 0,0,1
 395 628 395 628 530 628 c 0,2,3
 589 628 589 628 623.5 677.5 c 128,-1,4
 658 727 658 727 658 796 c 0,5,6
 658 905.5 658 905.5 620.5 949.25 c 128,-1,7
 583 993 583 993 538 993 c 0,8,9
 463.666666667 993 463.666666667 993 429.333333333 941.5 c 128,-1,10
 395 890 395 890 395 826 c 0,0,1
397 80 m 1,11,12
 306 51.5625 306 51.5625 306 -36 c 0,13,14
 306 -145 306 -145 561 -145 c 0,15,16
 664 -145 664 -145 718.5 -111 c 128,-1,17
 773 -77 773 -77 773 -17 c 0,18,19
 773 80 773 80 565 80 c 2,20,-1
 397 80 l 1,11,12
246 103 m 1,21,22
 74 149.583333333 74 149.583333333 74 259.5 c 0,23,24
 74 307.866666667 74 307.866666667 108 360 c 0,25,26
 166.567681007 449.803777545 166.567681007 449.803777545 291 511 c 1,27,28
 150.24497992 594.911646586 150.24497992 594.911646586 115 742.5 c 0,29,30
 107 776 107 776 107 838.5 c 128,-1,31
 107 901 107 901 144.5 967 c 128,-1,32
 182 1033 182 1033 242 1077.5 c 0,33,34
 362.674157303 1167 362.674157303 1167 527.837078652 1167 c 128,-1,35
 693 1167 693 1167 822 1081 c 1,36,37
 965.571428571 1215 965.571428571 1215 1070 1215 c 0,38,39
 1077 1215 1077 1215 1101 1211 c 1,40,-1
 1101 969 l 1,41,42
 995.7 1008 995.7 1008 974.35 1008 c 128,-1,43
 953 1008 953 1008 919 991 c 1,44,45
 963 881 963 881 963 819 c 0,46,47
 963 681.57 963 681.57 860.374275506 571.760474791 c 128,-1,48
 757.748551012 461.950949583 757.748551012 461.950949583 613.713729276 461.950949583 c 0,49,50
 589.900578407 461.950949583 589.900578407 461.950949583 565 465 c 1,51,-1
 445 469 l 1,52,53
 403 457 403 457 386.5 442.5 c 128,-1,54
 370 428 370 428 370 386.5 c 0,55,56
 370 311.6 370 311.6 442 302 c 1,57,-1
 714 281 l 2,58,59
 1053 254.923076923 1053 254.923076923 1053 -20 c 0,60,61
 1053 -250.47008547 1053 -250.47008547 758.5 -328.5 c 0,62,63
 647.161290323 -358 647.161290323 -358 528.080645161 -358 c 0,64,65
 297.870967742 -358 297.870967742 -358 170.935483871 -293.491803279 c 128,-1,66
 44 -228.983606557 44 -228.983606557 44 -127.702329594 c 128,-1,67
 44 -26.4210526316 44 -26.4210526316 145 48 c 0,68,69
 189 81 189 81 246 103 c 1,21,22
EndSplineSet
EndChar

StartChar: h
Encoding: 104 104 45
Width: 1104
Flags: HW
LayerCount: 2
Fore
SplineSet
412 1005 m 1,0,1
 585.571428571 1167 585.571428571 1167 742 1167 c 0,2,3
 850.466666667 1167 850.466666667 1167 919.233333333 1087.65384615 c 0,4,5
 988 1008.30769231 988 1008.30769231 988 876 c 2,6,-1
 988 12 l 1,7,-1
 700 -12 l 1,8,-1
 700 773 l 2,9,10
 700 852 700 852 671.5 887 c 128,-1,11
 643 922 643 922 601.5 922 c 128,-1,12
 560 922 560 922 516 900.5 c 128,-1,13
 472 879 472 879 412 843 c 1,14,-1
 412 12 l 1,15,-1
 124 -12 l 1,16,-1
 124 1500 l 1,17,-1
 412 1536 l 1,18,-1
 412 1005 l 1,0,1
EndSplineSet
EndChar

StartChar: i
Encoding: 105 105 46
Width: 536
Flags: HW
LayerCount: 2
Fore
SplineSet
412 1600 m 1,0,-1
 412 1312 l 1,1,-1
 124 1300 l 1,2,-1
 124 1598 l 1,3,-1
 412 1600 l 1,0,-1
124 1128 m 1,4,-1
 412 1152 l 1,5,-1
 412 12 l 1,6,-1
 124 -12 l 1,7,-1
 124 1128 l 1,4,-1
EndSplineSet
EndChar

StartChar: j
Encoding: 106 106 47
Width: 536
Flags: HW
LayerCount: 2
Fore
SplineSet
412 1600 m 1,0,-1
 412 1312 l 1,1,-1
 124 1300 l 1,2,-1
 124 1598 l 1,3,-1
 412 1600 l 1,0,-1
304.5 -265 m 128,-1,5
 253 -288 253 -288 163.15 -288 c 128,-1,6
 73.3 -288 73.3 -288 -35 -269 c 1,7,-1
 -35 -96 l 1,8,9
 70.8285714286 -96 70.8285714286 -96 97.4142857143 -65.9838709677 c 0,10,11
 124 -35.9677419355 124 -35.9677419355 124 54 c 2,12,-1
 124 1128 l 1,13,-1
 412 1152 l 1,14,-1
 412 54 l 2,15,16
 412 -27 412 -27 408 -91 c 128,-1,17
 404 -155 404 -155 380 -198.5 c 128,-1,4
 356 -242 356 -242 304.5 -265 c 128,-1,5
EndSplineSet
EndChar

StartChar: k
Encoding: 107 107 48
Width: 1021
Flags: HW
LayerCount: 2
Fore
SplineSet
413 421 m 1,0,-1
 413 0 l 1,1,-1
 125 0 l 1,2,-1
 125 1500 l 1,3,-1
 413 1536 l 1,4,-1
 413 775 l 1,5,-1
 706 1152 l 1,6,-1
 1017 1152 l 1,7,-1
 693 738 l 1,8,-1
 994 60 l 1,9,-1
 740 -27 l 1,10,-1
 507 546 l 1,11,-1
 413 421 l 1,0,-1
EndSplineSet
EndChar

StartChar: l
Encoding: 108 108 49
Width: 536
Flags: HW
LayerCount: 2
Fore
SplineSet
124 1500 m 1,0,-1
 412 1536 l 1,1,-1
 412 12 l 1,2,-1
 124 -12 l 1,3,-1
 124 1500 l 1,0,-1
EndSplineSet
EndChar

StartChar: m
Encoding: 109 109 50
Width: 1487
Flags: HW
LayerCount: 2
Fore
SplineSet
604 804 m 2,0,1
 604 921 604 921 551 921 c 0,2,3
 510.666666667 921 510.666666667 921 471.333333333 891.5 c 128,-1,4
 432 862 432 862 412 839 c 1,5,-1
 412 12 l 1,6,-1
 124 -12 l 1,7,-1
 124 1128 l 1,8,-1
 412 1152 l 1,9,-1
 412 1005 l 1,10,11
 549.25 1167 549.25 1167 709 1167 c 0,12,13
 838.402061856 1167 838.402061856 1167 879 988 c 1,14,15
 1014.86746988 1167 1014.86746988 1167 1157.5 1167 c 0,16,17
 1232 1167 1232 1167 1269.5 1143.5 c 0,18,19
 1372 1079.26666667 1372 1079.26666667 1372 817 c 2,20,-1
 1372 12 l 1,21,-1
 1084 -12 l 1,22,-1
 1084 802 l 2,23,24
 1084 860 1084 860 1067.5 890.5 c 128,-1,25
 1051 921 1051 921 1015.1 921 c 128,-1,26
 979.2 921 979.2 921 944.1 891.5 c 128,-1,27
 909 862 909 862 892 839 c 1,28,-1
 892 12 l 1,29,-1
 604 -12 l 1,30,-1
 604 804 l 2,0,1
EndSplineSet
EndChar

StartChar: n
Encoding: 110 110 51
Width: 1104
Flags: HW
LayerCount: 2
Fore
SplineSet
412 1005 m 1,0,1
 597.76 1167 597.76 1167 742 1167 c 0,2,3
 850.466666667 1167 850.466666667 1167 919.233333333 1087.65384615 c 0,4,5
 988 1008.30769231 988 1008.30769231 988 876 c 2,6,-1
 988 12 l 1,7,-1
 700 -12 l 1,8,-1
 700 769 l 2,9,10
 700 922 700 922 595 922 c 0,11,12
 557 922 557 922 509.5 897 c 128,-1,13
 462 872 462 872 412 842 c 1,14,-1
 412 12 l 1,15,-1
 124 -12 l 1,16,-1
 124 1128 l 1,17,-1
 412 1152 l 1,18,-1
 412 1005 l 1,0,1
EndSplineSet
EndChar

StartChar: o
Encoding: 111 111 52
Width: 1003
Flags: HW
LayerCount: 2
Fore
SplineSet
499.5 187 m 0,0,1
 645 187 645 187 645 544.875 c 0,2,3
 645 737 645 737 631 800 c 128,-1,4
 617 863 617 863 601 894.5 c 1,5,6
 548.509232925 953.46378153 548.509232925 953.46378153 501 964 c 1,7,8
 362.19047619 964 362.19047619 964 358.5 654 c 0,9,10
 358 612 358 612 358 576.5 c 128,-1,11
 358 541 358 541 358.5 498.5 c 128,-1,12
 359 456 359 456 363 412.5 c 128,-1,13
 367 369 367 369 375.5 328.5 c 128,-1,14
 384 288 384 288 399.5 256.5 c 0,15,16
 433.698412698 187 433.698412698 187 499.5 187 c 0,0,1
181.226415094 136.75 m 128,-1,18
 70 300.5 70 300.5 70 572.5 c 128,-1,19
 70 844.5 70 844.5 180.923566879 1005.75 c 128,-1,20
 291.847133758 1167 291.847133758 1167 500.222929936 1167 c 128,-1,21
 708.598726115 1167 708.598726115 1167 821.299363057 1004.66972477 c 128,-1,22
 934 842.339449541 934 842.339449541 934 572.513761468 c 128,-1,23
 934 302.688073394 934 302.688073394 820.993710692 137.844036697 c 128,-1,24
 707.987421384 -27 707.987421384 -27 500.220125786 -27 c 128,-1,17
 292.452830189 -27 292.452830189 -27 181.226415094 136.75 c 128,-1,18
EndSplineSet
EndChar

StartChar: p
Encoding: 112 112 53
Width: 1042
Flags: HW
LayerCount: 2
Fore
SplineSet
535 960 m 0,0,1
 466.545454545 960 466.545454545 960 412 880 c 1,2,-1
 412 285 l 1,3,4
 476.028990251 207.500509329 476.028990251 207.500509329 537 193 c 1,5,6
 603.142857143 193 603.142857143 193 637.571428571 273.333333333 c 128,-1,7
 672 353.666666667 672 353.666666667 672 576 c 0,8,9
 672 882 672 882 594 940.5 c 0,10,11
 568 960 568 960 535 960 c 0,0,1
412 1041 m 1,12,13
 538 1167 538 1167 656 1167 c 0,14,15
 867.479338843 1167 867.479338843 1167 927.5 959.5 c 0,16,17
 958.36237318 852.804367005 958.36237318 852.804367005 959.18118659 743.902183502 c 128,-1,18
 960 635 960 635 960 578.5 c 128,-1,19
 960 522 960 522 958 456 c 128,-1,20
 956 390 956 390 946.5 323 c 0,21,22
 896.873134328 -27 896.873134328 -27 634 -27 c 0,23,24
 541.5 -27 541.5 -27 468 36 c 0,25,26
 435 63 435 63 412 99 c 1,27,-1
 412 -302 l 1,28,-1
 124 -358 l 1,29,-1
 124 1128 l 1,30,-1
 412 1152 l 1,31,-1
 412 1041 l 1,12,13
EndSplineSet
EndChar

StartChar: q
Encoding: 113 113 54
Width: 1023
Flags: HW
LayerCount: 2
Fore
SplineSet
611 880 m 1,0,1
 550.574361865 948.59811579 550.574361865 948.59811579 503 960 c 1,2,3
 371 960 371 960 371 576 c 0,4,5
 371 257.285714286 371 257.285714286 440 208 c 0,6,7
 461 193 461 193 500.705882353 193 c 128,-1,8
 540.411764706 193 540.411764706 193 581 239 c 0,9,10
 599 259 599 259 611 285 c 1,11,-1
 611 880 l 1,0,1
611 1041 m 1,12,-1
 659 1152 l 1,13,-1
 899 1128 l 1,14,-1
 899 -322 l 1,15,-1
 611 -358 l 1,16,-1
 611 99 l 1,17,18
 567.606886657 31.0803443329 567.606886657 31.0803443329 485.5 -7.5 c 0,19,20
 444 -27 444 -27 379 -27 c 128,-1,21
 314 -27 314 -27 262.5 2.5 c 128,-1,22
 211 32 211 32 177 81 c 0,23,24
 83 216.470588235 83 216.470588235 83 527.388888889 c 0,25,26
 83 757.923076923 83 757.923076923 90 828.461538462 c 0,27,28
 123.595419847 1167 123.595419847 1167 357.331521739 1167 c 0,29,30
 485 1167 485 1167 611 1041 c 1,12,-1
EndSplineSet
EndChar

StartChar: r
Encoding: 114 114 55
Width: 831
Flags: HW
LayerCount: 2
Fore
SplineSet
604 864 m 0,0,1
 500.888888889 864 500.888888889 864 412 768 c 1,2,-1
 412 12 l 1,3,-1
 124 -12 l 1,4,-1
 124 1128 l 1,5,-1
 412 1152 l 1,6,-1
 412 967 l 1,7,8
 563.515151515 1167 563.515151515 1167 761 1167 c 0,9,10
 768 1167 768 1167 796 1163 c 1,11,-1
 796 820 l 1,12,13
 749 834 749 834 701 849 c 128,-1,14
 653 864 653 864 604 864 c 0,0,1
EndSplineSet
EndChar

StartChar: s
Encoding: 115 115 56
Width: 926
Flags: HW
LayerCount: 2
Fore
SplineSet
282 337 m 1,0,1
 299.262295082 262.196721311 299.262295082 262.196721311 364 221 c 0,2,3
 397 200 397 200 433.5 200 c 0,4,5
 503 200 503 200 549 223 c 128,-1,6
 595 246 595 246 595 288 c 0,7,8
 595 357.2 595 357.2 508 392 c 2,9,-1
 267 490 l 2,10,11
 67 570.412371134 67 570.412371134 67 814 c 0,12,13
 67 977.611111111 67 977.611111111 181.91011236 1072.30555556 c 128,-1,14
 296.820224719 1167 296.820224719 1167 441.543915176 1167 c 128,-1,15
 586.267605634 1167 586.267605634 1167 694.090289736 1093.39028297 c 128,-1,16
 801.912973839 1019.78056594 801.912973839 1019.78056594 839 889 c 1,17,-1
 603 816 l 1,18,19
 581.073111782 891.747432024 581.073111782 891.747432024 528 932.5 c 0,20,21
 500 954 500 954 467.5 954 c 0,22,23
 406.217391304 954 406.217391304 954 370.108695652 930.271428571 c 128,-1,24
 334 906.542857143 334 906.542857143 334 862 c 0,25,26
 334 806.857142857 334 806.857142857 434 764 c 1,27,-1
 639 679 l 1,28,29
 871 572.666666667 871 572.666666667 871 361.142857143 c 0,30,31
 871 167.49122807 871 167.49122807 750.5 70.2456140351 c 128,-1,32
 630 -27 630 -27 469 -27 c 0,33,34
 212.5 -27 212.5 -27 108 144 c 0,35,36
 75 198 75 198 60 265 c 1,37,-1
 282 337 l 1,0,1
EndSplineSet
EndChar

StartChar: t
Encoding: 116 116 57
Width: 732
Flags: HW
LayerCount: 2
Fore
SplineSet
696 1 m 1,0,1
 619 -27 619 -27 524 -27 c 128,-1,2
 429 -27 429 -27 378.5 -13.5 c 128,-1,3
 328 0 328 0 286 31.5 c 0,4,5
 189 104.25 189 104.25 189 244 c 2,6,-1
 189 936 l 1,7,-1
 28 936 l 1,8,-1
 40 1152 l 1,9,-1
 197 1152 l 1,10,-1
 226 1402 l 1,11,-1
 476 1438 l 1,12,-1
 476 1152 l 1,13,-1
 712 1152 l 1,14,-1
 700 936 l 1,15,-1
 477 936 l 1,16,-1
 477 301 l 2,17,18
 477 192 477 192 624 192 c 0,19,20
 661 192 661 192 696 199 c 1,21,-1
 696 1 l 1,0,1
EndSplineSet
EndChar

StartChar: u
Encoding: 117 117 58
Width: 1104
Flags: HW
LayerCount: 2
Fore
SplineSet
692 135 m 1,0,1
 510.56 -27 510.56 -27 372 -27 c 0,2,3
 259.173333333 -27 259.173333333 -27 187.586666667 51.9558823529 c 0,4,5
 116 130.911764706 116 130.911764706 116 264 c 2,6,-1
 116 1128 l 1,7,-1
 404 1152 l 1,8,-1
 404 381 l 2,9,10
 404 228 404 228 499 228 c 0,11,12
 554.352941176 228 554.352941176 228 692 318 c 1,13,-1
 692 1128 l 1,14,-1
 980 1152 l 1,15,-1
 980 12 l 1,16,-1
 692 -12 l 1,17,-1
 692 135 l 1,0,1
EndSplineSet
EndChar

StartChar: v
Encoding: 118 118 59
Width: 932
Flags: HW
LayerCount: 2
Fore
SplineSet
9 1128 m 1,0,-1
 352 1152 l 1,1,-1
 497 415 l 1,2,-1
 663 1116 l 1,3,-1
 924 1140 l 1,4,-1
 594 0 l 1,5,-1
 329 0 l 1,6,-1
 9 1128 l 1,0,-1
EndSplineSet
EndChar

StartChar: w
Encoding: 119 119 60
Width: 1315
Flags: HW
LayerCount: 2
Fore
SplineSet
670 747 m 1,0,-1
 508 0 l 1,1,-1
 273 0 l 1,2,-1
 36 1130 l 1,3,-1
 329 1152 l 1,4,-1
 428 500 l 1,5,-1
 573 1128 l 1,6,-1
 813 1152 l 1,7,-1
 937 508 l 1,8,-1
 1062 1128 l 1,9,-1
 1296 1140 l 1,10,-1
 1032 0 l 1,11,-1
 801 0 l 1,12,-1
 670 747 l 1,0,-1
EndSplineSet
EndChar

StartChar: x
Encoding: 120 120 61
Width: 941
Flags: HW
LayerCount: 2
Fore
SplineSet
460 339 m 1,0,-1
 284 0 l 1,1,-1
 10 0 l 1,2,-1
 321 579 l 1,3,-1
 21 1152 l 1,4,-1
 335 1152 l 1,5,-1
 474 870 l 1,6,-1
 620 1152 l 1,7,-1
 892 1152 l 1,8,-1
 615 634 l 1,9,-1
 947 12 l 1,10,-1
 630 -12 l 1,11,-1
 460 339 l 1,0,-1
EndSplineSet
EndChar

StartChar: y
Encoding: 121 121 62
Width: 901
Flags: HW
LayerCount: 2
Fore
SplineSet
156.5 -365 m 0,0,1
 106 -365 106 -365 30 -353 c 1,2,-1
 30 -113 l 1,3,4
 134 -117 134 -117 149 -117 c 0,5,6
 331 -117 331 -117 331 52 c 2,7,-1
 331 108 l 1,8,-1
 2 1138 l 1,9,-1
 314 1152 l 1,10,-1
 476 431 l 1,11,-1
 629 1146 l 1,12,-1
 889 1148 l 1,13,-1
 594 21 l 1,14,15
 483.714285714 -365 483.714285714 -365 156.5 -365 c 0,0,1
EndSplineSet
EndChar

StartChar: z
Encoding: 122 122 63
Width: 881
Flags: HW
LayerCount: 2
Fore
SplineSet
834 234 m 1,0,-1
 810 0 l 1,1,-1
 53 0 l 1,2,-1
 53 181 l 1,3,-1
 448 925 l 1,4,-1
 83 925 l 1,5,-1
 107 1152 l 1,6,-1
 792 1152 l 1,7,-1
 792 982 l 1,8,-1
 404 234 l 1,9,-1
 834 234 l 1,0,-1
EndSplineSet
EndChar

StartChar: bar
Encoding: 124 124 64
Width: 582
Flags: HW
LayerCount: 2
Fore
SplineSet
141 1632 m 1,0,-1
 441 1632 l 1,1,-1
 441 -96 l 1,2,-1
 141 -96 l 1,3,-1
 141 1632 l 1,0,-1
EndSplineSet
EndChar

StartChar: D
Encoding: 68 68 65
Width: 1132
Flags: HW
LayerCount: 2
Fore
SplineSet
484 240 m 2,0,1
 759 240 759 240 759 705 c 2,2,-1
 759 817 l 2,3,4
 759 1173.02970297 759 1173.02970297 602.5 1266 c 0,5,6
 552 1296 552 1296 476 1296 c 2,7,-1
 441 1296 l 1,8,-1
 441 240 l 1,9,-1
 484 240 l 2,0,1
142 1536 m 1,10,-1
 456 1536 l 2,11,12
 759 1536 759 1536 909 1344.5 c 128,-1,13
 1059 1153 1059 1153 1059 762 c 0,14,15
 1059 442.627906977 1059 442.627906977 935 235 c 0,16,17
 794.652777778 -9.94759830064e-14 794.652777778 -9.94759830064e-14 509 0 c 2,18,-1
 142 0 l 1,19,-1
 142 1536 l 1,10,-1
EndSplineSet
EndChar

StartChar: parenright
Encoding: 41 41 66
Width: 683
Flags: HW
LayerCount: 2
Fore
SplineSet
56 113 m 1,0,1
 187.211764706 124.40971867 187.211764706 124.40971867 260.105882353 310.342540494 c 0,2,3
 333 496.275362319 333 496.275362319 333 740.753623188 c 0,4,5
 333 985.231884058 333 985.231884058 260.043209877 1170.26722133 c 0,6,7
 187.086419753 1355.3025586 187.086419753 1355.3025586 56 1380 c 1,8,-1
 56 1563 l 1,9,10
 322.173327634 1554.41376362 322.173327634 1554.41376362 478.5 1301 c 0,11,12
 621 1070 621 1070 621 749.5 c 0,13,14
 621 429 621 429 481.5 198 c 0,15,16
 386.599498375 40.8529327937 386.599498375 40.8529327937 230 -31.5 c 0,17,18
 151 -68 151 -68 56 -76 c 1,19,-1
 56 113 l 1,0,1
EndSplineSet
EndChar

StartChar: parenleft
Encoding: 40 40 67
Width: 682
Flags: HW
LayerCount: 2
Fore
SplineSet
627 -76 m 1,0,1
 445.559241706 -60.8799368088 445.559241706 -60.8799368088 311 63 c 0,2,3
 128.279451266 231.218917882 128.279451266 231.218917882 77.5 549 c 0,4,5
 62 646 62 646 62 746 c 128,-1,6
 62 846 62 846 78 945 c 128,-1,7
 94 1044 94 1044 125.5 1134 c 0,8,9
 191.629847239 1322.94242068 191.629847239 1322.94242068 320.119004463 1440.12453207 c 128,-1,10
 448.608161686 1557.30664346 448.608161686 1557.30664346 627 1563 c 1,11,-1
 627 1380 l 1,12,13
 495.913580247 1355.3025586 495.913580247 1355.3025586 422.956790123 1170.26722133 c 128,-1,14
 350 985.231884058 350 985.231884058 350 740.753623188 c 128,-1,15
 350 496.275362319 350 496.275362319 422.894117647 310.342540494 c 128,-1,16
 495.788235294 124.40971867 495.788235294 124.40971867 627 113 c 1,17,-1
 627 -76 l 1,0,1
EndSplineSet
EndChar

StartChar: A
Encoding: 65 65 68
Width: 1131
Flags: HW
LayerCount: 2
Fore
SplineSet
670 575 m 1,0,-1
 529 1310 l 1,1,-1
 413 575 l 1,2,-1
 670 575 l 1,0,-1
359 329 m 1,3,-1
 292 0 l 1,4,-1
 25 0 l 1,5,-1
 349 1518 l 1,6,-1
 776 1536 l 1,7,-1
 1108 12 l 1,8,-1
 781 0 l 1,9,-1
 724 329 l 1,10,-1
 359 329 l 1,3,-1
EndSplineSet
EndChar

StartChar: B
Encoding: 66 66 69
Width: 1127
Flags: HW
LayerCount: 2
Fore
SplineSet
504 911 m 2,0,1
 623.80952381 911 623.80952381 911 664.404761905 938.5 c 128,-1,2
 705 966 705 966 722 1005.5 c 128,-1,3
 739 1045 739 1045 739 1106.5 c 0,4,5
 739 1217.47058824 739 1217.47058824 672.25 1256.73529412 c 128,-1,6
 605.5 1296 605.5 1296 491 1296 c 2,7,-1
 432 1296 l 1,8,-1
 432 911 l 1,9,-1
 504 911 l 2,0,1
497 240 m 2,10,11
 644.028571429 240 644.028571429 240 719 322 c 0,12,13
 777 385.4375 777 385.4375 777 465.21875 c 0,14,15
 777 605.648648649 777 605.648648649 696 656 c 0,16,17
 636.47826087 693 636.47826087 693 508 693 c 2,18,-1
 442 693 l 1,19,-1
 442 240 l 1,20,-1
 497 240 l 2,10,11
1065 431 m 0,21,22
 1065 0 1065 0 388 0 c 2,23,-1
 142 0 l 1,24,-1
 142 1536 l 1,25,-1
 486 1536 l 2,26,27
 764.666666667 1536 764.666666667 1536 891.333333333 1427.42857143 c 128,-1,28
 1018 1318.85714286 1018 1318.85714286 1018 1143.99308756 c 128,-1,29
 1018 969.129032258 1018 969.129032258 921 869 c 0,30,31
 890 837 890 837 851 818 c 1,32,33
 949.887400586 767.350355797 949.887400586 767.350355797 1007.44370029 681.975177899 c 128,-1,34
 1065 596.6 1065 596.6 1065 431 c 0,21,22
EndSplineSet
EndChar

StartChar: C
Encoding: 67 67 70
Width: 1069
Flags: HW
LayerCount: 2
Fore
SplineSet
997 523 m 1,0,1
 997 290.574074074 997 290.574074074 883.88961039 129.287037037 c 128,-1,2
 770.779220779 -32 770.779220779 -32 561 -32 c 0,3,4
 220.686486486 -32 220.686486486 -32 120 411.5 c 0,5,6
 81 583.285714286 81 583.285714286 81 800 c 0,7,8
 81 1100.72727273 81 1100.72727273 189.5 1313.5 c 0,9,10
 319.278145695 1568 319.278145695 1568 573.5 1568 c 0,11,12
 669 1568 669 1568 748.5 1519.5 c 128,-1,13
 828 1471 828 1471 882.5 1392.5 c 0,14,15
 995 1230.4587156 995 1230.4587156 995 1014 c 1,16,-1
 705 999 l 1,17,18
 705 1229 705 1229 614 1306 c 0,19,20
 588 1328 588 1328 551.5 1328 c 128,-1,21
 515 1328 515 1328 488.5 1304.5 c 128,-1,22
 462 1281 462 1281 443 1241.5 c 0,23,24
 381 1112.60526316 381 1112.60526316 381 832.607142857 c 0,25,26
 381 433.266666667 381 433.266666667 451.5 309.5 c 0,27,28
 499.632911392 225 499.632911392 225 581.003955696 225 c 0,29,30
 716.24 225 716.24 225 742 547 c 1,31,-1
 997 523 l 1,0,1
EndSplineSet
EndChar

StartChar: exclam
Encoding: 33 33 71
Width: 543
Flags: HW
LayerCount: 2
Fore
SplineSet
127 -12 m 1,0,-1
 127 300 l 1,1,-1
 415 300 l 1,2,-1
 415 0 l 1,3,-1
 127 -12 l 1,0,-1
127 1536 m 1,4,-1
 415 1536 l 1,5,-1
 368 448 l 1,6,-1
 176 448 l 1,7,-1
 127 1536 l 1,4,-1
EndSplineSet
EndChar

StartChar: fi
Encoding: 64257 64257 72
Width: 1287
Flags: HW
LayerCount: 2
Fore
SplineSet
1163 1600 m 1,0,-1
 1163 1300 l 1,1,-1
 875 1288 l 1,2,-1
 875 1600 l 1,3,-1
 1163 1600 l 1,0,-1
301 1514 m 128,-1,5
 359 1546 359 1546 474.75 1546 c 128,-1,6
 590.5 1546 590.5 1546 658 1516 c 1,7,-1
 658 1344 l 1,8,-1
 595 1344 l 2,9,10
 480.806451613 1344 480.806451613 1344 468.5 1235 c 0,11,12
 465 1204 465 1204 465 1173 c 2,13,-1
 465 1152 l 1,14,-1
 1163 1152 l 1,15,-1
 1163 12 l 1,16,-1
 875 -12 l 1,17,-1
 875 915 l 1,18,-1
 465 915 l 1,19,-1
 465 12 l 1,20,-1
 177 -12 l 1,21,-1
 177 917 l 1,22,-1
 35 917 l 1,23,-1
 59 1152 l 1,24,-1
 177 1152 l 1,25,-1
 177 1174 l 2,26,27
 177 1244 177 1244 182.5 1310.5 c 128,-1,28
 188 1377 188 1377 215.5 1429.5 c 128,-1,4
 243 1482 243 1482 301 1514 c 128,-1,5
EndSplineSet
EndChar

StartChar: fl
Encoding: 64258 64258 73
Width: 1287
Flags: HW
LayerCount: 2
Fore
SplineSet
875 1344 m 1,0,-1
 555 1344 l 2,1,2
 474.032258065 1344 474.032258065 1344 467 1235 c 0,3,4
 465 1204 465 1204 465 1173 c 2,5,-1
 465 1152 l 1,6,-1
 656 1152 l 1,7,-1
 632 915 l 1,8,-1
 465 915 l 1,9,-1
 465 12 l 1,10,-1
 177 -12 l 1,11,-1
 177 917 l 1,12,-1
 35 917 l 1,13,-1
 59 1152 l 1,14,-1
 177 1152 l 1,15,-1
 177 1174 l 2,16,17
 177 1291.59090909 177 1291.59090909 190.5 1341.29545455 c 0,18,19
 217.0625 1439.09375 217.0625 1439.09375 302.102678571 1487.546875 c 128,-1,20
 387.142857143 1536 387.142857143 1536 563 1536 c 2,21,-1
 1163 1536 l 1,22,-1
 1163 12 l 1,23,-1
 875 -12 l 1,24,-1
 875 1344 l 1,0,-1
EndSplineSet
EndChar

StartChar: fraction
Encoding: 8260 8260 74
Width: 634
Flags: HW
LayerCount: 2
Fore
SplineSet
268 1536 m 1,0,-1
 568 1536 l 1,1,-1
 367 0 l 1,2,-1
 67 0 l 1,3,-1
 268 1536 l 1,0,-1
EndSplineSet
EndChar

StartChar: slash
Encoding: 47 47 75
Width: 628
Flags: HW
LayerCount: 2
Fore
SplineSet
265 1536 m 1,0,-1
 565 1536 l 1,1,-1
 364 0 l 1,2,-1
 64 0 l 1,3,-1
 265 1536 l 1,0,-1
EndSplineSet
EndChar

StartChar: plus
Encoding: 43 43 76
Width: 855
Flags: HW
LayerCount: 2
Fore
SplineSet
546 260 m 1,0,-1
 546 20 l 1,1,-1
 308 20 l 1,2,-1
 308 260 l 1,3,-1
 68 260 l 1,4,-1
 68 498 l 1,5,-1
 308 498 l 1,6,-1
 308 738 l 1,7,-1
 546 738 l 1,8,-1
 546 498 l 1,9,-1
 786 498 l 1,10,-1
 786 260 l 1,11,-1
 546 260 l 1,0,-1
EndSplineSet
EndChar

StartChar: acute
Encoding: 180 180 78
Width: 613
Flags: HW
LayerCount: 2
Fore
SplineSet
65 1346 m 1,0,-1
 362 1793 l 1,1,-1
 589 1591 l 1,2,-1
 178 1245 l 1,3,-1
 65 1346 l 1,0,-1
EndSplineSet
EndChar

StartChar: macron
Encoding: 175 175 79
Width: 898
Flags: HW
LayerCount: 2
Fore
SplineSet
162 1440 m 1,0,-1
 738 1440 l 1,1,-1
 738 1248 l 1,2,-1
 162 1248 l 1,3,-1
 162 1440 l 1,0,-1
EndSplineSet
EndChar

StartChar: grave
Encoding: 96 96 80
Width: 613
Flags: HW
LayerCount: 2
Fore
SplineSet
421 1241 m 1,0,-1
 11 1587 l 1,1,-1
 238 1789 l 1,2,-1
 535 1342 l 1,3,-1
 421 1241 l 1,0,-1
EndSplineSet
EndChar

StartChar: period
Encoding: 46 46 81
Width: 489
Flags: HW
LayerCount: 2
Fore
SplineSet
390 288 m 1,0,-1
 390 12 l 1,1,-1
 102 -12 l 1,2,-1
 102 288 l 1,3,-1
 390 288 l 1,0,-1
EndSplineSet
EndChar

StartChar: dieresis
Encoding: 168 168 82
Width: 1091
Flags: HW
LayerCount: 2
Fore
SplineSet
930 1536 m 1,0,-1
 930 1248 l 1,1,-1
 642 1248 l 1,2,-1
 642 1536 l 1,3,-1
 930 1536 l 1,0,-1
450 1536 m 1,4,-1
 450 1248 l 1,5,-1
 162 1248 l 1,6,-1
 162 1536 l 1,7,-1
 450 1536 l 1,4,-1
EndSplineSet
EndChar

StartChar: dotaccent
Encoding: 729 729 84
Width: 608
Flags: HW
LayerCount: 2
Fore
SplineSet
450 1536 m 1,0,-1
 450 1248 l 1,1,-1
 162 1248 l 1,2,-1
 162 1536 l 1,3,-1
 450 1536 l 1,0,-1
EndSplineSet
EndChar

StartChar: periodcentered
Encoding: 183 183 85
Width: 516
Flags: HW
LayerCount: 2
Fore
SplineSet
402 768 m 1,0,-1
 402 480 l 1,1,-1
 114 480 l 1,2,-1
 114 768 l 1,3,-1
 402 768 l 1,0,-1
EndSplineSet
EndChar

StartChar: comma
Encoding: 44 44 86
Width: 488
Flags: HW
LayerCount: 2
Fore
SplineSet
387 288 m 1,0,-1
 387 0 l 2,1,2
 387 -181.090909091 387 -181.090909091 267 -252 c 0,3,4
 214 -284 214 -284 147 -288 c 1,5,-1
 147 -96 l 1,6,7
 207 -96 207 -96 231 -48 c 0,8,9
 242 -27 242 -27 243 0 c 1,10,-1
 99 0 l 1,11,-1
 99 288 l 1,12,-1
 387 288 l 1,0,-1
EndSplineSet
EndChar

StartChar: semicolon
Encoding: 59 59 87
Width: 517
Flags: HW
LayerCount: 2
Fore
SplineSet
403 864 m 1,0,-1
 403 576 l 1,1,-1
 115 576 l 1,2,-1
 115 864 l 1,3,-1
 403 864 l 1,0,-1
403 288 m 1,4,-1
 403 0 l 2,5,6
 403 -181.090909091 403 -181.090909091 283 -252 c 0,7,8
 230 -284 230 -284 163 -288 c 1,9,-1
 163 -96 l 1,10,11
 223 -96 223 -96 247 -48 c 0,12,13
 258 -27 258 -27 259 0 c 1,14,-1
 115 -12 l 1,15,-1
 115 288 l 1,16,-1
 403 288 l 1,4,-1
EndSplineSet
EndChar

StartChar: colon
Encoding: 58 58 88
Width: 516
Flags: HW
LayerCount: 2
Fore
SplineSet
402 864 m 1,0,-1
 402 576 l 1,1,-1
 114 576 l 1,2,-1
 114 864 l 1,3,-1
 402 864 l 1,0,-1
402 288 m 1,4,-1
 402 0 l 1,5,-1
 114 -12 l 1,6,-1
 114 288 l 1,7,-1
 402 288 l 1,4,-1
EndSplineSet
EndChar

StartChar: hyphen
Encoding: 45 45 89
Width: 804
Flags: HW
LayerCount: 2
Fore
SplineSet
114 718 m 1,0,-1
 690 718 l 1,1,-1
 690 480 l 1,2,-1
 114 480 l 1,3,-1
 114 718 l 1,0,-1
EndSplineSet
EndChar

StartChar: quotedblbase
Encoding: 8222 8222 90
Width: 873
Flags: HW
LayerCount: 2
Fore
SplineSet
388 288 m 1,0,-1
 388 0 l 2,1,2
 388 -181.090909091 388 -181.090909091 268 -252 c 0,3,4
 215 -284 215 -284 148 -288 c 1,5,-1
 148 -96 l 1,6,7
 208 -96 208 -96 232 -48 c 0,8,9
 243 -27 243 -27 244 0 c 1,10,-1
 100 0 l 1,11,-1
 100 288 l 1,12,-1
 388 288 l 1,0,-1
772 288 m 1,13,-1
 772 0 l 2,14,15
 772 -181.090909091 772 -181.090909091 652 -252 c 0,16,17
 599 -284 599 -284 532 -288 c 1,18,-1
 532 -96 l 1,19,20
 592 -96 592 -96 616 -48 c 0,21,22
 627 -27 627 -27 628 0 c 1,23,-1
 484 0 l 1,24,-1
 484 288 l 1,25,-1
 772 288 l 1,13,-1
EndSplineSet
EndChar

StartChar: quotedblright
Encoding: 8221 8221 91
Width: 842
Flags: HW
LayerCount: 2
Fore
SplineSet
375 1536 m 1,0,-1
 375 1248 l 2,1,2
 375 1066.90909091 375 1066.90909091 255 996 c 0,3,4
 202 964 202 964 135 960 c 1,5,-1
 135 1152 l 1,6,7
 195 1152 195 1152 219 1200 c 0,8,9
 230 1221 230 1221 231 1248 c 1,10,-1
 87 1236 l 1,11,-1
 87 1536 l 1,12,-1
 375 1536 l 1,0,-1
759 1536 m 1,13,-1
 759 1248 l 2,14,15
 759 1066.90909091 759 1066.90909091 639 996 c 0,16,17
 586 964 586 964 519 960 c 1,18,-1
 519 1152 l 1,19,20
 579 1152 579 1152 603 1200 c 0,21,22
 614 1221 614 1221 615 1248 c 1,23,-1
 471 1236 l 1,24,-1
 471 1536 l 1,25,-1
 759 1536 l 1,13,-1
EndSplineSet
EndChar

StartChar: quotedblleft
Encoding: 8220 8220 92
Width: 859
Flags: HW
LayerCount: 2
Fore
SplineSet
480 948 m 1,0,-1
 480 1248 l 2,1,2
 480 1426.95652174 480 1426.95652174 600 1500 c 0,3,4
 653 1532 653 1532 720 1536 c 1,5,-1
 720 1344 l 1,6,7
 660 1344 660 1344 636 1296 c 0,8,9
 625 1275 625 1275 624 1248 c 1,10,-1
 768 1248 l 1,11,-1
 768 960 l 1,12,-1
 480 948 l 1,0,-1
96 948 m 1,13,-1
 96 1248 l 2,14,15
 96 1426.95652174 96 1426.95652174 216 1500 c 0,16,17
 269 1532 269 1532 336 1536 c 1,18,-1
 336 1344 l 1,19,20
 276 1344 276 1344 252 1296 c 0,21,22
 241 1275 241 1275 240 1248 c 1,23,-1
 384 1248 l 1,24,-1
 384 960 l 1,25,-1
 96 948 l 1,13,-1
EndSplineSet
EndChar

StartChar: quoteleft
Encoding: 8216 8216 93
Width: 524
Flags: HW
LayerCount: 2
Fore
SplineSet
97 918 m 1,0,-1
 97 1248 l 2,1,2
 97 1425.33333333 97 1425.33333333 241 1500 c 0,3,4
 304 1532 304 1532 386 1536 c 1,5,-1
 386 1344 l 1,6,7
 296.333333333 1344 296.333333333 1344 259 1296 c 0,8,9
 243 1275 243 1275 241 1248 c 1,10,-1
 434 1248 l 1,11,-1
 434 930 l 1,12,-1
 97 918 l 1,0,-1
EndSplineSet
EndChar

StartChar: quoteright
Encoding: 8217 8217 94
Width: 458
Flags: HW
LayerCount: 2
Fore
SplineSet
375 1536 m 1,0,-1
 375 1248 l 2,1,2
 375 1066.90909091 375 1066.90909091 255 996 c 0,3,4
 202 964 202 964 135 960 c 1,5,-1
 135 1152 l 1,6,7
 195 1152 195 1152 219 1200 c 0,8,9
 230 1221 230 1221 231 1248 c 1,10,-1
 87 1236 l 1,11,-1
 87 1536 l 1,12,-1
 375 1536 l 1,0,-1
EndSplineSet
EndChar

StartChar: minus
Encoding: 8722 8722 95
Width: 804
Flags: HW
LayerCount: 2
Fore
SplineSet
114 718 m 1,0,-1
 690 718 l 1,1,-1
 690 480 l 1,2,-1
 114 480 l 1,3,-1
 114 718 l 1,0,-1
EndSplineSet
EndChar

StartChar: logicalnot
Encoding: 172 172 96
Width: 789
Flags: HW
LayerCount: 2
Fore
SplineSet
95 718 m 1,0,-1
 671 718 l 1,1,-1
 671 288 l 1,2,-1
 527 288 l 1,3,-1
 527 480 l 1,4,-1
 95 480 l 1,5,-1
 95 718 l 1,0,-1
EndSplineSet
EndChar

StartChar: brokenbar
Encoding: 166 166 97
Width: 590
Flags: HW
LayerCount: 2
Fore
SplineSet
145 1632 m 1,0,-1
 445 1632 l 1,1,-1
 445 960 l 1,2,-1
 145 960 l 1,3,-1
 145 1632 l 1,0,-1
145 576 m 1,4,-1
 445 576 l 1,5,-1
 445 -96 l 1,6,-1
 145 -96 l 1,7,-1
 145 576 l 1,4,-1
EndSplineSet
EndChar

StartChar: circumflex
Encoding: 710 710 98
Width: 739
Flags: HW
LayerCount: 2
Fore
SplineSet
32 1248 m 1,0,-1
 272 1728 l 1,1,-1
 474 1728 l 1,2,-1
 704 1248 l 1,3,-1
 454 1248 l 1,4,-1
 358 1538 l 1,5,-1
 242 1248 l 1,6,-1
 32 1248 l 1,0,-1
EndSplineSet
EndChar

StartChar: caron
Encoding: 711 711 100
Width: 768
Flags: HW
LayerCount: 2
Fore
SplineSet
242 1728 m 1,0,-1
 358 1438 l 1,1,-1
 454 1728 l 1,2,-1
 704 1728 l 1,3,-1
 474 1248 l 1,4,-1
 272 1248 l 1,5,-1
 32 1728 l 1,6,-1
 242 1728 l 1,0,-1
EndSplineSet
EndChar

StartChar: bracketleft
Encoding: 91 91 101
Width: 692
Flags: HW
LayerCount: 2
Fore
SplineSet
141 1632 m 1,0,-1
 633 1632 l 1,1,-1
 633 1440 l 1,2,-1
 441 1440 l 1,3,-1
 441 95 l 1,4,-1
 633 95 l 1,5,-1
 633 -96 l 1,6,-1
 141 -96 l 1,7,-1
 141 1632 l 1,0,-1
EndSplineSet
EndChar

StartChar: bracketright
Encoding: 93 93 102
Width: 693
Flags: HW
LayerCount: 2
Fore
SplineSet
552 -96 m 1,0,-1
 60 -96 l 1,1,-1
 60 95 l 1,2,-1
 252 95 l 1,3,-1
 252 1440 l 1,4,-1
 60 1440 l 1,5,-1
 60 1632 l 1,6,-1
 552 1632 l 1,7,-1
 552 -96 l 1,0,-1
EndSplineSet
EndChar

StartChar: backslash
Encoding: 92 92 103
Width: 628
Flags: HW
LayerCount: 2
Fore
SplineSet
564 0 m 1,0,-1
 264 0 l 1,1,-1
 63 1536 l 1,2,-1
 363 1536 l 1,3,-1
 564 0 l 1,0,-1
EndSplineSet
EndChar

StartChar: hungarumlaut
Encoding: 733 733 104
Width: 1102
Flags: HW
LayerCount: 2
Fore
SplineSet
61 1248 m 1,0,-1
 330 1728 l 1,1,-1
 564 1534 l 1,2,-1
 180 1150 l 1,3,-1
 61 1248 l 1,0,-1
564 1248 m 1,4,-1
 833 1728 l 1,5,-1
 1067 1534 l 1,6,-1
 683 1150 l 1,7,-1
 564 1248 l 1,4,-1
EndSplineSet
EndChar

StartChar: ring
Encoding: 730 730 105
Width: 789
Flags: HW
LayerCount: 2
Fore
SplineSet
394.5 1248 m 128,-1,1
 268.656716418 1248 268.656716418 1248 175.328358209 1319.05681818 c 128,-1,2
 82 1390.11363636 82 1390.11363636 82 1520 c 128,-1,3
 82 1649.88636364 82 1649.88636364 175.328358209 1720.94318182 c 128,-1,4
 268.656716418 1792 268.656716418 1792 394.5 1792 c 128,-1,5
 520.343283582 1792 520.343283582 1792 613.671641791 1720.94318182 c 128,-1,6
 707 1649.88636364 707 1649.88636364 707 1520 c 128,-1,7
 707 1390.11363636 707 1390.11363636 613.671641791 1319.05681818 c 128,-1,0
 520.343283582 1248 520.343283582 1248 394.5 1248 c 128,-1,1
518 1519.5 m 0,8,9
 518 1569.88235294 518 1569.88235294 480.892857143 1600.44117647 c 128,-1,10
 443.785714286 1631 443.785714286 1631 407.892857143 1631 c 0,11,12
 345.75 1631 345.75 1631 308.375 1601.1 c 128,-1,13
 271 1571.2 271 1571.2 271 1519.3 c 128,-1,14
 271 1467.4 271 1467.4 309.858173705 1435.2032275 c 128,-1,15
 348.71634741 1403.006455 348.71634741 1403.006455 376.588626477 1403.006455 c 128,-1,16
 404.460905544 1403.006455 404.460905544 1403.006455 424.478257711 1409.37656792 c 0,17,18
 518 1439.1379496 518 1439.1379496 518 1519.5 c 0,8,9
EndSplineSet
EndChar

StartChar: degree
Encoding: 176 176 106
Width: 921
Flags: HW
LayerCount: 2
Fore
SplineSet
468 959 m 0,0,1
 316 959 316 959 316 797.362068966 c 0,2,3
 316 745 316 745 318 712.5 c 128,-1,4
 320 680 320 680 334.5 650 c 0,5,6
 368.816666667 579 368.816666667 579 461.525 579 c 0,7,8
 603 579 603 579 603 742.269230769 c 0,9,10
 603 846.461538462 603 846.461538462 585 888 c 0,11,12
 554.233333333 959 554.233333333 959 468 959 c 0,0,1
68 769 m 128,-1,14
 68 940 68 940 171.431372549 1045.5 c 128,-1,15
 274.862745098 1151 274.862745098 1151 462.352941176 1151 c 128,-1,16
 649.843137255 1151 649.843137255 1151 750.921568627 1044.71134021 c 128,-1,17
 852 938.422680412 852 938.422680412 852 769 c 128,-1,18
 852 599.577319588 852 599.577319588 750.921568627 493.288659794 c 128,-1,19
 649.843137255 387 649.843137255 387 462.352941176 387 c 128,-1,20
 274.862745098 387 274.862745098 387 171.431372549 492.5 c 128,-1,13
 68 598 68 598 68 769 c 128,-1,14
EndSplineSet
EndChar

StartChar: currency
Encoding: 164 164 109
Width: 1213
Flags: HW
LayerCount: 2
Fore
SplineSet
607 698 m 128,-1,1
 798 698 798 698 798 912.5 c 128,-1,2
 798 1127 798 1127 607 1127 c 128,-1,3
 416 1127 416 1127 416 912.5 c 128,-1,0
 416 698 416 698 607 698 c 128,-1,1
894 569 m 1,4,5
 784.433803667 482.173957623 784.433803667 482.173957623 607.180039412 482.144889567 c 0,6,7
 429.926275156 482.115821512 429.926275156 482.115821512 321 568 c 1,8,-1
 183 447 l 1,9,-1
 88 556 l 1,10,-1
 228 679 l 1,11,12
 176 779 176 779 176 915.75862069 c 128,-1,13
 176 1052.51724138 176 1052.51724138 232 1151 c 1,14,-1
 88 1278 l 1,15,-1
 183 1387 l 1,16,-1
 326 1261 l 1,17,18
 435.333333333 1343 435.333333333 1343 606.833333333 1343 c 128,-1,19
 778.333333333 1343 778.333333333 1343 889 1260 c 1,20,-1
 1033 1387 l 1,21,-1
 1128 1278 l 1,22,-1
 983 1150 l 1,23,24
 1038 1049.82142857 1038 1049.82142857 1038 914.910714286 c 128,-1,25
 1038 780 1038 780 986 680 c 1,26,-1
 1128 556 l 1,27,-1
 1033 447 l 1,28,-1
 894 569 l 1,4,5
EndSplineSet
EndChar

StartChar: cent
Encoding: 162 162 110
Width: 983
Flags: HW
LayerCount: 2
Fore
SplineSet
439 920 m 1,0,1
 341 857.28 341 857.28 341 591.721081081 c 0,2,3
 341 326.162162162 341 326.162162162 439 252 c 1,4,-1
 439 920 l 1,0,1
439 -16 m 1,5,6
 252.875686915 21.9845536908 252.875686915 21.9845536908 152.437843458 186.242276845 c 0,7,8
 52 350.5 52 350.5 52 570.377659574 c 0,9,10
 52 790.255319149 52 790.255319149 150.3794384 962.942631234 c 0,11,12
 248.7588768 1135.62994332 248.7588768 1135.62994332 439 1162 c 1,13,-1
 439 1344 l 1,14,-1
 578 1344 l 1,15,-1
 578 1161 l 1,16,17
 731.454519694 1137.08500992 731.454519694 1137.08500992 826.697402824 1027.34864457 c 0,18,19
 921.940285955 917.612279226 921.940285955 917.612279226 928 754 c 1,20,-1
 655 742 l 1,21,22
 640.173228346 835.902887139 640.173228346 835.902887139 619.586614173 869.45144357 c 128,-1,23
 599 903 599 903 578 918 c 1,24,-1
 578 218 l 1,25,26
 670.189349112 237.408284024 670.189349112 237.408284024 681 432 c 1,27,-1
 921 405 l 1,28,29
 894.214211076 201.874433995 894.214211076 201.874433995 827 104.5 c 0,30,31
 745.400563145 -13.7145687767 745.400563145 -13.7145687767 578 -25 c 1,32,-1
 578 -192 l 1,33,-1
 439 -192 l 1,34,-1
 439 -16 l 1,5,6
EndSplineSet
EndChar

StartChar: yen
Encoding: 165 165 111
Width: 1096
Flags: HW
LayerCount: 2
Fore
SplineSet
404 608 m 1,0,-1
 34 1536 l 1,1,-1
 364 1536 l 1,2,-1
 575 896 l 1,3,-1
 803 1536 l 1,4,-1
 1062 1536 l 1,5,-1
 707 643 l 1,6,-1
 707 0 l 1,7,-1
 404 0 l 1,8,-1
 404 608 l 1,0,-1
EndSplineSet
EndChar

StartChar: OE
Encoding: 338 338 112
Width: 1617
Flags: HW
LayerCount: 2
Fore
SplineSet
561 1307 m 0,0,1
 385 1307 385 1307 385 810 c 0,2,3
 385 500.944444444 385 500.944444444 408 404.472222222 c 128,-1,4
 431 308 431 308 466 268 c 128,-1,5
 501 228 501 228 561.5 228 c 0,6,7
 678.413793103 228 678.413793103 228 723.206896552 340.956521739 c 128,-1,8
 768 453.913043478 768 453.913043478 768 681 c 2,9,-1
 768 884 l 2,10,11
 768 1211.609375 768 1211.609375 635 1288.5 c 0,12,13
 603 1307 603 1307 561 1307 c 0,0,1
346.5 1492.5 m 0,14,15
 436 1546 436 1546 561.677966102 1546 c 128,-1,16
 687.355932203 1546 687.355932203 1546 768 1424 c 1,17,-1
 768 1536 l 1,18,-1
 1542 1536 l 1,19,-1
 1542 1296 l 1,20,-1
 1068 1296 l 1,21,-1
 1068 930 l 1,22,-1
 1367 930 l 1,23,-1
 1367 672 l 1,24,-1
 1068 672 l 1,25,-1
 1068 240 l 1,26,-1
 1558 240 l 1,27,-1
 1558 0 l 1,28,-1
 768 0 l 1,29,-1
 768 96 l 1,30,31
 689.534482759 -27 689.534482759 -27 561 -27 c 0,32,33
 287.46835443 -27 287.46835443 -27 176 232 c 0,34,35
 86 441.117647059 86 441.117647059 86 810 c 0,36,37
 86 1336.78212291 86 1336.78212291 346.5 1492.5 c 0,14,15
EndSplineSet
EndChar

StartChar: oe
Encoding: 339 339 113
Width: 1539
Flags: HW
LayerCount: 2
Fore
SplineSet
1207 702 m 1,0,1
 1207 890.215686275 1207 890.215686275 1134.5 948.5 c 0,2,3
 1109 969 1109 969 1077.5 969 c 0,4,5
 1017.52112676 969 1017.52112676 969 974.76056338 891.153846154 c 128,-1,6
 932 813.307692308 932 813.307692308 932 702 c 1,7,-1
 1207 702 l 1,0,1
499.5 187 m 0,8,9
 645 187 645 187 645 544.875 c 0,10,11
 645 737 645 737 631 800 c 128,-1,12
 617 863 617 863 601 894.5 c 1,13,14
 548.509232925 953.46378153 548.509232925 953.46378153 501 964 c 1,15,16
 362.19047619 964 362.19047619 964 358.5 654 c 0,17,18
 358 612 358 612 358 576.5 c 128,-1,19
 358 541 358 541 358.5 498.5 c 128,-1,20
 359 456 359 456 363 412.5 c 128,-1,21
 367 369 367 369 375.5 328.5 c 128,-1,22
 384 288 384 288 399.5 256.5 c 0,23,24
 433.698412698 187 433.698412698 187 499.5 187 c 0,8,9
791 132 m 1,25,26
 682.88 -27 682.88 -27 492 -27 c 0,27,28
 394 -27 394 -27 313 17.5 c 0,29,30
 70 151 70 151 70 577 c 0,31,32
 70 844.5 70 844.5 180.923566879 1005.75 c 128,-1,33
 291.847133758 1167 291.847133758 1167 502 1167 c 0,34,35
 590 1167 590 1167 666 1122 c 128,-1,36
 742 1077 742 1077 793 997 c 1,37,38
 847 1078 847 1078 914.5 1122.5 c 128,-1,39
 982 1167 982 1167 1081 1167 c 0,40,41
 1276.73417722 1167 1276.73417722 1167 1383.36708861 1005 c 128,-1,42
 1490 843 1490 843 1490 570 c 1,43,44
 1482 542 1482 542 1482 536 c 1,45,-1
 932 536 l 1,46,47
 932 314.055555556 932 314.055555556 1006 219.5 c 0,48,49
 1033 185 1033 185 1069.5 185 c 128,-1,50
 1106 185 1106 185 1134 212 c 128,-1,51
 1162 239 1162 239 1183 273 c 128,-1,52
 1204 307 1204 307 1216.5 337 c 128,-1,53
 1229 367 1229 367 1232 373 c 1,54,-1
 1450 290 l 1,55,56
 1385.34883721 63.7209302326 1385.34883721 63.7209302326 1208 -3.5 c 0,57,58
 1146 -27 1146 -27 1067 -27 c 0,59,60
 901.24 -27 901.24 -27 791 132 c 1,25,26
EndSplineSet
EndChar

StartChar: plusminus
Encoding: 177 177 114
Width: 866
Flags: HW
LayerCount: 2
Fore
SplineSet
142 239 m 1,0,-1
 718 239 l 1,1,-1
 718 1 l 1,2,-1
 142 1 l 1,3,-1
 142 239 l 1,0,-1
553 576 m 1,4,-1
 553 336 l 1,5,-1
 315 336 l 1,6,-1
 315 576 l 1,7,-1
 75 576 l 1,8,-1
 75 814 l 1,9,-1
 315 814 l 1,10,-1
 315 1054 l 1,11,-1
 553 1054 l 1,12,-1
 553 814 l 1,13,-1
 793 814 l 1,14,-1
 793 576 l 1,15,-1
 553 576 l 1,4,-1
EndSplineSet
EndChar

StartChar: bullet
Encoding: 8226 8226 115
Width: 818
Flags: HW
LayerCount: 2
Fore
SplineSet
160.866666667 963 m 128,-1,1
 249.733333333 1056 249.733333333 1056 410.85 1056 c 128,-1,2
 571.966666667 1056 571.966666667 1056 658.483333333 962.186746988 c 128,-1,3
 745 868.373493976 745 868.373493976 745 719.740963855 c 128,-1,4
 745 571.108433735 745 571.108433735 658.219101124 478.054216867 c 128,-1,5
 571.438202247 385 571.438202247 385 410.859550562 385 c 128,-1,6
 250.280898876 385 250.280898876 385 161.140449438 477.25 c 128,-1,7
 72 569.5 72 569.5 72 719.75 c 128,-1,0
 72 870 72 870 160.866666667 963 c 128,-1,1
EndSplineSet
EndChar

StartChar: copyright
Encoding: 169 169 116
Width: 1397
Flags: HW
LayerCount: 2
Fore
SplineSet
54 673 m 128,-1,1
 54 766 54 766 77 852 c 128,-1,2
 100 938 100 938 142 1013 c 0,3,4
 226.472972973 1163.84459459 226.472972973 1163.84459459 375.509213759 1254.9222973 c 128,-1,5
 524.545454545 1346 524.545454545 1346 699 1346 c 0,6,7
 963.459016393 1346 963.459016393 1346 1154 1149 c 0,8,9
 1273.65540725 1025.28847725 1273.65540725 1025.28847725 1320 852 c 0,10,11
 1343 766 1343 766 1343 673 c 128,-1,12
 1343 580 1343 580 1320 494 c 128,-1,13
 1297 408 1297 408 1255 333 c 0,14,15
 1170.8028169 182.647887324 1170.8028169 182.647887324 1022.40140845 91.323943662 c 128,-1,16
 874 6.39488462184e-14 874 6.39488462184e-14 699 0 c 0,17,18
 433.540983607 0 433.540983607 0 243 197 c 0,19,20
 123.344592754 320.711522746 123.344592754 320.711522746 77 494 c 0,21,0
 54 580 54 580 54 673 c 128,-1,1
187 673 m 128,-1,23
 187 449.079136691 187 449.079136691 337.5 291 c 1,24,25
 554.733511543 149.927117901 554.733511543 149.927117901 699 133 c 1,26,27
 909.075342466 133 909.075342466 133 1059.5 291 c 128,-1,28
 1210 449.079136691 1210 449.079136691 1210 673 c 128,-1,29
 1210 896.920863309 1210 896.920863309 1059.5 1055 c 128,-1,30
 909.075342466 1213 909.075342466 1213 698.5 1213 c 128,-1,31
 487.924657534 1213 487.924657534 1213 337.5 1055 c 128,-1,22
 187 896.920863309 187 896.920863309 187 673 c 128,-1,23
720 391 m 0,32,33
 814.0625 391 814.0625 391 827 598 c 1,34,-1
 995 582 l 1,35,36
 995 438.338028169 995 438.338028169 920.85106383 340.169014085 c 128,-1,37
 846.70212766 242 846.70212766 242 697.004909984 242 c 128,-1,38
 547.307692308 242 547.307692308 242 462.5 389 c 0,39,40
 391 512.933333333 391 512.933333333 391 682.98627451 c 128,-1,41
 391 853.039215686 391 853.039215686 462.5 968 c 0,42,43
 548.329268293 1106 548.329268293 1106 712 1106 c 0,44,45
 838.306122449 1106 838.306122449 1106 916.153061224 1001.49315068 c 128,-1,46
 994 896.98630137 994 896.98630137 994 763 c 1,47,-1
 803 755 l 1,48,49
 803 884.352941176 803 884.352941176 742 931 c 0,50,51
 725 944 725 944 700 944 c 0,52,53
 589 944 589 944 589 689 c 0,54,55
 589 554 589 554 607 498 c 128,-1,56
 625 442 625 442 651 416.5 c 128,-1,57
 677 391 677 391 720 391 c 0,32,33
EndSplineSet
EndChar

StartChar: registered
Encoding: 174 174 117
Width: 1397
Flags: HW
LayerCount: 2
Fore
SplineSet
700 731 m 2,0,1
 869 731 869 731 869 832 c 0,2,3
 869 894.755555556 869 894.755555556 826.818181818 915.377777778 c 128,-1,4
 784.636363636 936 784.636363636 936 695 936 c 2,5,-1
 667 936 l 1,6,-1
 667 731 l 1,7,-1
 700 731 l 2,0,1
468 1094 m 1,8,-1
 594 1094 l 2,9,10
 747 1094 747 1094 803 1087 c 0,11,12
 928.23857868 1071.34517766 928.23857868 1071.34517766 997.11928934 1014.27258883 c 128,-1,13
 1066 957.2 1066 957.2 1066 831 c 0,14,15
 1066 681.358974359 1066 681.358974359 933 628.5 c 0,16,17
 858.522979398 598.900158479 858.522979398 598.900158479 784.261489699 594.950079239 c 128,-1,18
 710 591 710 591 665 591 c 1,19,-1
 665 233 l 1,20,-1
 468 233 l 1,21,-1
 468 1094 l 1,8,-1
54 673 m 128,-1,23
 54 766 54 766 77 852 c 128,-1,24
 100 938 100 938 142 1013 c 0,25,26
 226.472972973 1163.84459459 226.472972973 1163.84459459 375.509213759 1254.9222973 c 128,-1,27
 524.545454545 1346 524.545454545 1346 699 1346 c 0,28,29
 963.459016393 1346 963.459016393 1346 1154 1149 c 0,30,31
 1273.65540725 1025.28847725 1273.65540725 1025.28847725 1320 852 c 0,32,33
 1343 766 1343 766 1343 673 c 128,-1,34
 1343 580 1343 580 1320 494 c 128,-1,35
 1297 408 1297 408 1255 333 c 0,36,37
 1170.8028169 182.647887324 1170.8028169 182.647887324 1022.40140845 91.323943662 c 128,-1,38
 874 6.39488462184e-14 874 6.39488462184e-14 699 0 c 0,39,40
 433.540983607 0 433.540983607 0 243 197 c 0,41,42
 123.344592754 320.711522746 123.344592754 320.711522746 77 494 c 0,43,22
 54 580 54 580 54 673 c 128,-1,23
187 673 m 128,-1,45
 187 449.079136691 187 449.079136691 337.5 291 c 1,46,47
 554.733511543 149.927117901 554.733511543 149.927117901 699 133 c 1,48,49
 909.075342466 133 909.075342466 133 1059.5 291 c 128,-1,50
 1210 449.079136691 1210 449.079136691 1210 673 c 128,-1,51
 1210 896.920863309 1210 896.920863309 1059.5 1055 c 128,-1,52
 909.075342466 1213 909.075342466 1213 698.5 1213 c 128,-1,53
 487.924657534 1213 487.924657534 1213 337.5 1055 c 128,-1,44
 187 896.920863309 187 896.920863309 187 673 c 128,-1,45
EndSplineSet
EndChar

StartChar: florin
Encoding: 402 402 118
Width: 704
Flags: HW
LayerCount: 2
Fore
SplineSet
310 1514 m 128,-1,1
 368 1546 368 1546 483.75 1546 c 128,-1,2
 599.5 1546 599.5 1546 667 1516 c 1,3,-1
 667 1344 l 1,4,-1
 604 1344 l 2,5,6
 489.806451613 1344 489.806451613 1344 477.5 1235 c 0,7,8
 474 1204 474 1204 474 1173 c 2,9,-1
 474 864 l 1,10,-1
 665 864 l 1,11,-1
 665 627 l 1,12,-1
 474 627 l 1,13,-1
 474 -22 l 2,14,15
 474 -92 474 -92 468.5 -158.5 c 0,16,17
 449.022556391 -394 449.022556391 -394 188 -394 c 0,18,19
 53 -394 53 -394 -7 -364 c 1,20,-1
 -7 -192 l 1,21,-1
 56 -192 l 2,22,23
 170.049180328 -192 170.049180328 -192 182.5 -83.5 c 0,24,25
 186 -53 186 -53 186 -21 c 2,26,-1
 186 629 l 1,27,-1
 44 629 l 1,28,-1
 44 864 l 1,29,-1
 186 864 l 1,30,-1
 186 1174 l 2,31,32
 186 1244 186 1244 191.5 1310.5 c 128,-1,33
 197 1377 197 1377 224.5 1429.5 c 128,-1,0
 252 1482 252 1482 310 1514 c 128,-1,1
EndSplineSet
EndChar

StartChar: ae
Encoding: 230 230 119
Width: 1457
Flags: HW
LayerCount: 2
Fore
SplineSet
1124 702 m 1,0,1
 1124 890.215686275 1124 890.215686275 1051.5 948.5 c 0,2,3
 1026 969 1026 969 994.5 969 c 0,4,5
 936.367647059 969 936.367647059 969 893.657102297 894.53033221 c 128,-1,6
 850.946557535 820.06066442 850.946557535 820.06066442 849 713 c 1,7,-1
 849 702 l 1,8,-1
 1124 702 l 1,0,1
561 568 m 1,9,10
 336 568 336 568 336 331 c 0,11,12
 336 179 336 179 450 179 c 0,13,14
 495.862068966 179 495.862068966 179 528.431034483 241.966666667 c 128,-1,15
 561 304.933333333 561 304.933333333 561 382 c 2,16,-1
 561 568 l 1,9,10
1407 570 m 1,17,18
 1399 542 1399 542 1399 536 c 1,19,-1
 849 536 l 1,20,21
 849 314.055555556 849 314.055555556 923 219.5 c 0,22,23
 950 185 950 185 986.5 185 c 128,-1,24
 1023 185 1023 185 1051 212 c 128,-1,25
 1079 239 1079 239 1100 273 c 128,-1,26
 1121 307 1121 307 1133.5 337 c 128,-1,27
 1146 367 1146 367 1149 373 c 1,28,-1
 1367 290 l 1,29,30
 1302.34883721 63.7209302326 1302.34883721 63.7209302326 1125 -3.5 c 0,31,32
 1063 -27 1063 -27 984 -27 c 0,33,34
 818.555555556 -27 818.555555556 -27 713 144 c 1,35,36
 624.08 -27 624.08 -27 365 -27 c 0,37,38
 225.189473684 -27 225.189473684 -27 139.594736842 73.3888888889 c 128,-1,39
 54 173.777777778 54 173.777777778 54 327 c 0,40,41
 54 605.690265487 54 605.690265487 340.5 699.5 c 0,42,43
 442.469225678 732.888153541 442.469225678 732.888153541 561 740 c 1,44,45
 561 849.375 561 849.375 552 883.6875 c 1,46,47
 519.270930355 942.559122291 519.270930355 942.559122291 478 956 c 1,48,49
 390.956521739 956 390.956521739 956 374 826 c 1,50,-1
 94 875 l 1,51,52
 114.181807456 1032.78504011 114.181807456 1032.78504011 234.5 1107 c 0,53,54
 331.772727273 1167 331.772727273 1167 482.386363636 1167 c 128,-1,55
 633 1167 633 1167 723 1032 c 1,56,57
 838.714285714 1167 838.714285714 1167 994 1167 c 0,58,59
 1193.73417722 1167 1193.73417722 1167 1300.36708861 1005 c 128,-1,60
 1407 843 1407 843 1407 570 c 1,17,18
EndSplineSet
EndChar

StartChar: paragraph
Encoding: 182 182 120
Width: 1152
Flags: HW
LayerCount: 2
Fore
SplineSet
719 764 m 1,0,1
 625.5 764 625.5 764 567 770 c 1,2,-1
 567 0 l 1,3,-1
 335 0 l 1,4,-1
 335 801 l 1,5,6
 47 879.967741935 47 879.967741935 47 1148.53942652 c 0,7,8
 47 1417.11111111 47 1417.11111111 322 1493.5 c 0,9,10
 469.221258134 1534.39479393 469.221258134 1534.39479393 620.110629067 1535.19739696 c 128,-1,11
 771 1536 771 1536 859 1536 c 2,12,-1
 1095 1536 l 1,13,-1
 1095 1288 l 1,14,-1
 951 1288 l 1,15,-1
 951 0 l 1,16,-1
 719 0 l 1,17,-1
 719 764 l 1,0,1
EndSplineSet
EndChar

StartChar: question
Encoding: 63 63 121
Width: 885
Flags: HW
LayerCount: 2
Fore
SplineSet
458 288 m 1,0,-1
 458 0 l 1,1,-1
 170 -12 l 1,2,-1
 170 288 l 1,3,-1
 458 288 l 1,0,-1
547 1105 m 0,4,5
 547 1318 547 1318 431 1318 c 0,6,7
 349.104477612 1318 349.104477612 1318 330.5 1179.5 c 0,8,9
 326 1146 326 1146 323 1121 c 1,10,-1
 50 1133 l 1,11,12
 56.0207774799 1315.63025022 56.0207774799 1315.63025022 162.828570558 1430.81512511 c 128,-1,13
 269.636363636 1546 269.636363636 1546 450.884588068 1546 c 128,-1,14
 632.1328125 1546 632.1328125 1546 734.06640625 1411.48969072 c 128,-1,15
 836 1276.97938144 836 1276.97938144 836 1095 c 0,16,17
 836 864.305555556 836 864.305555556 709 762 c 0,18,19
 673 733 673 733 635.5 708 c 128,-1,20
 598 683 598 683 562 658.5 c 0,21,22
 435 572.069444444 435 572.069444444 435 396 c 2,23,-1
 435 384 l 1,24,-1
 195 384 l 1,25,26
 190.356051836 434.619034986 190.356051836 434.619034986 190.356051836 479.619578182 c 0,27,28
 190.356051836 681.15500329 190.356051836 681.15500329 283.5 770 c 0,29,30
 330.707462687 815.028656716 330.707462687 815.028656716 393.853731343 852.014328358 c 128,-1,31
 457 889 457 889 484.5 919 c 0,32,33
 547 987.181818182 547 987.181818182 547 1105 c 0,4,5
EndSplineSet
EndChar

StartChar: breve
Encoding: 728 728 122
Width: 1018
Flags: HW
LayerCount: 2
Fore
SplineSet
317 1728 m 1,0,1
 317 1620 317 1620 338 1578 c 128,-1,2
 359 1536 359 1536 398 1512 c 128,-1,3
 437 1488 437 1488 509 1488 c 0,4,5
 635 1488 635 1488 677 1572 c 0,6,7
 701 1620 701 1620 701 1728 c 1,8,-1
 941 1728 l 1,9,10
 941 1554.5 941 1554.5 851 1419.5 c 0,11,12
 736.666666667 1248 736.666666667 1248 509 1248 c 128,-1,13
 281.333333333 1248 281.333333333 1248 167 1419.5 c 0,14,15
 77 1554.5 77 1554.5 77 1728 c 1,16,-1
 317 1728 l 1,0,1
EndSplineSet
EndChar

StartChar: ogonek
Encoding: 731 731 123
Width: 544
Flags: HW
LayerCount: 2
Fore
SplineSet
517 -321 m 1,0,1
 457.129032258 -385 457.129032258 -385 310.088325653 -385 c 0,2,3
 163.047619048 -385 163.047619048 -385 103.5 -293.5 c 0,4,5
 83 -262 83 -262 83 -226.25 c 0,6,7
 83 -190.5 83 -190.5 100 -148 c 1,8,-1
 162 20 l 1,9,-1
 324 20 l 1,10,-1
 294 -101 l 2,11,12
 289 -119 289 -119 289 -130 c 0,13,14
 289 -191 289 -191 364.5 -191 c 128,-1,15
 440 -191 440 -191 517 -156 c 1,16,-1
 517 -321 l 1,0,1
EndSplineSet
EndChar

StartChar: cedilla
Encoding: 184 184 124
Width: 551
Flags: HW
LayerCount: 2
Fore
SplineSet
286 -76 m 1,0,1
 522 -141.770491803 522 -141.770491803 522 -353.958333333 c 0,2,3
 522 -449.8 522 -449.8 460.730769231 -502.9 c 128,-1,4
 399.461538462 -556 399.461538462 -556 284.075596817 -556 c 128,-1,5
 168.689655172 -556 168.689655172 -556 76 -492 c 1,6,-1
 76 -327 l 1,7,8
 155.2 -363 155.2 -363 213.6 -363 c 128,-1,9
 272 -363 272 -363 294 -341 c 128,-1,10
 316 -319 316 -319 316 -294 c 0,11,12
 316 -242.914893617 316 -242.914893617 266.294117647 -206.957446809 c 128,-1,13
 216.588235294 -171 216.588235294 -171 124 -171 c 1,14,-1
 164 48 l 1,15,-1
 316 48 l 1,16,-1
 286 -76 l 1,0,1
EndSplineSet
EndChar

StartChar: dagger
Encoding: 8224 8224 127
Width: 768
Flags: HW
LayerCount: 2
Fore
SplineSet
264 1152 m 1,0,-1
 264 1428 l 1,1,-1
 504 1440 l 1,2,-1
 504 1152 l 1,3,-1
 720 1152 l 1,4,-1
 708 960 l 1,5,-1
 504 960 l 1,6,-1
 504 192 l 1,7,-1
 264 180 l 1,8,-1
 264 960 l 1,9,-1
 48 960 l 1,10,-1
 60 1152 l 1,11,-1
 264 1152 l 1,0,-1
EndSplineSet
EndChar

StartChar: daggerdbl
Encoding: 8225 8225 128
Width: 822
Flags: HW
LayerCount: 2
Fore
SplineSet
292 1152 m 1,0,-1
 292 1428 l 1,1,-1
 532 1440 l 1,2,-1
 532 1152 l 1,3,-1
 748 1152 l 1,4,-1
 736 960 l 1,5,-1
 532 960 l 1,6,-1
 532 672 l 1,7,-1
 748 672 l 1,8,-1
 736 480 l 1,9,-1
 532 480 l 1,10,-1
 532 192 l 1,11,-1
 292 180 l 1,12,-1
 292 480 l 1,13,-1
 76 480 l 1,14,-1
 88 672 l 1,15,-1
 292 672 l 1,16,-1
 292 960 l 1,17,-1
 76 960 l 1,18,-1
 88 1152 l 1,19,-1
 292 1152 l 1,0,-1
EndSplineSet
EndChar

StartChar: sterling
Encoding: 163 163 129
Width: 914
Flags: HW
LayerCount: 2
Fore
SplineSet
576 322 m 0,0,1
 700 322 700 322 843 231 c 1,2,-1
 843 10 l 1,3,-1
 801 -2 l 1,4,5
 698.90625 97 698.90625 97 563 97 c 0,6,7
 476.317073171 97 476.317073171 97 362 42.5 c 0,8,9
 319 22 319 22 282 5 c 128,-1,10
 245 -12 245 -12 211 -12 c 0,11,12
 141.307692308 -12 141.307692308 -12 97 36 c 1,13,-1
 97 226 l 1,14,15
 246 274.511627907 246 274.511627907 246 591 c 0,16,17
 246 613.181568611 246 613.181568611 244.180392063 636 c 1,18,-1
 105 636 l 1,19,-1
 105 827 l 1,20,-1
 206.546732548 827 l 1,21,22
 193.366567132 875.046600429 193.366567132 875.046600429 176.683283566 926.023300215 c 128,-1,23
 160 977 160 977 135 1060.33333333 c 0,24,25
 110 1143.66666667 110 1143.66666667 110 1213.83333333 c 128,-1,26
 110 1284 110 1284 143 1351.5 c 128,-1,27
 176 1419 176 1419 228.5 1466.5 c 0,28,29
 336.263157895 1564 336.263157895 1564 482 1564 c 0,30,31
 702.36 1564 702.36 1564 804 1382.5 c 0,32,33
 839 1320 839 1320 851 1233 c 1,34,-1
 619 1145 l 1,35,36
 619 1240 619 1240 584 1285.5 c 128,-1,37
 549 1331 549 1331 503.5 1331 c 0,38,39
 404 1331 404 1331 404 1179 c 0,40,41
 404 1108 404 1108 427.5 1042.5 c 128,-1,42
 451 977 451 977 473.998141258 923.611457795 c 128,-1,43
 496.996282515 870.22291559 496.996282515 870.22291559 513.133639227 827 c 1,44,-1
 701 827 l 1,45,-1
 701 636 l 1,46,-1
 553.984501199 636 l 1,47,48
 554 634.003132736 554 634.003132736 554 632 c 0,49,50
 554 469.164179104 554 469.164179104 435 288 c 1,51,52
 504 322 504 322 576 322 c 0,0,1
EndSplineSet
EndChar

StartChar: tilde
Encoding: 732 732 130
Width: 860
Flags: HW
LayerCount: 2
Fore
SplineSet
300 1331 m 0,0,1
 222.285714286 1331 222.285714286 1331 133 1231 c 1,2,-1
 118 1415 l 1,3,4
 225.647058824 1537 225.647058824 1537 311 1537 c 0,5,6
 365.833333333 1537 365.833333333 1537 419.916666667 1509.5 c 128,-1,7
 474 1482 474 1482 502 1469.5 c 128,-1,8
 530 1457 530 1457 562 1457 c 0,9,10
 656.454545455 1457 656.454545455 1457 711 1537 c 1,11,-1
 755 1375 l 2,12,13
 755 1374 755 1374 742 1351 c 128,-1,14
 729 1328 729 1328 704.5 1301 c 0,15,16
 640.074074074 1230 640.074074074 1230 564 1230 c 0,17,18
 528 1230 528 1230 498.5 1246 c 128,-1,19
 469 1262 469 1262 439 1280.5 c 128,-1,20
 409 1299 409 1299 376 1315 c 128,-1,21
 343 1331 343 1331 300 1331 c 0,0,1
EndSplineSet
EndChar

StartChar: ellipsis
Encoding: 8230 8230 131
Width: 1633
Flags: HW
LayerCount: 2
Fore
SplineSet
1534 288 m 1,0,-1
 1534 12 l 1,1,-1
 1246 -12 l 1,2,-1
 1246 288 l 1,3,-1
 1534 288 l 1,0,-1
962 288 m 1,4,-1
 962 12 l 1,5,-1
 674 -12 l 1,6,-1
 674 288 l 1,7,-1
 962 288 l 1,4,-1
390 288 m 1,8,-1
 390 12 l 1,9,-1
 102 -12 l 1,10,-1
 102 288 l 1,11,-1
 390 288 l 1,8,-1
EndSplineSet
EndChar

StartChar: quotesinglbase
Encoding: 8218 8218 132
Width: 489
Flags: HW
LayerCount: 2
Fore
SplineSet
388 288 m 1,0,-1
 388 0 l 2,1,2
 388 -181.090909091 388 -181.090909091 268 -252 c 0,3,4
 215 -284 215 -284 148 -288 c 1,5,-1
 148 -96 l 1,6,7
 208 -96 208 -96 232 -48 c 0,8,9
 243 -27 243 -27 244 0 c 1,10,-1
 100 0 l 1,11,-1
 100 288 l 1,12,-1
 388 288 l 1,0,-1
EndSplineSet
EndChar

StartChar: at
Encoding: 64 64 133
Width: 1578
Flags: HW
LayerCount: 2
Fore
SplineSet
924 844 m 1,0,1
 858 911 858 911 805.236363636 911 c 128,-1,2
 752.472727273 911 752.472727273 911 720.236363636 853.806451613 c 128,-1,3
 688 796.612903226 688 796.612903226 688 724.306451613 c 0,4,5
 688 608.90625 688 608.90625 721.329787234 559.953125 c 128,-1,6
 754.659574468 511 754.659574468 511 795.329787234 511 c 0,7,8
 880 511 880 511 924 625 c 1,9,-1
 924 844 l 1,0,1
1277 124 m 1,10,11
 993.888888889 -32 993.888888889 -32 753 -32 c 0,12,13
 415.082051282 -32 415.082051282 -32 225 183.5 c 0,14,15
 55 376.23255814 55 376.23255814 55 675.454740608 c 128,-1,16
 55 974.676923077 55 974.676923077 252 1203.5 c 0,17,18
 385.312721982 1358.34785399 385.312721982 1358.34785399 591.5 1420.5 c 0,19,20
 696 1452 696 1452 801.5 1452 c 128,-1,21
 907 1452 907 1452 994 1433 c 128,-1,22
 1081 1414 1081 1414 1159.5 1376 c 0,23,24
 1326.00658303 1295.39808719 1326.00658303 1295.39808719 1426.00329152 1142.34190074 c 128,-1,25
 1526 989.285714286 1526 989.285714286 1526 775 c 0,26,27
 1526 469.41322314 1526 469.41322314 1337.5 377.5 c 0,28,29
 1277 348 1277 348 1191.578125 348 c 128,-1,30
 1106.15625 348 1106.15625 348 1040 421 c 0,31,32
 1011 453 1011 453 994 510 c 1,33,34
 893.085106383 324 893.085106383 324 739 324 c 0,35,36
 621.569892473 324 621.569892473 324 537.784946237 421.4 c 128,-1,37
 454 518.8 454 518.8 454 700.798734177 c 128,-1,38
 454 882.797468354 454 882.797468354 536.196629213 975.398734177 c 128,-1,39
 618.393258427 1068 618.393258427 1068 729.16471432 1068 c 128,-1,40
 839.936170213 1068 839.936170213 1068 915 994.5 c 0,41,42
 939 971 939 971 954 941 c 1,43,-1
 990 1050 l 1,44,-1
 1147 1050 l 1,45,-1
 1147 581 l 2,46,47
 1147 469 1147 469 1210 469 c 0,48,49
 1336 469 1336 469 1336 775 c 0,50,51
 1336 1008.87591241 1336 1008.87591241 1194.96694215 1133.4379562 c 128,-1,52
 1053.9338843 1258 1053.9338843 1258 809.199085006 1258 c 128,-1,53
 564.464285714 1258 564.464285714 1258 421.732142857 1080.37777778 c 128,-1,54
 279 902.755555556 279 902.755555556 279 678.419444444 c 128,-1,55
 279 454.083333333 279 454.083333333 404.413793103 302.541666667 c 128,-1,56
 529.827586207 151 529.827586207 151 769 151 c 0,57,58
 955.15625 151 955.15625 151 1205 274 c 1,59,-1
 1277 124 l 1,10,11
EndSplineSet
EndChar

StartChar: quotesingle
Encoding: 39 39 134
Width: 451
Flags: HW
LayerCount: 2
Fore
SplineSet
370 1536 m 1,0,-1
 322 960 l 1,1,-1
 130 948 l 1,2,-1
 82 1536 l 1,3,-1
 370 1536 l 1,0,-1
EndSplineSet
EndChar

StartChar: quotedbl
Encoding: 34 34 135
Width: 836
Flags: HW
LayerCount: 2
Fore
SplineSet
754 1536 m 1,0,-1
 706 960 l 1,1,-1
 514 948 l 1,2,-1
 466 1536 l 1,3,-1
 754 1536 l 1,0,-1
370 1536 m 1,4,-1
 322 960 l 1,5,-1
 130 948 l 1,6,-1
 82 1536 l 1,7,-1
 370 1536 l 1,4,-1
EndSplineSet
EndChar

StartChar: numbersign
Encoding: 35 35 136
Width: 1283
Flags: HW
LayerCount: 2
Fore
SplineSet
544 622 m 1,0,-1
 730 622 l 1,1,-1
 774 960 l 1,2,-1
 588 960 l 1,3,-1
 544 622 l 1,0,-1
112 1198 m 1,4,-1
 319 1198 l 1,5,-1
 364 1536 l 1,6,-1
 664 1536 l 1,7,-1
 619 1198 l 1,8,-1
 805 1198 l 1,9,-1
 850 1536 l 1,10,-1
 1150 1536 l 1,11,-1
 1105 1198 l 1,12,-1
 1219 1198 l 1,13,-1
 1219 960 l 1,14,-1
 1074 960 l 1,15,-1
 1030 622 l 1,16,-1
 1171 622 l 1,17,-1
 1171 384 l 1,18,-1
 999 384 l 1,19,-1
 949 0 l 1,20,-1
 649 0 l 1,21,-1
 699 384 l 1,22,-1
 513 384 l 1,23,-1
 463 0 l 1,24,-1
 163 0 l 1,25,-1
 213 384 l 1,26,-1
 64 384 l 1,27,-1
 64 622 l 1,28,-1
 244 622 l 1,29,-1
 288 960 l 1,30,-1
 112 960 l 1,31,-1
 112 1198 l 1,4,-1
EndSplineSet
EndChar

StartChar: asterisk
Encoding: 42 42 137
Width: 1051
Flags: HW
LayerCount: 2
Fore
SplineSet
657 1392 m 1,0,-1
 606 1030 l 1,1,-1
 922 1182 l 1,2,-1
 1002 909 l 1,3,-1
 652 855 l 1,4,-1
 914 595 l 1,5,-1
 687 428 l 1,6,-1
 526 748 l 1,7,-1
 365 428 l 1,8,-1
 138 595 l 1,9,-1
 400 855 l 1,10,-1
 50 909 l 1,11,-1
 130 1182 l 1,12,-1
 446 1030 l 1,13,-1
 395 1392 l 1,14,-1
 657 1392 l 1,0,-1
EndSplineSet
EndChar

StartChar: dotlessi
Encoding: 305 305 138
Width: 536
Flags: HW
LayerCount: 2
Fore
SplineSet
124 1128 m 1,0,-1
 412 1152 l 1,1,-1
 412 12 l 1,2,-1
 124 -12 l 1,3,-1
 124 1128 l 1,0,-1
EndSplineSet
EndChar

StartChar: equal
Encoding: 61 61 139
Width: 804
Flags: HW
LayerCount: 2
Fore
SplineSet
114 910 m 1,0,-1
 690 910 l 1,1,-1
 690 672 l 1,2,-1
 114 672 l 1,3,-1
 114 910 l 1,0,-1
114 526 m 1,4,-1
 690 526 l 1,5,-1
 690 288 l 1,6,-1
 114 288 l 1,7,-1
 114 526 l 1,4,-1
EndSplineSet
EndChar

StartChar: braceleft
Encoding: 123 123 140
Width: 674
Flags: HW
LayerCount: 2
Fore
SplineSet
162 278 m 128,-1,1
 141 397 141 397 141 486 c 128,-1,2
 141 575 141 575 139.5 600 c 0,3,4
 133.92 693 133.92 693 45 693 c 1,5,-1
 45 882 l 1,6,7
 133.92 882 133.92 882 139.5 975 c 0,8,9
 141 1000 141 1000 141 1085.5 c 128,-1,10
 141 1171 141 1171 162 1284.5 c 128,-1,11
 183 1398 183 1398 237 1475 c 0,12,13
 347.103896104 1632 347.103896104 1632 621 1632 c 1,14,-1
 621 1470 l 1,15,16
 549 1470 549 1470 510 1443 c 128,-1,17
 471 1416 471 1416 453 1360.5 c 128,-1,18
 435 1305 435 1305 432 1221 c 128,-1,19
 429 1137 429 1137 429 1065.5 c 128,-1,20
 429 994 429 994 426 962.5 c 0,21,22
 415.177838577 848.867305062 415.177838577 848.867305062 237 787 c 1,23,24
 415.032786885 727.655737705 415.032786885 727.655737705 426 612.5 c 0,25,26
 429 581 429 581 429 505.5 c 128,-1,27
 429 430 429 430 432 340.5 c 128,-1,28
 435 251 435 251 453 192 c 128,-1,29
 471 133 471 133 510 104 c 128,-1,30
 549 75 549 75 621 75 c 1,31,-1
 621 -87 l 1,32,33
 347 -87 347 -87 237 78 c 0,34,0
 183 159 183 159 162 278 c 128,-1,1
EndSplineSet
EndChar

StartChar: braceright
Encoding: 125 125 141
Width: 673
Flags: HW
LayerCount: 2
Fore
SplineSet
533.5 600 m 0,0,1
 532 575 532 575 532 486 c 128,-1,2
 532 397 532 397 511 278 c 128,-1,3
 490 159 490 159 436 78 c 0,4,5
 326 -87 326 -87 52 -87 c 1,6,-1
 52 75 l 1,7,8
 124 75 124 75 163 104 c 128,-1,9
 202 133 202 133 220 192 c 128,-1,10
 238 251 238 251 241 340.5 c 128,-1,11
 244 430 244 430 244 505.5 c 128,-1,12
 244 581 244 581 247 612.5 c 0,13,14
 257.967213115 727.655737705 257.967213115 727.655737705 436 787 c 1,15,16
 257.822161423 848.867305062 257.822161423 848.867305062 247 962.5 c 0,17,18
 244 994 244 994 244 1065.5 c 128,-1,19
 244 1137 244 1137 241 1221 c 128,-1,20
 238 1305 238 1305 220 1360.5 c 128,-1,21
 202 1416 202 1416 163 1443 c 128,-1,22
 124 1470 124 1470 52 1470 c 1,23,-1
 52 1632 l 1,24,25
 325.896103896 1632 325.896103896 1632 436 1475 c 0,26,27
 532 1338.11111111 532 1338.11111111 532 1024 c 0,28,29
 532 957 532 957 542.5 932.5 c 0,30,31
 564.142857143 882 564.142857143 882 628 882 c 1,32,-1
 628 693 l 1,33,34
 539.08 693 539.08 693 533.5 600 c 0,0,1
EndSplineSet
EndChar

StartChar: mu
Encoding: 181 181 144
Width: 1099
Flags: HW
LayerCount: 2
Fore
SplineSet
704 135 m 1,0,1
 520.640722962 42.5295846395 520.640722962 42.5295846395 479.190867324 42.5295846395 c 0,2,3
 476.234472962 42.5295846395 476.234472962 42.5295846395 459.617236481 42.7647923197 c 0,4,5
 443 43 443 43 416 46 c 1,6,-1
 416 -192 l 1,7,-1
 128 -204 l 1,8,-1
 128 1128 l 1,9,-1
 416 1152 l 1,10,-1
 416 381 l 2,11,12
 416 228 416 228 511 228 c 0,13,14
 566.352941176 228 566.352941176 228 704 318 c 1,15,-1
 704 1128 l 1,16,-1
 992 1152 l 1,17,-1
 992 12 l 1,18,-1
 704 -12 l 1,19,-1
 704 135 l 1,0,1
EndSplineSet
EndChar

StartChar: ordmasculine
Encoding: 186 186 145
Width: 951
Flags: HW
LayerCount: 2
Fore
SplineSet
184.976635514 473.25 m 128,-1,1
 84 583.5 84 583.5 84 765 c 128,-1,2
 84 946.5 84 946.5 184.976635514 1056.75 c 128,-1,3
 285.953271028 1167 285.953271028 1167 474.219626168 1167 c 128,-1,4
 662.485981308 1167 662.485981308 1167 765.242990654 1055.93939394 c 128,-1,5
 868 944.878787879 868 944.878787879 868 765 c 128,-1,6
 868 585.121212121 868 585.121212121 765.242990654 474.060606061 c 128,-1,7
 662.485981308 363 662.485981308 363 474.219626168 363 c 128,-1,0
 285.953271028 363 285.953271028 363 184.976635514 473.25 c 128,-1,1
331 795 m 0,8,9
 331 634.716981132 331 634.716981132 411.5 577 c 0,10,11
 438.716216216 557.486486486 438.716216216 557.486486486 474.72972973 557.486486486 c 128,-1,12
 510.743243243 557.486486486 510.743243243 557.486486486 537.871621622 575.243243243 c 128,-1,13
 565 593 565 593 583 623 c 128,-1,14
 601 653 601 653 610 691 c 128,-1,15
 619 729 619 729 619 769 c 128,-1,16
 619 809 619 809 610 847.5 c 128,-1,17
 601 886 601 886 583 916.5 c 128,-1,18
 565 947 565 947 538 965.5 c 128,-1,19
 511 984 511 984 475 984 c 0,20,21
 406.6 984 406.6 984 368.8 921 c 128,-1,22
 331 858 331 858 331 795 c 0,8,9
EndSplineSet
EndChar

StartChar: percent
Encoding: 37 37 146
Width: 2096
Flags: HW
LayerCount: 2
Fore
SplineSet
1096 1536 m 1,0,-1
 1372 1536 l 1,1,-1
 979 0 l 1,2,-1
 703 0 l 1,3,-1
 1096 1536 l 1,0,-1
1365.97663551 109.25 m 128,-1,5
 1265 219.5 1265 219.5 1265 401 c 128,-1,6
 1265 582.5 1265 582.5 1365.97663551 692.75 c 128,-1,7
 1466.95327103 803 1466.95327103 803 1655.21962617 803 c 128,-1,8
 1843.48598131 803 1843.48598131 803 1946.24299065 691.939393939 c 128,-1,9
 2049 580.878787879 2049 580.878787879 2049 401 c 128,-1,10
 2049 221.121212121 2049 221.121212121 1946.24299065 110.060606061 c 128,-1,11
 1843.48598131 -1 1843.48598131 -1 1655.21962617 -1 c 128,-1,4
 1466.95327103 -1 1466.95327103 -1 1365.97663551 109.25 c 128,-1,5
1512 431 m 0,12,13
 1512 270.716981132 1512 270.716981132 1592.5 213 c 0,14,15
 1619.71621622 193.486486486 1619.71621622 193.486486486 1655.72972973 193.486486486 c 128,-1,16
 1691.74324324 193.486486486 1691.74324324 193.486486486 1718.87162162 211.243243243 c 128,-1,17
 1746 229 1746 229 1764 259 c 128,-1,18
 1782 289 1782 289 1791 327 c 128,-1,19
 1800 365 1800 365 1800 405 c 128,-1,20
 1800 445 1800 445 1791 483.5 c 128,-1,21
 1782 522 1782 522 1764 552.5 c 128,-1,22
 1746 583 1746 583 1719 601.5 c 128,-1,23
 1692 620 1692 620 1656 620 c 0,24,25
 1587.6 620 1587.6 620 1549.8 557 c 128,-1,26
 1512 494 1512 494 1512 431 c 0,12,13
147.976635514 842.25 m 128,-1,28
 47 952.5 47 952.5 47 1134 c 128,-1,29
 47 1315.5 47 1315.5 147.976635514 1425.75 c 128,-1,30
 248.953271028 1536 248.953271028 1536 437.219626168 1536 c 128,-1,31
 625.485981308 1536 625.485981308 1536 728.242990654 1424.93939394 c 128,-1,32
 831 1313.87878788 831 1313.87878788 831 1134 c 128,-1,33
 831 954.121212121 831 954.121212121 728.242990654 843.060606061 c 128,-1,34
 625.485981308 732 625.485981308 732 437.219626168 732 c 128,-1,27
 248.953271028 732 248.953271028 732 147.976635514 842.25 c 128,-1,28
294 1164 m 0,35,36
 294 1003.71698113 294 1003.71698113 374.5 946 c 0,37,38
 401.716216216 926.486486486 401.716216216 926.486486486 437.72972973 926.486486486 c 128,-1,39
 473.743243243 926.486486486 473.743243243 926.486486486 500.871621622 944.243243243 c 128,-1,40
 528 962 528 962 546 992 c 128,-1,41
 564 1022 564 1022 573 1060 c 128,-1,42
 582 1098 582 1098 582 1138 c 128,-1,43
 582 1178 582 1178 573 1216.5 c 128,-1,44
 564 1255 564 1255 546 1285.5 c 128,-1,45
 528 1316 528 1316 501 1334.5 c 128,-1,46
 474 1353 474 1353 438 1353 c 0,47,48
 369.6 1353 369.6 1353 331.8 1290 c 128,-1,49
 294 1227 294 1227 294 1164 c 0,35,36
EndSplineSet
EndChar

StartChar: perthousand
Encoding: 8240 8240 147
Width: 2997
Flags: HW
LayerCount: 2
Fore
SplineSet
1365.97663551 109.25 m 128,-1,1
 1265 219.5 1265 219.5 1265 401 c 128,-1,2
 1265 582.5 1265 582.5 1365.97663551 692.75 c 128,-1,3
 1466.95327103 803 1466.95327103 803 1655.21962617 803 c 128,-1,4
 1843.48598131 803 1843.48598131 803 1946.24299065 691.939393939 c 128,-1,5
 2049 580.878787879 2049 580.878787879 2049 401 c 128,-1,6
 2049 221.121212121 2049 221.121212121 1946.24299065 110.060606061 c 128,-1,7
 1843.48598131 -1 1843.48598131 -1 1655.21962617 -1 c 128,-1,0
 1466.95327103 -1 1466.95327103 -1 1365.97663551 109.25 c 128,-1,1
1512 431 m 0,8,9
 1512 270.716981132 1512 270.716981132 1592.5 213 c 0,10,11
 1619.71621622 193.486486486 1619.71621622 193.486486486 1655.72972973 193.486486486 c 128,-1,12
 1691.74324324 193.486486486 1691.74324324 193.486486486 1718.87162162 211.243243243 c 128,-1,13
 1746 229 1746 229 1764 259 c 128,-1,14
 1782 289 1782 289 1791 327 c 128,-1,15
 1800 365 1800 365 1800 405 c 128,-1,16
 1800 445 1800 445 1791 483.5 c 128,-1,17
 1782 522 1782 522 1764 552.5 c 128,-1,18
 1746 583 1746 583 1719 601.5 c 128,-1,19
 1692 620 1692 620 1656 620 c 0,20,21
 1587.6 620 1587.6 620 1549.8 557 c 128,-1,22
 1512 494 1512 494 1512 431 c 0,8,9
1096 1536 m 1,23,-1
 1372 1536 l 1,24,-1
 979 0 l 1,25,-1
 703 0 l 1,26,-1
 1096 1536 l 1,23,-1
2266.97663551 109.25 m 128,-1,28
 2166 219.5 2166 219.5 2166 401 c 128,-1,29
 2166 582.5 2166 582.5 2266.97663551 692.75 c 128,-1,30
 2367.95327103 803 2367.95327103 803 2556.21962617 803 c 128,-1,31
 2744.48598131 803 2744.48598131 803 2847.24299065 691.939393939 c 128,-1,32
 2950 580.878787879 2950 580.878787879 2950 401 c 128,-1,33
 2950 221.121212121 2950 221.121212121 2847.24299065 110.060606061 c 128,-1,34
 2744.48598131 -1 2744.48598131 -1 2556.21962617 -1 c 128,-1,27
 2367.95327103 -1 2367.95327103 -1 2266.97663551 109.25 c 128,-1,28
2413 431 m 0,35,36
 2413 270.716981132 2413 270.716981132 2493.5 213 c 0,37,38
 2520.71621622 193.486486486 2520.71621622 193.486486486 2556.72972973 193.486486486 c 128,-1,39
 2592.74324324 193.486486486 2592.74324324 193.486486486 2619.87162162 211.243243243 c 128,-1,40
 2647 229 2647 229 2665 259 c 128,-1,41
 2683 289 2683 289 2692 327 c 128,-1,42
 2701 365 2701 365 2701 405 c 128,-1,43
 2701 445 2701 445 2692 483.5 c 128,-1,44
 2683 522 2683 522 2665 552.5 c 128,-1,45
 2647 583 2647 583 2620 601.5 c 128,-1,46
 2593 620 2593 620 2557 620 c 0,47,48
 2488.6 620 2488.6 620 2450.8 557 c 128,-1,49
 2413 494 2413 494 2413 431 c 0,35,36
147.976635514 842.25 m 128,-1,51
 47 952.5 47 952.5 47 1134 c 128,-1,52
 47 1315.5 47 1315.5 147.976635514 1425.75 c 128,-1,53
 248.953271028 1536 248.953271028 1536 437.219626168 1536 c 128,-1,54
 625.485981308 1536 625.485981308 1536 728.242990654 1424.93939394 c 128,-1,55
 831 1313.87878788 831 1313.87878788 831 1134 c 128,-1,56
 831 954.121212121 831 954.121212121 728.242990654 843.060606061 c 128,-1,57
 625.485981308 732 625.485981308 732 437.219626168 732 c 128,-1,50
 248.953271028 732 248.953271028 732 147.976635514 842.25 c 128,-1,51
294 1164 m 0,58,59
 294 1003.71698113 294 1003.71698113 374.5 946 c 0,60,61
 401.716216216 926.486486486 401.716216216 926.486486486 437.72972973 926.486486486 c 128,-1,62
 473.743243243 926.486486486 473.743243243 926.486486486 500.871621622 944.243243243 c 128,-1,63
 528 962 528 962 546 992 c 128,-1,64
 564 1022 564 1022 573 1060 c 128,-1,65
 582 1098 582 1098 582 1138 c 128,-1,66
 582 1178 582 1178 573 1216.5 c 128,-1,67
 564 1255 564 1255 546 1285.5 c 128,-1,68
 528 1316 528 1316 501 1334.5 c 128,-1,69
 474 1353 474 1353 438 1353 c 0,70,71
 369.6 1353 369.6 1353 331.8 1290 c 128,-1,72
 294 1227 294 1227 294 1164 c 0,58,59
EndSplineSet
EndChar

StartChar: section
Encoding: 167 167 148
Width: 984
Flags: HW
LayerCount: 2
Fore
SplineSet
380 888 m 1,0,1
 357 862.7 357 862.7 357 833.35 c 0,2,3
 357 759 357 759 457 709 c 1,4,-1
 590 654 l 1,5,6
 628 681.866666667 628 681.866666667 628 721.433333333 c 0,7,8
 628 788.2 628 788.2 541 823 c 2,9,-1
 380 888 l 1,0,1
812 529 m 1,10,11
 894 447 894 447 894 317 c 0,12,13
 894 152.421052632 894 152.421052632 773.172413793 60.2105263158 c 128,-1,14
 652.344827586 -32 652.344827586 -32 492 -32 c 0,15,16
 235.227722772 -32 235.227722772 -32 131 127.5 c 0,17,18
 98 178 98 178 83 240 c 1,19,-1
 305 312 l 1,20,21
 322.262295082 237.196721311 322.262295082 237.196721311 387 196 c 0,22,23
 420 175 420 175 456.5 175 c 0,24,25
 526 175 526 175 572 198 c 128,-1,26
 618 221 618 221 618 263 c 0,27,28
 618 332.2 618 332.2 531 367 c 2,29,-1
 290 465 l 1,30,31
 90 543.350515464 90 543.350515464 90 779 c 0,32,33
 90 910.894736842 90 910.894736842 173 1007 c 1,34,35
 100 1091 100 1091 100 1237.41666667 c 128,-1,36
 100 1383.83333333 100 1383.83333333 214.310344828 1475.91666667 c 128,-1,37
 328.620689655 1568 328.620689655 1568 473.545638945 1568 c 128,-1,38
 618.470588235 1568 618.470588235 1568 726.76345798 1497.19312363 c 128,-1,39
 835.056327725 1426.38624726 835.056327725 1426.38624726 872 1300 c 1,40,-1
 636 1227 l 1,41,42
 614.073111782 1302.74743202 614.073111782 1302.74743202 561 1343.5 c 0,43,44
 533 1365 533 1365 500.5 1365 c 0,45,46
 439.217391304 1365 439.217391304 1365 403.108695652 1341.27142857 c 128,-1,47
 367 1317.54285714 367 1317.54285714 367 1271.53613445 c 128,-1,48
 367 1225.52941176 367 1225.52941176 436 1189 c 0,49,50
 453 1180 453 1180 467 1175 c 2,51,-1
 672 1090 l 2,52,53
 904 993.333333333 904 993.333333333 904 773 c 0,54,55
 904 627.571428571 904 627.571428571 812 529 c 1,10,11
EndSplineSet
EndChar

StartChar: greater
Encoding: 62 62 149
Width: 976
Flags: HW
LayerCount: 2
Fore
SplineSet
112 89 m 1,0,-1
 98 432 l 1,1,-1
 575 607 l 1,2,-1
 124 803 l 1,3,-1
 110 1064 l 1,4,-1
 920 704 l 1,5,-1
 920 439 l 1,6,-1
 112 89 l 1,0,-1
EndSplineSet
EndChar

StartChar: less
Encoding: 60 60 150
Width: 976
Flags: HW
LayerCount: 2
Fore
SplineSet
56 439 m 1,0,-1
 56 704 l 1,1,-1
 866 1064 l 1,2,-1
 852 803 l 1,3,-1
 401 607 l 1,4,-1
 878 432 l 1,5,-1
 864 89 l 1,6,-1
 56 439 l 1,0,-1
EndSplineSet
EndChar

StartChar: guilsinglleft
Encoding: 8249 8249 151
Width: 800
Flags: HW
LayerCount: 2
Fore
SplineSet
54 439 m 1,0,-1
 54 704 l 1,1,-1
 694 1094 l 1,2,-1
 680 833 l 1,3,-1
 299 607 l 1,4,-1
 706 402 l 1,5,-1
 692 59 l 1,6,-1
 54 439 l 1,0,-1
EndSplineSet
EndChar

StartChar: guilsinglright
Encoding: 8250 8250 152
Width: 800
Flags: HW
LayerCount: 2
Fore
SplineSet
108 59 m 1,0,-1
 94 402 l 1,1,-1
 501 607 l 1,2,-1
 120 833 l 1,3,-1
 106 1094 l 1,4,-1
 746 704 l 1,5,-1
 746 439 l 1,6,-1
 108 59 l 1,0,-1
EndSplineSet
EndChar

StartChar: trademark
Encoding: 8482 8482 153
Width: 1877
Flags: HW
LayerCount: 2
Fore
SplineSet
1032 1104 m 1,0,-1
 1032 548 l 1,1,-1
 860 539 l 1,2,-1
 860 1381 l 1,3,-1
 1165 1389 l 1,4,-1
 1306 888 l 1,5,-1
 1446 1364 l 1,6,-1
 1724 1382 l 1,7,-1
 1724 548 l 1,8,-1
 1508 531 l 1,9,-1
 1508 1100 l 1,10,-1
 1340 539 l 1,11,-1
 1211 539 l 1,12,-1
 1032 1104 l 1,0,-1
92 1215 m 1,13,-1
 109 1391 l 1,14,-1
 735 1391 l 1,15,-1
 717 1215 l 1,16,-1
 519 1215 l 1,17,-1
 519 548 l 1,18,-1
 310 531 l 1,19,-1
 310 1215 l 1,20,-1
 92 1215 l 1,13,-1
EndSplineSet
EndChar

StartChar: emdash
Encoding: 8212 8212 154
Width: 1379
Flags: HW
LayerCount: 2
Fore
SplineSet
114 718 m 1,0,-1
 1266 718 l 1,1,-1
 1266 480 l 1,2,-1
 114 480 l 1,3,-1
 114 718 l 1,0,-1
EndSplineSet
EndChar

StartChar: endash
Encoding: 8211 8211 155
Width: 804
Flags: HW
LayerCount: 2
Fore
SplineSet
114 718 m 1,0,-1
 690 718 l 1,1,-1
 690 480 l 1,2,-1
 114 480 l 1,3,-1
 114 718 l 1,0,-1
EndSplineSet
EndChar

StartChar: onesuperior
Encoding: 185 185 156
Width: 763
Flags: HW
LayerCount: 2
Fore
SplineSet
104 768 m 1,0,-1
 283 768 l 1,1,-1
 283 1206 l 1,2,3
 159 1190 159 1190 117 1190 c 2,4,-1
 91 1190 l 1,5,-1
 91 1331 l 1,6,-1
 422 1536 l 1,7,-1
 523 1536 l 1,8,-1
 523 768 l 1,9,-1
 710 768 l 1,10,-1
 698 576 l 1,11,-1
 104 576 l 1,12,-1
 104 768 l 1,0,-1
EndSplineSet
EndChar

StartChar: underscore
Encoding: 95 95 157
Width: 556
Flags: HW
LayerCount: 2
Fore
SplineSet
-10 0 m 1,0,-1
 566 0 l 1,1,-1
 566 -238 l 1,2,-1
 -10 -238 l 1,3,-1
 -10 0 l 1,0,-1
EndSplineSet
EndChar

StartChar: asciicircum
Encoding: 94 94 158
Width: 1032
Flags: HW
LayerCount: 2
Fore
SplineSet
1002 644 m 1,0,-1
 659 636 l 1,1,-1
 484 1119 l 1,2,-1
 288 644 l 1,3,-1
 27 642 l 1,4,-1
 387 1440 l 1,5,-1
 652 1440 l 1,6,-1
 1002 644 l 1,0,-1
EndSplineSet
EndChar

StartChar: twosuperior
Encoding: 178 178 159
Width: 840
Flags: HW
LayerCount: 2
Fore
SplineSet
707 768 m 1,0,-1
 691 576 l 1,1,-1
 87 576 l 1,2,-1
 87 749 l 1,3,4
 124 791 124 791 166.5 835 c 128,-1,5
 209 879 209 879 251.5 923.5 c 0,6,7
 357.492693111 1034.48058455 357.492693111 1034.48058455 413.246346555 1119.04029228 c 128,-1,8
 469 1203.6 469 1203.6 469 1286 c 0,9,10
 469 1324 469 1324 453.5 1351 c 128,-1,11
 438 1378 438 1378 410 1378 c 0,12,13
 364.884615385 1378 364.884615385 1378 341 1309 c 0,14,15
 330 1279 330 1279 326 1241 c 1,16,-1
 87 1321 l 1,17,18
 112.533427362 1425.26149506 112.533427362 1425.26149506 205.943184269 1496.63074753 c 128,-1,19
 299.352941176 1568 299.352941176 1568 434 1568 c 0,20,21
 655.777777778 1568 655.777777778 1568 728.5 1414 c 0,22,23
 754 1360 754 1360 754 1284 c 0,24,25
 754 1071.40677966 754 1071.40677966 403 768 c 1,26,-1
 707 768 l 1,0,-1
EndSplineSet
EndChar

StartChar: threesuperior
Encoding: 179 179 160
Width: 857
Flags: HW
LayerCount: 2
Fore
SplineSet
380 1381 m 0,0,1
 324.625 1381 324.625 1381 292 1294 c 1,2,-1
 85 1372 l 1,3,4
 172.955223881 1524.45572139 172.955223881 1524.45572139 302 1556 c 0,5,6
 347 1567 347 1567 406.5 1567 c 0,7,8
 540 1567 540 1567 639.5 1499.25531915 c 128,-1,9
 739 1431.5106383 739 1431.5106383 739 1315 c 0,10,11
 739 1152.046875 739 1152.046875 552 1079 c 1,12,13
 753 1016.1875 753 1016.1875 753 830 c 0,14,15
 753 689.292929293 753 689.292929293 647.947368421 608.646464646 c 128,-1,16
 542.894736842 528 542.894736842 528 390 528 c 0,17,18
 196.211764706 528 196.211764706 528 96.5 654.5 c 0,19,20
 63 697 63 697 48 754 c 1,21,-1
 263 817 l 1,22,23
 293 722 293 722 377 722 c 0,24,25
 423.7 722 423.7 722 451.85 753.277777778 c 128,-1,26
 480 784.555555556 480 784.555555556 480 829.277777778 c 0,27,28
 480 911.732142857 480 911.732142857 426.467741935 941.366071429 c 128,-1,29
 372.935483871 971 372.935483871 971 274 971 c 1,30,-1
 274 1164 l 1,31,32
 413.346938776 1164 413.346938776 1164 451 1225.5 c 0,33,34
 466 1250 466 1250 466 1287.5 c 128,-1,35
 466 1325 466 1325 444.5 1353 c 128,-1,36
 423 1381 423 1381 380 1381 c 0,0,1
EndSplineSet
EndChar

StartChar: onehalf
Encoding: 189 189 161
Width: 1984
Flags: HW
LayerCount: 2
Fore
SplineSet
1887 192 m 1,0,-1
 1871 0 l 1,1,-1
 1267 0 l 1,2,-1
 1267 173 l 1,3,4
 1304 215 1304 215 1346.5 259 c 128,-1,5
 1389 303 1389 303 1431.5 347.5 c 0,6,7
 1537.49269311 458.480584551 1537.49269311 458.480584551 1593.24634656 543.040292276 c 128,-1,8
 1649 627.6 1649 627.6 1649 710 c 0,9,10
 1649 748 1649 748 1633.5 775 c 128,-1,11
 1618 802 1618 802 1590 802 c 0,12,13
 1544.88461538 802 1544.88461538 802 1521 733 c 0,14,15
 1510 703 1510 703 1506 665 c 1,16,-1
 1267 745 l 1,17,18
 1292.53342736 849.261495063 1292.53342736 849.261495063 1385.94318427 920.630747532 c 128,-1,19
 1479.35294118 992 1479.35294118 992 1614 992 c 0,20,21
 1835.77777778 992 1835.77777778 992 1908.5 838 c 0,22,23
 1934 784 1934 784 1934 708 c 0,24,25
 1934 495.406779661 1934 495.406779661 1583 192 c 1,26,-1
 1887 192 l 1,0,-1
78 768 m 1,27,-1
 257 768 l 1,28,-1
 257 1206 l 1,29,30
 133 1190 133 1190 91 1190 c 2,31,-1
 65 1190 l 1,32,-1
 65 1331 l 1,33,-1
 396 1536 l 1,34,-1
 497 1536 l 1,35,-1
 497 768 l 1,36,-1
 684 768 l 1,37,-1
 672 576 l 1,38,-1
 78 576 l 1,39,-1
 78 768 l 1,27,-1
1058 1536 m 1,40,-1
 1346 1536 l 1,41,-1
 962 0 l 1,42,-1
 674 0 l 1,43,-1
 1058 1536 l 1,40,-1
EndSplineSet
EndChar

StartChar: onequarter
Encoding: 188 188 162
Width: 1991
Flags: HW
LayerCount: 2
Fore
SplineSet
1572 370 m 1,0,-1
 1572 711 l 1,1,-1
 1367 370 l 1,2,-1
 1572 370 l 1,0,-1
1572 192 m 1,3,-1
 1182 192 l 1,4,-1
 1182 360 l 1,5,-1
 1534 960 l 1,6,-1
 1820 960 l 1,7,-1
 1820 370 l 1,8,-1
 1945 370 l 1,9,-1
 1929 192 l 1,10,-1
 1820 192 l 1,11,-1
 1820 -32 l 1,12,-1
 1572 -48 l 1,13,-1
 1572 192 l 1,3,-1
84 768 m 1,14,-1
 263 768 l 1,15,-1
 263 1206 l 1,16,17
 139 1190 139 1190 97 1190 c 2,18,-1
 71 1190 l 1,19,-1
 71 1331 l 1,20,-1
 402 1536 l 1,21,-1
 503 1536 l 1,22,-1
 503 768 l 1,23,-1
 690 768 l 1,24,-1
 678 576 l 1,25,-1
 84 576 l 1,26,-1
 84 768 l 1,14,-1
1064 1536 m 1,27,-1
 1352 1536 l 1,28,-1
 968 0 l 1,29,-1
 680 0 l 1,30,-1
 1064 1536 l 1,27,-1
EndSplineSet
EndChar

StartChar: foursuperior
Encoding: 8308 8308 163
Width: 882
Flags: HW
LayerCount: 2
Fore
SplineSet
434 946 m 1,0,-1
 434 1287 l 1,1,-1
 229 946 l 1,2,-1
 434 946 l 1,0,-1
434 768 m 1,3,-1
 44 768 l 1,4,-1
 44 936 l 1,5,-1
 396 1536 l 1,6,-1
 682 1536 l 1,7,-1
 682 946 l 1,8,-1
 807 946 l 1,9,-1
 791 768 l 1,10,-1
 682 768 l 1,11,-1
 682 544 l 1,12,-1
 434 528 l 1,13,-1
 434 768 l 1,3,-1
EndSplineSet
EndChar

StartChar: threequarters
Encoding: 190 190 164
Width: 1981
Flags: HW
LayerCount: 2
Fore
SplineSet
1561 370 m 1,0,-1
 1561 711 l 1,1,-1
 1356 370 l 1,2,-1
 1561 370 l 1,0,-1
1561 192 m 1,3,-1
 1171 192 l 1,4,-1
 1171 360 l 1,5,-1
 1523 960 l 1,6,-1
 1809 960 l 1,7,-1
 1809 370 l 1,8,-1
 1934 370 l 1,9,-1
 1918 192 l 1,10,-1
 1809 192 l 1,11,-1
 1809 -32 l 1,12,-1
 1561 -48 l 1,13,-1
 1561 192 l 1,3,-1
375 1381 m 0,14,15
 319.625 1381 319.625 1381 287 1294 c 1,16,-1
 80 1372 l 1,17,18
 167.955223881 1524.45572139 167.955223881 1524.45572139 297 1556 c 0,19,20
 342 1567 342 1567 401.5 1567 c 0,21,22
 535 1567 535 1567 634.5 1499.25531915 c 128,-1,23
 734 1431.5106383 734 1431.5106383 734 1315 c 0,24,25
 734 1152.046875 734 1152.046875 547 1079 c 1,26,27
 748 1016.1875 748 1016.1875 748 830 c 0,28,29
 748 689.292929293 748 689.292929293 642.947368421 608.646464646 c 128,-1,30
 537.894736842 528 537.894736842 528 385 528 c 0,31,32
 191.211764706 528 191.211764706 528 91.5 654.5 c 0,33,34
 58 697 58 697 43 754 c 1,35,-1
 258 817 l 1,36,37
 288 722 288 722 372 722 c 0,38,39
 418.7 722 418.7 722 446.85 753.277777778 c 128,-1,40
 475 784.555555556 475 784.555555556 475 829.277777778 c 0,41,42
 475 911.732142857 475 911.732142857 421.467741935 941.366071429 c 128,-1,43
 367.935483871 971 367.935483871 971 269 971 c 1,44,-1
 269 1164 l 1,45,46
 408.346938776 1164 408.346938776 1164 446 1225.5 c 0,47,48
 461 1250 461 1250 461 1287.5 c 128,-1,49
 461 1325 461 1325 439.5 1353 c 128,-1,50
 418 1381 418 1381 375 1381 c 0,14,15
1053 1536 m 1,51,-1
 1341 1536 l 1,52,-1
 957 0 l 1,53,-1
 669 0 l 1,54,-1
 1053 1536 l 1,51,-1
EndSplineSet
EndChar

StartChar: oslash
Encoding: 248 248 167
Width: 1006
Flags: HW
LayerCount: 2
Fore
SplineSet
385 290 m 1,0,1
 419.333333333 187 419.333333333 187 500 187 c 0,2,3
 636.670588235 187 636.670588235 187 644 498.5 c 0,4,5
 645 541 645 541 645 577 c 2,6,-1
 645 620 l 1,7,-1
 385 290 l 1,0,1
635 773 m 1,8,9
 581.026899032 927.520869368 581.026899032 927.520869368 501 964 c 1,10,11
 362.19047619 964 362.19047619 964 358.5 654 c 0,12,13
 358 612 358 612 358 545.666666667 c 128,-1,14
 358 479.333333333 358 479.333333333 362 426 c 1,15,-1
 635 773 l 1,8,9
819 1007 m 1,16,-1
 906 1117 l 1,17,-1
 983 1049 l 1,18,-1
 873 910 l 1,19,20
 934 770 934 770 934 606.5 c 0,21,22
 934 302.688073394 934 302.688073394 820.993710692 137.844036697 c 128,-1,23
 707.987421384 -27 707.987421384 -27 502 -27 c 0,24,25
 332.925925926 -27 332.925925926 -27 223 85 c 1,26,-1
 132 -31 l 1,27,-1
 55 37 l 1,28,-1
 160 170 l 1,29,30
 70 326 70 326 70 585.25 c 128,-1,31
 70 844.5 70 844.5 180.923566879 1005.75 c 128,-1,32
 291.847133758 1167 291.847133758 1167 497.528830037 1167 c 128,-1,33
 703.210526316 1167 703.210526316 1167 819 1007 c 1,16,-1
EndSplineSet
EndChar

StartChar: Oslash
Encoding: 216 216 168
Width: 1129
Flags: HW
LayerCount: 2
Fore
SplineSet
403 444 m 1,0,1
 466.753079239 264.225085474 466.753079239 264.225085474 556.5 223 c 1,2,3
 622 223 622 223 657.5 264.5 c 128,-1,4
 693 306 693 306 716.5 404.445945946 c 128,-1,5
 740 502.891891892 740 502.891891892 740 820 c 2,6,-1
 740 853 l 1,7,-1
 403 444 l 1,0,1
562 1329 m 0,8,9
 386 1329 386 1329 386 820 c 2,10,-1
 386 723 l 2,11,12
 386 677 386 677 388 634 c 1,13,-1
 729 1048 l 1,14,15
 698.345454545 1329 698.345454545 1329 562 1329 c 0,8,9
562 1568 m 0,16,17
 830.773109244 1568 830.773109244 1568 951 1317 c 1,18,-1
 1035 1419 l 1,19,-1
 1130 1327 l 1,20,-1
 1002 1171 l 1,21,22
 1040 1016 1040 1016 1040 864 c 128,-1,23
 1040 712 1040 712 1032 607 c 128,-1,24
 1024 502 1024 502 1003.5 407.5 c 0,25,26
 958.922347986 202.007896815 958.922347986 202.007896815 853.817106197 85.0039484075 c 128,-1,27
 748.711864407 -32 748.711864407 -32 562 -32 c 0,28,29
 315.117647059 -32 315.117647059 -32 196 193 c 1,30,-1
 124 106 l 1,31,-1
 29 198 l 1,32,-1
 141 334 l 1,33,34
 87 522.129032258 87 522.129032258 87 820 c 0,35,36
 87 1358.78212291 87 1358.78212291 347.5 1514.5 c 0,37,38
 437 1568 437 1568 562 1568 c 0,16,17
EndSplineSet
EndChar

StartChar: Thorn
Encoding: 222 222 169
Width: 1082
Flags: HW
LayerCount: 2
Fore
SplineSet
493 488 m 2,0,1
 676.111111111 488 676.111111111 488 728.5 603 c 0,2,3
 749 648 749 648 749 717.5 c 0,4,5
 749 848.808823529 749 848.808823529 685.20212766 892.904411765 c 128,-1,6
 621.404255319 937 621.404255319 937 485 937 c 2,7,-1
 442 937 l 1,8,-1
 442 488 l 1,9,-1
 493 488 l 2,0,1
140 1536 m 1,10,-1
 442 1536 l 1,11,-1
 442 1167 l 1,12,13
 621.982832618 1164.50023844 621.982832618 1164.50023844 707.991416309 1144.75011922 c 128,-1,14
 794 1125 794 1125 852.5 1095 c 128,-1,15
 911 1065 911 1065 954.5 1015.5 c 128,-1,16
 998 966 998 966 1023 892.5 c 128,-1,17
 1048 819 1048 819 1048 716 c 128,-1,18
 1048 613 1048 613 1022 539.5 c 128,-1,19
 996 466 996 466 951 416 c 0,20,21
 868.77613321 324.640148011 868.77613321 324.640148011 737.952582734 294.820074006 c 128,-1,22
 607.129032258 265 607.129032258 265 440 265 c 1,23,-1
 440 -68 l 1,24,-1
 140 -92 l 1,25,-1
 140 1536 l 1,10,-1
EndSplineSet
EndChar

StartChar: AE
Encoding: 198 198 170
Width: 1580
Flags: HW
LayerCount: 2
Fore
SplineSet
786 575 m 1,0,-1
 808 1310 l 1,1,-1
 549 575 l 1,2,-1
 786 575 l 1,0,-1
769 0 m 1,3,-1
 785 329 l 1,4,-1
 450 329 l 1,5,-1
 320 0 l 1,6,-1
 -7 0 l 1,7,-1
 654 1518 l 1,8,-1
 858 1536 l 1,9,-1
 1514 1536 l 1,10,-1
 1490 1296 l 1,11,-1
 1104 1296 l 1,12,-1
 1104 930 l 1,13,-1
 1357 930 l 1,14,-1
 1356 672 l 1,15,-1
 1104 672 l 1,16,-1
 1104 240 l 1,17,-1
 1530 240 l 1,18,-1
 1506 0 l 1,19,-1
 769 0 l 1,3,-1
EndSplineSet
EndChar

StartChar: Lslash
Encoding: 321 321 171
Width: 985
Flags: HW
LayerCount: 2
Fore
SplineSet
455 1536 m 1,0,-1
 455 975 l 1,1,-1
 670 1006 l 1,2,-1
 670 768 l 1,3,-1
 455 737 l 1,4,-1
 455 240 l 1,5,-1
 975 240 l 1,6,-1
 927 0 l 1,7,-1
 156 0 l 1,8,-1
 156 694 l 1,9,-1
 -2 672 l 1,10,-1
 -2 910 l 1,11,-1
 156 932 l 1,12,-1
 156 1512 l 1,13,-1
 455 1536 l 1,0,-1
EndSplineSet
EndChar

StartChar: lslash
Encoding: 322 322 172
Width: 583
Flags: HW
LayerCount: 2
Fore
SplineSet
156 1500 m 1,0,-1
 444 1536 l 1,1,-1
 444 926.795138889 l 1,2,-1
 575 960 l 1,3,-1
 575 722 l 1,4,-1
 444 688.795138889 l 1,5,-1
 444 12 l 1,6,-1
 156 -12 l 1,7,-1
 156 615.795138889 l 1,8,-1
 -1 576 l 1,9,-1
 -1 814 l 1,10,-1
 156 853.795138889 l 1,11,-1
 156 1500 l 1,0,-1
EndSplineSet
EndChar

StartChar: Euro
Encoding: 8364 8364 173
Width: 1141
Flags: HW
LayerCount: 2
Fore
SplineSet
464 576 m 1,0,1
 539.609163923 287.703238734 539.609163923 287.703238734 655 225 c 1,2,3
 737.5 225 737.5 225 779 308 c 0,4,5
 805.933333333 361.866666667 805.933333333 361.866666667 817 467 c 1,6,-1
 1072 443 l 1,7,8
 1072 243.777777778 1072 243.777777778 959.181818182 105.888888889 c 128,-1,9
 846.363636364 -32 846.363636364 -32 636 -32 c 0,10,11
 236.265822785 -32 236.265822785 -32 167 576 c 1,12,-1
 51 576 l 1,13,-1
 51 720 l 1,14,-1
 157 720 l 1,15,16
 156 740 156 740 156 760 c 2,17,-1
 156 816 l 1,18,-1
 51 816 l 1,19,-1
 51 960 l 1,20,-1
 165 960 l 1,21,22
 211.796930342 1370.37308146 211.796930342 1370.37308146 444 1515.5 c 0,23,24
 528 1568 528 1568 619 1568 c 128,-1,25
 710 1568 710 1568 768 1548 c 128,-1,26
 826 1528 826 1528 873.5 1493.5 c 0,27,28
 965.514285714 1426.66857143 965.514285714 1426.66857143 1017.75714286 1311.73428571 c 128,-1,29
 1070 1196.8 1070 1196.8 1070 1074 c 1,30,-1
 780 1059 l 1,31,32
 780 1184.94117647 780 1184.94117647 736.571428571 1256.47058824 c 128,-1,33
 693.142857143 1328 693.142857143 1328 626 1328 c 0,34,35
 482.028571429 1328 482.028571429 1328 461 960 c 1,36,-1
 915 960 l 1,37,-1
 915 816 l 1,38,-1
 456 816 l 1,39,-1
 456 760 l 2,40,41
 456 740 456 740 457 720 c 1,42,-1
 915 720 l 1,43,-1
 915 576 l 1,44,-1
 464 576 l 1,0,1
EndSplineSet
EndChar

StartChar: thorn
Encoding: 254 254 174
Width: 1067
Flags: HW
LayerCount: 2
Fore
SplineSet
658 895 m 128,-1,1
 638 922 638 922 590.833333333 922 c 128,-1,2
 543.666666667 922 543.666666667 922 412 843 c 1,3,-1
 412 480 l 2,4,5
 412 240.56 412 240.56 501 192.5 c 0,6,7
 526 179 526 179 565.5 179 c 128,-1,8
 605 179 605 179 635 211 c 128,-1,9
 665 243 665 243 683.5 310.216666667 c 128,-1,10
 702 377.433333333 702 377.433333333 702 513.216666667 c 128,-1,11
 702 649 702 649 699.5 712 c 128,-1,12
 697 775 697 775 687.5 821.5 c 128,-1,0
 678 868 678 868 658 895 c 128,-1,1
412 1005 m 1,13,14
 560.5 1167 560.5 1167 720 1167 c 0,15,16
 767 1167 767 1167 818 1136 c 128,-1,17
 869 1105 869 1105 907 1035.5 c 0,18,19
 990 883.697368421 990 883.697368421 990 576 c 0,20,21
 990 -27 990 -27 659 -27 c 0,22,23
 525.0625 -27 525.0625 -27 456 58 c 0,24,25
 425 96 425 96 412 144 c 1,26,-1
 413 -358 l 1,27,-1
 124 -358 l 1,28,-1
 124 1500 l 1,29,-1
 412 1536 l 1,30,-1
 412 1005 l 1,13,14
EndSplineSet
EndChar

StartChar: divide
Encoding: 247 247 175
Width: 797
Flags: HW
LayerCount: 2
Fore
SplineSet
64 576 m 1,0,-1
 734 576 l 1,1,-1
 734 384 l 1,2,-1
 64 384 l 1,3,-1
 64 576 l 1,0,-1
544 960 m 1,4,-1
 544 672 l 1,5,-1
 256 672 l 1,6,-1
 256 960 l 1,7,-1
 544 960 l 1,4,-1
544 288 m 1,8,-1
 544 0 l 1,9,-1
 256 -12 l 1,10,-1
 256 288 l 1,11,-1
 544 288 l 1,8,-1
EndSplineSet
EndChar

StartChar: eth
Encoding: 240 240 176
Width: 1006
Flags: HW
LayerCount: 2
Fore
SplineSet
484 230 m 0,0,1
 623 230 623 230 623 536 c 2,2,-1
 623 608 l 1,3,-1
 622 633 l 2,4,5
 621 641 621 641 621 649 c 1,6,7
 546.727272727 692 546.727272727 692 495.363636364 692 c 0,8,9
 406.114285714 692 406.114285714 692 369.057142857 619.944444444 c 128,-1,10
 332 547.888888889 332 547.888888889 332 447 c 0,11,12
 332 307.254237288 332 307.254237288 408.5 251.5 c 0,13,14
 438 230 438 230 484 230 c 0,0,1
859.550375325 1164.61241195 m 1,15,16
 916 981.293022103 916 981.293022103 916 774 c 0,17,18
 916 -32 916 -32 471 -32 c 0,19,20
 286.637037037 -32 286.637037037 -32 164.818518519 113.53539823 c 128,-1,21
 43 259.07079646 43 259.07079646 43 453.130903848 c 128,-1,22
 43 647.191011236 43 647.191011236 138.2 791.595505618 c 128,-1,23
 233.4 936 233.4 936 387 936 c 0,24,25
 515.571428571 936 515.571428571 936 623 856 c 1,26,27
 619.372005301 1008.37577735 619.372005301 1008.37577735 605.279349373 1086.34331764 c 1,28,-1
 393 1021 l 1,29,-1
 329 1202 l 1,30,-1
 540.960581383 1267.24519525 l 1,31,32
 460.390850367 1335.72494819 460.390850367 1335.72494819 397 1346 c 1,33,34
 291 1346 291 1346 155 1250 c 0,35,36
 121 1226 121 1226 100 1207 c 1,37,-1
 -8 1393 l 1,38,39
 120.342465753 1499.95205479 120.342465753 1499.95205479 213.460706561 1533.9760274 c 128,-1,40
 306.578947368 1568 306.578947368 1568 448 1568 c 0,41,42
 658.632775068 1568 658.632775068 1568 785.44360585 1342.50137053 c 1,43,-1
 943 1391 l 1,44,-1
 1007 1210 l 1,45,-1
 859.550375325 1164.61241195 l 1,15,16
EndSplineSet
EndChar

StartChar: multiply
Encoding: 215 215 177
Width: 857
Flags: HW
LayerCount: 2
Fore
SplineSet
427 720 m 1,0,-1
 615 908 l 1,1,-1
 783 739 l 1,2,-1
 595 552 l 1,3,-1
 786 362 l 1,4,-1
 617 193 l 1,5,-1
 427 384 l 1,6,-1
 240 196 l 1,7,-1
 71 364 l 1,8,-1
 259 552 l 1,9,-1
 74 736 l 1,10,-1
 243 905 l 1,11,-1
 427 720 l 1,0,-1
EndSplineSet
EndChar

StartChar: guillemotleft
Encoding: 171 171 178
Width: 1244
Flags: HW
LayerCount: 2
Fore
SplineSet
630 439 m 1,0,-1
 630 704 l 1,1,-1
 1140 1094 l 1,2,-1
 1126 833 l 1,3,-1
 825 607 l 1,4,-1
 1152 402 l 1,5,-1
 1138 59 l 1,6,-1
 630 439 l 1,0,-1
54 439 m 1,7,-1
 54 704 l 1,8,-1
 564 1094 l 1,9,-1
 550 833 l 1,10,-1
 249 607 l 1,11,-1
 576 402 l 1,12,-1
 562 59 l 1,13,-1
 54 439 l 1,7,-1
EndSplineSet
EndChar

StartChar: guillemotright
Encoding: 187 187 179
Width: 1244
Flags: HW
LayerCount: 2
Fore
SplineSet
106 59 m 1,0,-1
 92 402 l 1,1,-1
 419 607 l 1,2,-1
 118 833 l 1,3,-1
 104 1094 l 1,4,-1
 614 704 l 1,5,-1
 614 439 l 1,6,-1
 106 59 l 1,0,-1
682 59 m 1,7,-1
 668 402 l 1,8,-1
 995 607 l 1,9,-1
 694 833 l 1,10,-1
 680 1094 l 1,11,-1
 1190 704 l 1,12,-1
 1190 439 l 1,13,-1
 682 59 l 1,7,-1
EndSplineSet
EndChar

StartChar: asciitilde
Encoding: 126 126 180
Width: 815
Flags: HW
LayerCount: 2
Fore
SplineSet
284 878 m 0,0,1
 193.666666667 878 193.666666667 878 91 768 c 1,2,-1
 92 932 l 1,3,4
 155.59375 1007.15625 155.59375 1007.15625 211.296875 1040.578125 c 128,-1,5
 267 1074 267 1074 305 1074 c 128,-1,6
 343 1074 343 1074 374 1057 c 128,-1,7
 405 1040 405 1040 433 1019 c 128,-1,8
 461 998 461 998 488 981 c 128,-1,9
 515 964 515 964 555 964 c 0,10,11
 629.380952381 964 629.380952381 964 687 1019 c 0,12,13
 713 1043 713 1043 729 1074 c 1,14,-1
 729 892 l 2,15,16
 729 891 729 891 716 869.5 c 128,-1,17
 703 848 703 848 678.5 823 c 0,18,19
 613.82 757 613.82 757 538 757 c 0,20,21
 504 757 504 757 475.5 776 c 128,-1,22
 447 795 447 795 418 817.5 c 128,-1,23
 389 840 389 840 357 859 c 128,-1,24
 325 878 325 878 284 878 c 0,0,1
EndSplineSet
EndChar

StartChar: ordfeminine
Encoding: 170 170 181
Width: 774
Flags: HW
LayerCount: 2
Fore
SplineSet
442 726 m 1,0,1
 276 726 276 726 276 552 c 0,2,3
 276 440 276 440 360 440 c 0,4,5
 399.142857143 440 399.142857143 440 442 490 c 1,6,-1
 442 726 l 1,0,1
654 468 m 2,7,8
 654 392.428571429 654 392.428571429 676 317 c 1,9,-1
 470 299 l 1,10,-1
 447 403 l 1,11,12
 408.509433962 329.226415094 408.509433962 329.226415094 315 297.5 c 0,13,14
 287 288 287 288 252 288 c 0,15,16
 173.857142857 288 173.857142857 288 121 362 c 128,-1,17
 68 436.2 68 436.2 68 537.6 c 0,18,19
 68 826.285714286 68 826.285714286 442 853 c 1,20,21
 442 968.32 442 968.32 415.5 998 c 0,22,23
 403 1012 403 1012 380 1012 c 0,24,25
 315.294117647 1012 315.294117647 1012 304 916 c 1,26,-1
 98 952 l 1,27,28
 112.652998909 1067.39236641 112.652998909 1067.39236641 192.948948434 1117.19618321 c 128,-1,29
 273.244897959 1167 273.244897959 1167 362.62244898 1167 c 0,30,31
 518.253521127 1167 518.253521127 1167 586.126760563 1095.07462687 c 128,-1,32
 654 1023.14925373 654 1023.14925373 654 907 c 2,33,-1
 654 468 l 2,7,8
EndSplineSet
EndChar

StartChar: germandbls
Encoding: 223 223 182
Width: 1170
Flags: HW
LayerCount: 2
Fore
SplineSet
1000 1192 m 0,0,1
 1000 996 1000 996 793 858 c 1,2,3
 947.383115148 807.343040342 947.383115148 807.343040342 1023.5 734.5 c 0,4,5
 1127 635.451612903 1127 635.451612903 1127 471 c 0,6,7
 1127 25.7972972973 1127 25.7972972973 540 2 c 1,8,-1
 540 230 l 1,9,-1
 552 230 l 2,10,11
 691.6 230 691.6 230 763.8 298.014492754 c 128,-1,12
 836 366.028985507 836 366.028985507 836 466.014492754 c 128,-1,13
 836 566 836 566 757.5 644.5 c 128,-1,14
 679 723 679 723 551 723 c 1,15,-1
 551 931 l 1,16,17
 700.493695441 979.872938894 700.493695441 979.872938894 739.5 1093.5 c 0,18,19
 751 1127 751 1127 751 1161.5 c 0,20,21
 751 1234.89795918 751 1234.89795918 698.107843137 1289.94897959 c 128,-1,22
 645.215686275 1345 645.215686275 1345 572.678018576 1345 c 128,-1,23
 500.140350877 1345 500.140350877 1345 457.070175439 1285.12195122 c 128,-1,24
 414 1225.24390244 414 1225.24390244 414 1111 c 2,25,-1
 414 0 l 1,26,-1
 124 0 l 1,27,-1
 124 1056 l 2,28,29
 124 1311.38053097 124 1311.38053097 240.471774194 1439.19026549 c 128,-1,30
 356.943548387 1567 356.943548387 1567 529 1567 c 0,31,32
 739.269230769 1567 739.269230769 1567 869.634615385 1455.86885246 c 128,-1,33
 1000 1344.73770492 1000 1344.73770492 1000 1192 c 0,0,1
EndSplineSet
EndChar

StartChar: Eth
Encoding: 208 208 183
Width: 1138
Flags: HW
LayerCount: 2
Fore
SplineSet
148 1536 m 1,0,-1
 462 1536 l 2,1,2
 765 1536 765 1536 915 1344.5 c 128,-1,3
 1065 1153 1065 1153 1065 762 c 0,4,5
 1065 442.627906977 1065 442.627906977 941 235 c 0,6,7
 800.652777778 5.68434188608e-14 800.652777778 5.68434188608e-14 515 0 c 2,8,-1
 148 0 l 1,9,-1
 148 672 l 1,10,-1
 5 672 l 1,11,-1
 5 864 l 1,12,-1
 148 864 l 1,13,-1
 148 1536 l 1,0,-1
490 240 m 2,14,15
 765 240 765 240 765 705 c 2,16,-1
 765 817 l 2,17,18
 765 1173.02970297 765 1173.02970297 608.5 1266 c 0,19,20
 558 1296 558 1296 482 1296 c 2,21,-1
 447 1296 l 1,22,-1
 447 864 l 1,23,-1
 581 864 l 1,24,-1
 581 672 l 1,25,-1
 447 672 l 1,26,-1
 447 240 l 1,27,-1
 490 240 l 2,14,15
EndSplineSet
EndChar

StartChar: lessequal
Encoding: 8804 8804 265
Width: 979
Flags: HW
LayerCount: 2
Fore
SplineSet
184 237 m 1,0,-1
 760 237 l 1,1,-1
 760 -1 l 1,2,-1
 184 -1 l 1,3,-1
 184 237 l 1,0,-1
61 823 m 1,4,-1
 61 1088 l 1,5,-1
 871 1448 l 1,6,-1
 857 1187 l 1,7,-1
 406 991 l 1,8,-1
 883 816 l 1,9,-1
 869 473 l 1,10,-1
 61 823 l 1,4,-1
EndSplineSet
EndChar

StartChar: greaterequal
Encoding: 8805 8805 266
Width: 979
Flags: HW
LayerCount: 2
Fore
SplineSet
219 238 m 1,0,-1
 795 238 l 1,1,-1
 795 0 l 1,2,-1
 219 0 l 1,3,-1
 219 238 l 1,0,-1
110 473 m 1,4,-1
 96 816 l 1,5,-1
 573 991 l 1,6,-1
 122 1187 l 1,7,-1
 108 1448 l 1,8,-1
 918 1088 l 1,9,-1
 918 823 l 1,10,-1
 110 473 l 1,4,-1
EndSplineSet
EndChar

StartChar: product
Encoding: 8719 8719 269
Width: 1171
Flags: HW
LayerCount: 2
Fore
SplineSet
730 1238 m 1,0,-1
 442 1238 l 1,1,-1
 442 12 l 1,2,-1
 142 -12 l 1,3,-1
 142 1512 l 1,4,-1
 1030 1512 l 1,5,-1
 1030 12 l 1,6,-1
 730 -12 l 1,7,-1
 730 1238 l 1,0,-1
EndSplineSet
EndChar

StartChar: pi
Encoding: 960 960 270
Width: 538
Flags: HW
LayerCount: 2
Fore
SplineSet
124 1128 m 1,0,-1
 412 1152 l 1,1,-1
 412 1151.83333333 l 1,2,-1
 414 1152 l 1,3,-1
 414 12 l 1,4,-1
 126 -12 l 1,5,-1
 126 -11.8333333333 l 1,6,-1
 124 -12 l 1,7,-1
 124 1128 l 1,0,-1
-20 1440 m 1,8,-1
 556 1440 l 1,9,-1
 556 1248 l 1,10,-1
 -20 1248 l 1,11,-1
 -20 1440 l 1,8,-1
EndSplineSet
EndChar

StartChar: integral
Encoding: 8747 8747 271
Width: 709
Flags: HW
LayerCount: 2
Fore
SplineSet
334 1514 m 128,-1,1
 392 1546 392 1546 507.75 1546 c 128,-1,2
 623.5 1546 623.5 1546 691 1516 c 1,3,-1
 691 1344 l 1,4,-1
 628 1344 l 2,5,6
 513.806451613 1344 513.806451613 1344 501.5 1235 c 0,7,8
 498 1204 498 1204 498 1173 c 2,9,-1
 498 -22 l 2,10,11
 498 -92 498 -92 492.5 -158.5 c 0,12,13
 473.022556391 -394 473.022556391 -394 212 -394 c 0,14,15
 77 -394 77 -394 17 -364 c 1,16,-1
 17 -192 l 1,17,-1
 80 -192 l 2,18,19
 194.049180328 -192 194.049180328 -192 206.5 -83.5 c 0,20,21
 210 -53 210 -53 210 -21 c 2,22,-1
 210 1174 l 2,23,24
 210 1244 210 1244 215.5 1310.5 c 128,-1,25
 221 1377 221 1377 248.5 1429.5 c 128,-1,0
 276 1482 276 1482 334 1514 c 128,-1,1
EndSplineSet
EndChar

StartChar: Delta
Encoding: 8710 8710 275
Width: 1047
Flags: HW
LayerCount: 2
Fore
SplineSet
412 192 m 1,0,-1
 719 192 l 1,1,-1
 553 907 l 1,2,-1
 412 192 l 1,0,-1
385 1322 m 1,3,-1
 650 1322 l 1,4,-1
 1004 0 l 1,5,-1
 44 0 l 1,6,-1
 385 1322 l 1,3,-1
EndSplineSet
EndChar

StartChar: lozenge
Encoding: 9674 9674 276
Width: 938
Flags: HW
LayerCount: 2
Fore
SplineSet
296 720 m 1,0,-1
 461 321 l 1,1,-1
 605 720 l 1,2,-1
 461 1119 l 1,3,-1
 296 720 l 1,0,-1
887 642 m 1,4,-1
 605 0 l 1,5,-1
 340 0 l 1,6,-1
 50 642 l 1,7,-1
 50 797 l 1,8,-1
 340 1440 l 1,9,-1
 605 1440 l 1,10,-1
 887 797 l 1,11,-1
 887 642 l 1,4,-1
EndSplineSet
EndChar

StartChar: zero.zero
Encoding: 65539 -1 278
Width: 1138
Flags: HW
LayerCount: 2
Fore
SplineSet
568 228 m 128,-1,1
 596 228 596 228 620.5 236 c 128,-1,2
 645 244 645 244 666 266 c 0,3,4
 754 358.19047619 754 358.19047619 754 727.347826087 c 0,5,6
 754 900 754 900 749.5 995.5 c 0,7,8
 734.77486911 1308 734.77486911 1308 568 1308 c 0,9,10
 447.64028777 1308 447.64028777 1308 410.5 1160.5 c 0,11,12
 386 1063.2 386 1063.2 386 864.6 c 128,-1,13
 386 666 386 666 391.5 578 c 128,-1,14
 397 490 397 490 408 428 c 128,-1,15
 419 366 419 366 435 327 c 128,-1,16
 451 288 451 288 471 266 c 128,-1,17
 491 244 491 244 515.5 236 c 128,-1,0
 540 228 540 228 568 228 c 128,-1,1
568 -27 m 0,18,19
 97 -27 97 -27 97 786 c 0,20,21
 97 1379.42857143 97 1379.42857143 394.5 1513 c 0,22,23
 468 1546 468 1546 567.5 1546 c 128,-1,24
 667 1546 667 1546 741 1513 c 128,-1,25
 815 1480 815 1480 867.5 1423 c 0,26,27
 964.237536657 1317.97067449 964.237536657 1317.97067449 1002.87233976 1150.55319439 c 128,-1,28
 1041.50714286 983.135714286 1041.50714286 983.135714286 1041.50714286 842.296666667 c 128,-1,29
 1041.50714286 701.457619048 1041.50714286 701.457619048 1033.75357143 602.728809524 c 128,-1,30
 1026 504 1026 504 1007 413.5 c 0,31,32
 964.955347871 213.234683281 964.955347871 213.234683281 859.852673936 93.1173416407 c 128,-1,33
 754.75 -27 754.75 -27 568 -27 c 0,18,19
EndSplineSet
EndChar

StartChar: Dcroat
Encoding: 272 272 289
Width: 1135
Flags: HW
LayerCount: 2
Fore
SplineSet
487 240 m 2,0,1
 762 240 762 240 762 705 c 2,2,-1
 762 817 l 2,3,4
 762 1173.02970297 762 1173.02970297 605.5 1266 c 0,5,6
 555 1296 555 1296 479 1296 c 2,7,-1
 444 1296 l 1,8,-1
 444 908 l 1,9,-1
 630 908 l 1,10,-1
 611 716 l 1,11,-1
 444 716 l 1,12,-1
 444 240 l 1,13,-1
 487 240 l 2,0,1
54 908 m 1,14,-1
 145 908 l 1,15,-1
 145 1536 l 1,16,-1
 459 1536 l 2,17,18
 762 1536 762 1536 912 1344.5 c 128,-1,19
 1062 1153 1062 1153 1062 762 c 0,20,21
 1062 442.627906977 1062 442.627906977 938 235 c 0,22,23
 797.652777778 -9.94759830064e-14 797.652777778 -9.94759830064e-14 512 0 c 2,24,-1
 145 0 l 1,25,-1
 145 716 l 1,26,-1
 35 716 l 1,27,-1
 54 908 l 1,14,-1
EndSplineSet
EndChar

StartChar: Hbar
Encoding: 294 294 300
Width: 1179
Flags: HW
LayerCount: 2
Fore
SplineSet
733 913 m 1,0,-1
 733 1162 l 1,1,-1
 445 1162 l 1,2,-1
 445 913 l 1,3,-1
 733 913 l 1,0,-1
26 1344 m 1,4,-1
 145 1344 l 1,5,-1
 145 1512 l 1,6,-1
 445 1536 l 1,7,-1
 445 1344 l 1,8,-1
 733 1344 l 1,9,-1
 733 1512 l 1,10,-1
 1033 1536 l 1,11,-1
 1033 1344 l 1,12,-1
 1139 1344 l 1,13,-1
 1139 1162 l 1,14,-1
 1033 1162 l 1,15,-1
 1033 12 l 1,16,-1
 733 -12 l 1,17,-1
 733 639 l 1,18,-1
 445 639 l 1,19,-1
 445 12 l 1,20,-1
 145 -12 l 1,21,-1
 145 1162 l 1,22,-1
 26 1162 l 1,23,-1
 26 1344 l 1,4,-1
EndSplineSet
EndChar

StartChar: Eng
Encoding: 330 330 316
Width: 1245
Flags: HW
LayerCount: 2
Fore
SplineSet
628 -84 m 1,0,1
 670 -98 670 -98 715.5 -98 c 0,2,3
 802.180327869 -98 802.180327869 -98 832.5 -29.5 c 0,4,5
 850 10.037037037 850 10.037037037 850 120 c 2,6,-1
 850 143 l 1,7,-1
 409 998 l 1,8,-1
 409 12 l 1,9,-1
 141 0 l 1,10,-1
 141 1524 l 1,11,-1
 454 1536 l 1,12,-1
 850 722 l 1,13,-1
 850 1512 l 1,14,-1
 1104 1536 l 1,15,-1
 1104 95 l 2,16,17
 1104 -204.706422018 1104 -204.706422018 954.5 -287 c 0,18,19
 900 -317 900 -317 819.5 -317 c 128,-1,20
 739 -317 739 -317 628 -287 c 1,21,-1
 628 -84 l 1,0,1
EndSplineSet
EndChar

StartChar: uni018F
Encoding: 399 399 348
Width: 1109
Flags: HW
LayerCount: 2
Fore
SplineSet
545 223 m 0,0,1
 634.166666667 223 634.166666667 223 672.287414966 314.489795918 c 128,-1,2
 710.408163265 405.979591837 710.408163265 405.979591837 719 595 c 1,3,-1
 373 595 l 1,4,5
 381.729810568 405.12662014 381.729810568 405.12662014 408.364905284 339.56331007 c 128,-1,6
 435 274 435 274 466.5 248.5 c 128,-1,7
 498 223 498 223 545 223 c 0,0,1
88 1141 m 1,8,9
 191.515151515 1568 191.515151515 1568 545 1568 c 0,10,11
 787.12755102 1568 787.12755102 1568 905.06377551 1370.43162393 c 128,-1,12
 1023 1172.86324786 1023 1172.86324786 1023 820 c 0,13,14
 1023 575.756097561 1023 575.756097561 994.5 444.37804878 c 128,-1,15
 966 313 966 313 931.5 232.5 c 128,-1,16
 897 152 897 152 844 93 c 128,-1,17
 791 34 791 34 717 1 c 128,-1,18
 643 -32 643 -32 545 -32 c 128,-1,19
 447 -32 447 -32 373.5 1 c 128,-1,20
 300 34 300 34 247 93 c 0,21,22
 70 290.037735849 70 290.037735849 70 816 c 1,23,-1
 723 816 l 1,24,-1
 723 820 l 2,25,26
 723 1329 723 1329 545 1329 c 0,27,28
 405 1329 405 1329 365 1044 c 1,29,-1
 88 1141 l 1,8,9
EndSplineSet
EndChar

StartChar: dotlessj
Encoding: 567 567 387
Width: 536
Flags: HW
LayerCount: 2
Fore
SplineSet
304.5 -265 m 128,-1,1
 253 -288 253 -288 163.15 -288 c 128,-1,2
 73.3 -288 73.3 -288 -35 -269 c 1,3,-1
 -35 -96 l 1,4,5
 70.8285714286 -96 70.8285714286 -96 97.4142857143 -65.9838709677 c 0,6,7
 124 -35.9677419355 124 -35.9677419355 124 54 c 2,8,-1
 124 1128 l 1,9,-1
 412 1152 l 1,10,-1
 412 54 l 2,11,12
 412 -27 412 -27 408 -91 c 128,-1,13
 404 -155 404 -155 380 -198.5 c 128,-1,0
 356 -242 356 -242 304.5 -265 c 128,-1,1
EndSplineSet
EndChar

StartChar: eng
Encoding: 331 331 398
Width: 1105
Flags: HW
LayerCount: 2
Fore
SplineSet
880.5 -265 m 128,-1,1
 829 -288 829 -288 739.15 -288 c 128,-1,2
 649.3 -288 649.3 -288 541 -269 c 1,3,-1
 541 -96 l 1,4,5
 646.828571429 -96 646.828571429 -96 673.414285714 -65.9838709677 c 0,6,7
 700 -35.9677419355 700 -35.9677419355 700 54 c 2,8,-1
 700 769 l 2,9,10
 700 922 700 922 595 922 c 0,11,12
 557 922 557 922 509.5 897 c 128,-1,13
 462 872 462 872 412 842 c 1,14,-1
 412 12 l 1,15,-1
 124 -12 l 1,16,-1
 124 1128 l 1,17,-1
 412 1152 l 1,18,-1
 412 1005 l 1,19,20
 597.76 1167 597.76 1167 742 1167 c 0,21,22
 850.466666667 1167 850.466666667 1167 919.233333333 1087.65384615 c 0,23,24
 988 1008.30769231 988 1008.30769231 988 876 c 2,25,-1
 988 54 l 2,26,27
 988 -27 988 -27 984 -91 c 128,-1,28
 980 -155 980 -155 956 -198.5 c 128,-1,0
 932 -242 932 -242 880.5 -265 c 128,-1,1
EndSplineSet
EndChar

StartChar: schwa
Encoding: 601 601 430
Width: 965
Flags: HW
LayerCount: 2
Fore
SplineSet
333 438 m 1,0,1
 333 246.705882353 333 246.705882353 405.5 187 c 0,2,3
 431 166 431 166 462.5 166 c 0,4,5
 522.864864865 166 522.864864865 166 565.432432432 246.769230769 c 128,-1,6
 608 327.538461538 608 327.538461538 608 438 c 1,7,-1
 333 438 l 1,0,1
90 850 m 1,8,9
 180.571428571 1167 180.571428571 1167 486 1167 c 0,10,11
 578 1167 578 1167 657.5 1123 c 128,-1,12
 737 1079 737 1079 789.5 1000 c 0,13,14
 895 841.247619048 895 841.247619048 895 568.373809524 c 128,-1,15
 895 295.5 895 295.5 783.773584906 131.75 c 128,-1,16
 672.547169811 -32 672.547169811 -32 467.600628931 -32 c 128,-1,17
 262.65408805 -32 262.65408805 -32 156.327044025 132.13592233 c 128,-1,18
 50 296.27184466 50 296.27184466 50 570 c 1,19,20
 58 598 58 598 58 604 c 1,21,-1
 608 604 l 1,22,23
 608 825.944444444 608 825.944444444 534 920.5 c 0,24,25
 507 955 507 955 470.5 955 c 128,-1,26
 434 955 434 955 406 928 c 128,-1,27
 378 901 378 901 357 867 c 128,-1,28
 336 833 336 833 323.5 803 c 128,-1,29
 311 773 311 773 308 767 c 1,30,-1
 90 850 l 1,8,9
EndSplineSet
EndChar

StartChar: Sigma
Encoding: 931 931 440
Width: 1008
Flags: HW
LayerCount: 2
Fore
SplineSet
581 1296 m 1,0,-1
 98 1296 l 1,1,-1
 122 1536 l 1,2,-1
 935 1536 l 1,3,-1
 935 1337 l 1,4,-1
 421 240 l 1,5,-1
 949 240 l 1,6,-1
 901 0 l 1,7,-1
 51 0 l 1,8,-1
 51 190 l 1,9,-1
 581 1296 l 1,0,-1
EndSplineSet
EndChar

StartChar: commaaccent
Encoding: 63171 63171 442
Width: 481
Flags: HW
LayerCount: 2
Fore
SplineSet
390 672 m 1,0,-1
 390 384 l 2,1,2
 390 202.909090909 390 202.909090909 270 132 c 0,3,4
 217 100 217 100 150 96 c 1,5,-1
 150 288 l 1,6,7
 210 288 210 288 234 336 c 0,8,9
 245 357 245 357 246 384 c 1,10,-1
 102 384 l 1,11,-1
 102 672 l 1,12,-1
 390 672 l 1,0,-1
EndSplineSet
EndChar

StartChar: uni0311
Encoding: 785 785 443
Width: 1018
Flags: HW
LayerCount: 2
Fore
SplineSet
77 1248 m 1,0,1
 77 1421.5 77 1421.5 167 1556.5 c 0,2,3
 281.333333333 1728 281.333333333 1728 509 1728 c 128,-1,4
 736.666666667 1728 736.666666667 1728 851 1556.5 c 0,5,6
 941 1421.5 941 1421.5 941 1248 c 1,7,-1
 701 1248 l 1,8,9
 701 1356 701 1356 680 1398 c 128,-1,10
 659 1440 659 1440 620 1464 c 128,-1,11
 581 1488 581 1488 509 1488 c 0,12,13
 383 1488 383 1488 341 1404 c 0,14,15
 317 1356 317 1356 317 1248 c 1,16,-1
 77 1248 l 1,0,1
EndSplineSet
EndChar

StartChar: uni030F
Encoding: 783 783 444
Width: 1102
Flags: HW
LayerCount: 2
Fore
SplineSet
384 1248 m 1,0,-1
 0 1632 l 1,1,-1
 234 1826 l 1,2,-1
 503 1346 l 1,3,-1
 384 1248 l 1,0,-1
762 1250 m 1,4,-1
 469 1708 l 1,5,-1
 739 1847 l 1,6,-1
 899 1320 l 1,7,-1
 762 1250 l 1,4,-1
EndSplineSet
EndChar

